SplineFontDB: 3.2
FontName: binarywonlyw8mono
FullName: binarywonlyw8mono
FamilyName: binarywonlyw8mono
Weight: Regular
Copyright: github.com/zawa8/font hscii 4finger1thumb 4f1t maths
Version: w0.000
ItalicAngle: 0
UnderlinePosition: -125
UnderlineWidth: 50
Ascent: 800
Descent: 200
InvalidEm: 0
sfntRevision: 0x00010000
LayerCount: 2
Layer: 0 1 "Back" 1
Layer: 1 1 "Fore" 0
XUID: [1021 426 849761687 13685114]
UniqueID: 2060032334
StyleMap: 0x0040
FSType: 0
OS2Version: 4
OS2_WeightWidthSlopeOnly: 0
OS2_UseTypoMetrics: 1
CreationTime: 1633362791
ModificationTime: 1744594922
PfmFamily: 17
TTFWeight: 400
TTFWidth: 5
LineGap: 0
VLineGap: 0
Panose: 2 11 5 2 4 5 4 2 2 4
OS2TypoAscent: 1069
OS2TypoAOffset: 0
OS2TypoDescent: -293
OS2TypoDOffset: 0
OS2TypoLinegap: 0
OS2WinAscent: 1124
OS2WinAOffset: 0
OS2WinDescent: 395
OS2WinDOffset: 0
HheadAscent: 1069
HheadAOffset: 0
HheadDescent: -293
HheadDOffset: 0
OS2SubXSize: 650
OS2SubYSize: 600
OS2SubXOff: 0
OS2SubYOff: 75
OS2SupXSize: 650
OS2SupYSize: 600
OS2SupXOff: 0
OS2SupYOff: 350
OS2StrikeYSize: 50
OS2StrikeYPos: 322
OS2CapHeight: 714
OS2XHeight: 536
OS2Vendor: 'zawa'
OS2CodePages: 0000019f.00000000
OS2UnicodeRanges: e00002ff.4000201f.08000029.00100000
MarkAttachClasses: 3

StartChar: exclam
Encoding: 33 33 3
Width: 600
Flags: W
LayerCount: 2
Fore
SplineSet
293.5 122.599609375 m 4,0,1
 272.700195312 122.599609375 272.700195312 122.599609375 261 135.799804688 c 132,-1,2
 249.299804688 149 249.299804688 149 243.450195312 181.400390625 c 132,-1,3
 237.599609375 213.799804688 237.599609375 213.799804688 236.299804688 268.400390625 c 132,-1,4
 235 323 235 323 235 405.799804688 c 4,5,6
 235 522.200195312 235 522.200195312 236.299804688 587 c 132,-1,7
 237.599609375 651.799804688 237.599609375 651.799804688 245.400390625 683 c 132,-1,8
 253.200195312 714.200195312 253.200195312 714.200195312 269.450195312 720.799804688 c 132,-1,9
 285.700195312 727.400390625 285.700195312 727.400390625 315.599609375 727.400390625 c 4,10,11
 331.200195312 727.400390625 331.200195312 727.400390625 340.299804688 719 c 132,-1,12
 349.400390625 710.599609375 349.400390625 710.599609375 355.25 683 c 132,-1,13
 361.099609375 655.400390625 361.099609375 655.400390625 363.049804688 601.400390625 c 132,-1,14
 365 547.400390625 365 547.400390625 365 455 c 4,15,16
 365 287 365 287 352 204.799804688 c 132,-1,17
 339 122.599609375 339 122.599609375 293.5 122.599609375 c 4,0,1
276.599609375 699.799804688 m 4,18,19
 271.400390625 699.799804688 271.400390625 699.799804688 263.599609375 685.400390625 c 132,-1,20
 255.799804688 671 255.799804688 671 255.799804688 641 c 4,21,22
 255.799804688 625.400390625 255.799804688 625.400390625 257.75 610.400390625 c 132,-1,23
 259.700195312 595.400390625 259.700195312 595.400390625 268.799804688 595.400390625 c 4,24,25
 276.599609375 595.400390625 276.599609375 595.400390625 279.200195312 600.200195312 c 132,-1,26
 281.799804688 605 281.799804688 605 281.799804688 611.599609375 c 132,-1,27
 281.799804688 618.200195312 281.799804688 618.200195312 281.150390625 626.599609375 c 132,-1,28
 280.5 635 280.5 635 280.5 642.200195312 c 4,29,30
 281.799804688 662.599609375 281.799804688 662.599609375 284.400390625 681.200195312 c 132,-1,31
 287 699.799804688 287 699.799804688 276.599609375 699.799804688 c 4,18,19
294.799804688 -21.400390625 m 4,32,33
 270.099609375 -21.400390625 270.099609375 -21.400390625 255.150390625 -6.400390625 c 132,-1,34
 240.200195312 8.599609375 240.200195312 8.599609375 240.200195312 33.7998046875 c 4,35,36
 240.200195312 56.599609375 240.200195312 56.599609375 253.200195312 76.400390625 c 132,-1,37
 266.200195312 96.2001953125 266.200195312 96.2001953125 294.799804688 96.2001953125 c 4,38,39
 324.700195312 96.2001953125 324.700195312 96.2001953125 340.299804688 77.599609375 c 132,-1,40
 355.900390625 59 355.900390625 59 355.900390625 33.7998046875 c 4,41,42
 355.900390625 6.2001953125 355.900390625 6.2001953125 338.349609375 -7.599609375 c 132,-1,43
 320.799804688 -21.400390625 320.799804688 -21.400390625 294.799804688 -21.400390625 c 4,32,33
271.400390625 41 m 4,44,45
 272.700195312 54.2001953125 272.700195312 54.2001953125 277.900390625 65 c 132,-1,46
 283.099609375 75.7998046875 283.099609375 75.7998046875 276.599609375 75.7998046875 c 4,47,48
 267.5 75.7998046875 267.5 75.7998046875 261.650390625 58.400390625 c 132,-1,49
 255.799804688 41 255.799804688 41 255.799804688 27.7998046875 c 4,50,51
 255.799804688 15.7998046875 255.799804688 15.7998046875 262.299804688 15.7998046875 c 4,52,53
 267.5 15.7998046875 267.5 15.7998046875 268.799804688 24.7998046875 c 132,-1,54
 270.099609375 33.7998046875 270.099609375 33.7998046875 271.400390625 41 c 4,44,45
EndSplineSet
EndChar

StartChar: quotedbl
Encoding: 34 34 4
Width: 600
Flags: W
LayerCount: 2
Fore
SplineSet
242.799804688 714 m 5,0,-1
 216.799804688 456 l 5,1,-1
 145.299804688 456 l 5,2,-1
 119.299804688 714 l 5,3,-1
 242.799804688 714 l 5,0,-1
480.700195312 714 m 5,4,-1
 454.700195312 456 l 5,5,-1
 383.200195312 456 l 5,6,-1
 357.200195312 714 l 5,7,-1
 480.700195312 714 l 5,4,-1
EndSplineSet
EndChar

StartChar: numbersign
Encoding: 35 35 5
Width: 600
Flags: W
LayerCount: 2
Fore
SplineSet
102 0 m 1,0,-1
 140 199 l 1,1,-1
 32 199 l 1,2,-1
 32 266 l 1,3,-1
 153 266 l 1,4,-1
 185 419 l 5,5,-1
 58 419 l 5,6,-1
 58 485 l 5,7,-1
 197 485 l 5,8,-1
 237 687 l 5,9,-1
 309 687 l 5,10,-1
 269 485 l 5,11,-1
 393 485 l 5,12,-1
 433 687 l 5,13,-1
 502 687 l 5,14,-1
 462 485 l 5,15,-1
 568 485 l 5,16,-1
 568 419 l 5,17,-1
 449 419 l 5,18,-1
 418 266 l 1,19,-1
 547 266 l 1,20,-1
 547 199 l 1,21,-1
 405 199 l 1,22,-1
 364 0 l 1,23,-1
 293 0 l 1,24,-1
 334 199 l 1,25,-1
 211 199 l 1,26,-1
 172 0 l 1,27,-1
 102 0 l 1,0,-1
224 266 m 1,28,-1
 347 266 l 1,29,-1
 378 419 l 5,30,-1
 255 419 l 5,31,-1
 224 266 l 1,28,-1
EndSplineSet
EndChar

StartChar: dollar
Encoding: 36 36 6
Width: 600
Flags: W
LayerCount: 2
Fore
SplineSet
376.677734375 739.662109375 m 260,0,1
 408.081054688 735.099609375 408.081054688 735.099609375 417.666992188 714.4296875 c 132,-1,2
 427.275390625 693.711914062 427.275390625 693.711914062 423.665039062 676.018554688 c 6,3,-1
 288.918945312 15.8212890625 l 6,4,5
 285.729492188 0.05078125 285.729492188 0.05078125 271.125 -10.0029296875 c 132,-1,6
 256.51953125 -20.0556640625 256.51953125 -20.0556640625 233.259765625 -16.6767578125 c 4,7,8
 223.956054688 -15.3251953125 223.956054688 -15.3251953125 209.267578125 -5.07421875 c 4,9,10
 192.454101562 6.5 192.454101562 6.5 195.842773438 23.2548828125 c 6,11,-1
 329.625976562 684.607421875 l 6,12,13
 334.01171875 706.291015625 334.01171875 706.291015625 339.64453125 725.2578125 c 132,-1,14
 345.276367188 744.223632812 345.276367188 744.223632812 376.677734375 739.662109375 c 260,0,1
260.109375 33.1962890625 m 4,15,16
 257.915039062 22.3544921875 257.915039062 22.3544921875 253.513671875 15.384765625 c 132,-1,17
 249.110351562 8.4150390625 249.110351562 8.4150390625 246.467773438 4.232421875 c 132,-1,18
 243.827148438 0.05078125 243.827148438 0.05078125 243.427734375 -1.919921875 c 132,-1,19
 243.029296875 -3.8916015625 243.029296875 -3.8916015625 248.84375 -4.736328125 c 4,20,21
 255.822265625 -5.75 255.822265625 -5.75 260.989257812 -0.9208984375 c 132,-1,22
 266.157226562 3.9091796875 266.157226562 3.9091796875 269.977539062 10.962890625 c 132,-1,23
 273.798828125 18.017578125 273.798828125 18.017578125 275.876953125 25.3251953125 c 132,-1,24
 277.953125 32.6328125 277.953125 32.6328125 278.950195312 37.560546875 c 4,25,26
 281.541992188 50.3740234375 281.541992188 50.3740234375 280.146484375 61.2294921875 c 132,-1,27
 278.750976562 72.0859375 278.750976562 72.0859375 271.772460938 73.099609375 c 4,28,29
 268.283203125 73.6064453125 268.283203125 73.6064453125 266.8046875 69.255859375 c 132,-1,30
 265.326171875 64.9052734375 265.326171875 64.9052734375 263.930664062 58.005859375 c 132,-1,31
 262.53515625 51.1064453125 262.53515625 51.1064453125 261.720703125 44.1220703125 c 132,-1,32
 260.90625 37.138671875 260.90625 37.138671875 260.109375 33.1962890625 c 4,15,16
275.219726562 81 m 4,33,34
 216.219726562 81 216.219726562 81 162.530273438 90 c 132,-1,35
 108.83984375 99 108.83984375 99 69.900390625 115 c 5,36,-1
 69.900390625 198 l 5,37,38
 111.200195312 182 111.200195312 182 161.349609375 168.5 c 132,-1,39
 211.5 155 211.5 155 281.120117188 155 c 4,40,41
 359 155 359 155 391.450195312 175.5 c 132,-1,42
 423.900390625 196 423.900390625 196 423.900390625 235 c 4,43,44
 423.900390625 256 423.900390625 256 412.690429688 269.5 c 132,-1,45
 401.48046875 283 401.48046875 283 369.620117188 297 c 132,-1,46
 337.759765625 311 337.759765625 311 276.400390625 333 c 4,47,48
 215.040039062 356 215.040039062 356 171.379882812 376 c 132,-1,49
 127.719726562 396 127.719726562 396 104.120117188 423.5 c 132,-1,50
 80.51953125 451 80.51953125 451 80.51953125 494 c 4,51,52
 80.51953125 542 80.51953125 542 109.4296875 573.5 c 132,-1,53
 138.33984375 605 138.33984375 605 193.209960938 621 c 132,-1,54
 248.080078125 637 248.080078125 637 323.599609375 637 c 4,55,56
 375.51953125 637 375.51953125 637 422.719726562 629 c 132,-1,57
 469.919921875 621 469.919921875 621 520.66015625 603 c 5,58,-1
 488.799804688 533 l 5,59,60
 441.599609375 550 441.599609375 550 402.0703125 556 c 132,-1,61
 362.540039062 562 362.540039062 562 323.599609375 562 c 4,62,63
 250.440429688 562 250.440429688 562 216.809570312 546 c 132,-1,64
 183.1796875 530 183.1796875 530 183.1796875 496 c 4,65,66
 183.1796875 474 183.1796875 474 197.9296875 459 c 132,-1,67
 212.6796875 444 212.6796875 444 246.309570312 430 c 132,-1,68
 279.940429688 416 279.940429688 416 335.400390625 396 c 4,69,70
 397.940429688 374 397.940429688 374 441.599609375 355 c 132,-1,71
 485.259765625 336 485.259765625 336 507.6796875 309.5 c 132,-1,72
 530.099609375 283 530.099609375 283 530.099609375 237 c 4,73,74
 530.099609375 186 530.099609375 186 501.190429688 151.5 c 132,-1,75
 472.280273438 117 472.280273438 117 415.639648438 99 c 132,-1,76
 359 81 359 81 275.219726562 81 c 4,33,34
EndSplineSet
EndChar

StartChar: percent
Encoding: 37 37 7
Width: 600
Flags: W
LayerCount: 2
Fore
SplineSet
104.700195312 0 m 5,0,-1
 425.099609375 714 l 5,1,-1
 494.400390625 714 l 5,2,-1
 174 0 l 5,3,-1
 104.700195312 0 l 5,0,-1
440.400390625 -9 m 4,4,5
 385.5 -9 385.5 -9 349.049804688 35.5 c 132,-1,6
 312.599609375 80 312.599609375 80 312.599609375 161 c 260,7,8
 312.599609375 242 312.599609375 242 347.25 286 c 132,-1,9
 381.900390625 330 381.900390625 330 442.200195312 330 c 4,10,11
 497.099609375 330 497.099609375 330 533.549804688 286 c 132,-1,12
 570 242 570 242 570 161 c 260,13,14
 570 80 570 80 534.900390625 35.5 c 132,-1,15
 499.799804688 -9 499.799804688 -9 440.400390625 -9 c 4,4,5
441.299804688 49 m 260,16,17
 471.900390625 49 471.900390625 49 487.200195312 76 c 132,-1,18
 502.5 103 502.5 103 502.5 161 c 4,19,20
 502.5 220 502.5 220 487.200195312 245.5 c 132,-1,21
 471.900390625 271 471.900390625 271 441.299804688 271 c 260,22,23
 410.700195312 271 410.700195312 271 394.950195312 245.5 c 132,-1,24
 379.200195312 220 379.200195312 220 379.200195312 161 c 4,25,26
 379.200195312 103 379.200195312 103 394.950195312 76 c 132,-1,27
 410.700195312 49 410.700195312 49 441.299804688 49 c 260,16,17
157.799804688 383 m 4,28,29
 102.900390625 383 102.900390625 383 66.4501953125 427.5 c 132,-1,30
 30 472 30 472 30 553 c 260,31,32
 30 634 30 634 64.650390625 678 c 132,-1,33
 99.2998046875 722 99.2998046875 722 159.599609375 722 c 4,34,35
 214.5 722 214.5 722 250.950195312 678 c 132,-1,36
 287.400390625 634 287.400390625 634 287.400390625 553 c 260,37,38
 287.400390625 472 287.400390625 472 252.299804688 427.5 c 132,-1,39
 217.200195312 383 217.200195312 383 157.799804688 383 c 4,28,29
158.700195312 441 m 260,40,41
 189.299804688 441 189.299804688 441 204.599609375 468 c 132,-1,42
 219.900390625 495 219.900390625 495 219.900390625 553 c 4,43,44
 219.900390625 612 219.900390625 612 204.599609375 637.5 c 132,-1,45
 189.299804688 663 189.299804688 663 158.700195312 663 c 260,46,47
 128.099609375 663 128.099609375 663 112.349609375 637.5 c 132,-1,48
 96.599609375 612 96.599609375 612 96.599609375 553 c 4,49,50
 96.599609375 495 96.599609375 495 112.349609375 468 c 132,-1,51
 128.099609375 441 128.099609375 441 158.700195312 441 c 260,40,41
EndSplineSet
EndChar

StartChar: ampersand
Encoding: 38 38 8
Width: 600
Flags: W
LayerCount: 2
Fore
SplineSet
214 -10 m 0,0,1
 155 -10 155 -10 113.5 14 c 128,-1,2
 72 38 72 38 50.5 80.5 c 128,-1,3
 29 123 29 123 29 176 c 0,4,5
 29 233 29 233 51.5 275.5 c 128,-1,6
 74 318 74 318 110 351.5 c 128,-1,7
 146 385 146 385 187 414 c 0,8,9
 210 430 210 430 238 454 c 128,-1,10
 266 478 266 478 287 509.5 c 128,-1,11
 308 541 308 541 308 580 c 0,12,13
 308 616 308 616 289 636 c 128,-1,14
 270 656 270 656 239 656 c 256,15,16
 208 656 208 656 189.5 635 c 128,-1,17
 171 614 171 614 171 576 c 0,18,19
 171 550 171 550 179.5 522 c 128,-1,20
 188 494 188 494 202.5 468 c 128,-1,21
 217 442 217 442 234 420 c 2,22,-1
 571 0 l 1,23,-1
 464 0 l 1,24,-1
 182 364 l 2,25,26
 160 393 160 393 138.5 427 c 128,-1,27
 117 461 117 461 103 499.5 c 128,-1,28
 89 538 89 538 89 578 c 0,29,30
 89 644 89 644 129 684.5 c 128,-1,31
 169 725 169 725 239 725 c 256,32,33
 309 725 309 725 349 684.5 c 128,-1,34
 389 644 389 644 389 580 c 0,35,36
 389 530 389 530 366 490 c 128,-1,37
 343 450 343 450 308 418.5 c 128,-1,38
 273 387 273 387 238 359 c 0,39,40
 209 336 209 336 180.5 310.5 c 128,-1,41
 152 285 152 285 133.5 253.5 c 128,-1,42
 115 222 115 222 115 181 c 0,43,44
 115 133 115 133 144 100 c 128,-1,45
 173 67 173 67 224 67 c 0,46,47
 261 67 261 67 293.5 84.5 c 128,-1,48
 326 102 326 102 353 132 c 128,-1,49
 380 162 380 162 400.5 198.5 c 128,-1,50
 421 235 421 235 434.5 274 c 128,-1,51
 448 313 448 313 454 349 c 1,52,-1
 537 349 l 1,53,54
 527 292 527 292 507.5 239 c 128,-1,55
 488 186 488 186 459 140.5 c 128,-1,56
 430 95 430 95 393 61.5 c 128,-1,57
 356 28 356 28 311 9 c 128,-1,58
 266 -10 266 -10 214 -10 c 0,0,1
EndSplineSet
EndChar

StartChar: quotesingle
Encoding: 39 39 9
Width: 600
Flags: W
LayerCount: 2
Fore
SplineSet
347.5 714 m 1,0,-1
 327.5 456 l 1,1,-1
 272.5 456 l 1,2,-1
 252.5 714 l 1,3,-1
 347.5 714 l 1,0,-1
EndSplineSet
EndChar

StartChar: parenleft
Encoding: 40 40 10
Width: 600
Flags: W
LayerCount: 2
Fore
SplineSet
377.400390625 -72 m 4,0,1
 312.599609375 -51 312.599609375 -51 268.799804688 -13 c 132,-1,2
 225 25 225 25 198 71.5 c 132,-1,3
 171 118 171 118 159 169.5 c 132,-1,4
 147 221 147 221 147 269 c 4,5,6
 147 315 147 315 157.200195312 363 c 132,-1,7
 167.400390625 411 167.400390625 411 186 456 c 132,-1,8
 204.599609375 501 204.599609375 501 232.200195312 540.5 c 132,-1,9
 259.799804688 580 259.799804688 580 293.400390625 609 c 4,10,11
 325.799804688 636 325.799804688 636 355.799804688 654 c 132,-1,12
 385.799804688 672 385.799804688 672 409.799804688 672 c 4,13,14
 427.799804688 672 427.799804688 672 438.599609375 660 c 132,-1,15
 449.400390625 648 449.400390625 648 449.400390625 636 c 4,16,17
 449.400390625 628 449.400390625 628 434.400390625 617 c 132,-1,18
 419.400390625 606 419.400390625 606 391.799804688 582 c 4,19,20
 355.799804688 550 355.799804688 550 331.799804688 512 c 132,-1,21
 307.799804688 474 307.799804688 474 293.400390625 433.5 c 132,-1,22
 279 393 279 393 273.599609375 351.5 c 132,-1,23
 268.200195312 310 268.200195312 310 268.200195312 272 c 260,24,25
 268.200195312 234 268.200195312 234 275.400390625 192.5 c 132,-1,26
 282.599609375 151 282.599609375 151 299.400390625 113 c 132,-1,27
 316.200195312 75 316.200195312 75 343.799804688 43.5 c 132,-1,28
 371.400390625 12 371.400390625 12 412.200195312 -7 c 4,29,30
 432.599609375 -16 432.599609375 -16 442.799804688 -22.5 c 132,-1,31
 453 -29 453 -29 453 -43 c 4,32,33
 453 -56 453 -56 437.400390625 -66 c 132,-1,34
 421.799804688 -76 421.799804688 -76 401.400390625 -76 c 4,35,36
 388.200195312 -76 388.200195312 -76 377.400390625 -72 c 4,0,1
360.599609375 620 m 4,37,38
 366.599609375 625 366.599609375 625 373.799804688 630.5 c 132,-1,39
 381 636 381 636 372.599609375 636 c 4,40,41
 363 636 363 636 350.400390625 628.5 c 132,-1,42
 337.799804688 621 337.799804688 621 325.799804688 611 c 132,-1,43
 313.799804688 601 313.799804688 601 306 590.5 c 132,-1,44
 298.200195312 580 298.200195312 580 298.200195312 574 c 4,45,46
 298.200195312 569 298.200195312 569 303 569 c 4,47,48
 309 569 309 569 314.400390625 575.5 c 132,-1,49
 319.799804688 582 319.799804688 582 323.400390625 587 c 4,50,51
 328.200195312 594 328.200195312 594 336.599609375 601.5 c 132,-1,52
 345 609 345 609 360.599609375 620 c 4,37,38
291 547 m 4,53,54
 291 555 291 555 283.799804688 555 c 4,55,56
 269.400390625 555 269.400390625 555 269.400390625 547 c 4,57,58
 269.400390625 541 269.400390625 541 273 539.5 c 132,-1,59
 276.599609375 538 276.599609375 538 279 538 c 260,60,61
 281.400390625 538 281.400390625 538 286.200195312 539.5 c 132,-1,62
 291 541 291 541 291 547 c 4,53,54
EndSplineSet
EndChar

StartChar: parenright
Encoding: 41 41 11
Width: 600
Flags: W
LayerCount: 2
Fore
SplineSet
214.799804688 -93 m 4,0,1
 198 -93 198 -93 183 -84.5 c 132,-1,2
 168 -76 168 -76 168 -66 c 4,3,4
 168 -57 168 -57 180 -43 c 132,-1,5
 192 -29 192 -29 209.400390625 -8.5 c 132,-1,6
 226.799804688 12 226.799804688 12 247.799804688 41 c 132,-1,7
 268.799804688 70 268.799804688 70 286.200195312 108 c 132,-1,8
 303.599609375 146 303.599609375 146 315.599609375 195 c 132,-1,9
 327.599609375 244 327.599609375 244 327.599609375 305 c 4,10,11
 327.599609375 352 327.599609375 352 318.599609375 398.5 c 132,-1,12
 309.599609375 445 309.599609375 445 292.799804688 484 c 132,-1,13
 276 523 276 523 252.599609375 552 c 132,-1,14
 229.200195312 581 229.200195312 581 200.400390625 594 c 4,15,16
 186 601 186 601 169.200195312 610.5 c 132,-1,17
 152.400390625 620 152.400390625 620 152.400390625 638 c 4,18,19
 152.400390625 653 152.400390625 653 168 662.5 c 132,-1,20
 183.599609375 672 183.599609375 672 208.799804688 672 c 4,21,22
 253.200195312 672 253.200195312 672 296.400390625 646 c 132,-1,23
 339.599609375 620 339.599609375 620 373.200195312 572 c 132,-1,24
 406.799804688 524 406.799804688 524 427.200195312 455.5 c 132,-1,25
 447.599609375 387 447.599609375 387 447.599609375 302 c 4,26,27
 447.599609375 227 447.599609375 227 437.400390625 175 c 132,-1,28
 427.200195312 123 427.200195312 123 408.599609375 85 c 132,-1,29
 390 47 390 47 364.799804688 17 c 132,-1,30
 339.599609375 -13 339.599609375 -13 309.599609375 -44 c 4,31,32
 282 -73 282 -73 258.599609375 -83 c 132,-1,33
 235.200195312 -93 235.200195312 -93 214.799804688 -93 c 4,0,1
176.400390625 621 m 4,34,35
 181.200195312 621 181.200195312 621 185.400390625 628.5 c 132,-1,36
 189.599609375 636 189.599609375 636 189.599609375 644 c 4,37,38
 189.599609375 657 189.599609375 657 181.200195312 657 c 4,39,40
 176.400390625 657 176.400390625 657 172.200195312 649.5 c 132,-1,41
 168 642 168 642 168 634 c 4,42,43
 168 621 168 621 176.400390625 621 c 4,34,35
208.799804688 -60 m 260,44,45
 214.799804688 -50 214.799804688 -50 215.400390625 -40 c 132,-1,46
 216 -30 216 -30 211.200195312 -29 c 4,47,48
 208.799804688 -29 208.799804688 -29 204.599609375 -33 c 132,-1,49
 200.400390625 -37 200.400390625 -37 196.200195312 -43 c 132,-1,50
 192 -49 192 -49 189 -55 c 132,-1,51
 186 -61 186 -61 186 -64 c 4,52,53
 186 -72 186 -72 190.799804688 -73 c 4,54,55
 194.400390625 -74 194.400390625 -74 198.599609375 -72 c 132,-1,56
 202.799804688 -70 202.799804688 -70 208.799804688 -60 c 260,44,45
EndSplineSet
EndChar

StartChar: asterisk
Encoding: 42 42 12
Width: 600
Flags: W
LayerCount: 2
Fore
SplineSet
352.25 771.25 m 5,0,-1
 330.25 569.650390625 l 5,1,-1
 541.450195312 626.349609375 l 5,2,-1
 556.849609375 529.75 l 5,3,-1
 354.450195312 514 l 5,4,-1
 485.349609375 348.099609375 l 5,5,-1
 390.75 298.75 l 5,6,-1
 297.25 482.5 l 5,7,-1
 212.549804688 298.75 l 5,8,-1
 114.650390625 348.099609375 l 5,9,-1
 243.349609375 514 l 5,10,-1
 43.150390625 529.75 l 5,11,-1
 58.5498046875 626.349609375 l 5,12,-1
 267.549804688 569.650390625 l 5,13,-1
 244.450195312 771.25 l 5,14,-1
 352.25 771.25 l 5,0,-1
EndSplineSet
EndChar

StartChar: plus
Encoding: 43 43 13
Width: 600
Flags: W
LayerCount: 2
Fore
SplineSet
339.599609375 391.5 m 5,0,-1
 558.5 391.5 l 5,1,-1
 558.5 313.400390625 l 5,2,-1
 339.599609375 313.400390625 l 5,3,-1
 339.599609375 86.7998046875 l 5,4,-1
 260.400390625 86.7998046875 l 5,5,-1
 260.400390625 313.400390625 l 5,6,-1
 41.5 313.400390625 l 5,7,-1
 41.5 391.5 l 5,8,-1
 260.400390625 391.5 l 5,9,-1
 260.400390625 619.200195312 l 5,10,-1
 339.599609375 619.200195312 l 5,11,-1
 339.599609375 391.5 l 5,0,-1
EndSplineSet
EndChar

StartChar: comma
Encoding: 44 44 14
Width: 600
Flags: W
LayerCount: 2
Fore
SplineSet
375.5 105 m 1,0,1
 366.5 70 366.5 70 352.5 29 c 128,-1,2
 338.5 -12 338.5 -12 322 -52.5 c 128,-1,3
 305.5 -93 305.5 -93 289.5 -129 c 1,4,-1
 224.5 -129 l 1,5,6
 234.5 -91 234.5 -91 244 -47.5 c 128,-1,7
 253.5 -4 253.5 -4 261.5 38.5 c 128,-1,8
 269.5 81 269.5 81 274.5 116 c 1,9,-1
 368.5 116 l 1,10,-1
 375.5 105 l 1,0,1
EndSplineSet
EndChar

StartChar: hyphen
Encoding: 45 45 15
Width: 600
Flags: W
LayerCount: 2
Fore
SplineSet
95.5 229 m 1,0,-1
 95.5 307 l 1,1,-1
 504.5 307 l 1,2,-1
 504.5 229 l 1,3,-1
 95.5 229 l 1,0,-1
EndSplineSet
EndChar

StartChar: period
Encoding: 46 46 16
Width: 600
Flags: W
LayerCount: 2
Fore
SplineSet
291.75 -62.25 m 4,0,1
 231.75 -62.25 231.75 -62.25 189 -20.25 c 132,-1,2
 146.25 21.75 146.25 21.75 146.25 87.75 c 4,3,4
 146.25 123.75 146.25 123.75 159 156 c 132,-1,5
 171.75 188.25 171.75 188.25 194.25 211.5 c 132,-1,6
 216.75 234.75 216.75 234.75 248.25 249 c 132,-1,7
 279.75 263.25 279.75 263.25 317.25 263.25 c 4,8,9
 347.25 263.25 347.25 263.25 372.75 250.5 c 132,-1,10
 398.25 237.75 398.25 237.75 416.25 215.25 c 132,-1,11
 434.25 192.75 434.25 192.75 444 164.25 c 132,-1,12
 453.75 135.75 453.75 135.75 453.75 104.25 c 4,13,14
 453.75 63.75 453.75 63.75 441 33 c 132,-1,15
 428.25 2.25 428.25 2.25 405.75 -18.75 c 132,-1,16
 383.25 -39.75 383.25 -39.75 354 -51 c 132,-1,17
 324.75 -62.25 324.75 -62.25 291.75 -62.25 c 4,0,1
236.25 197.25 m 4,18,19
 246.75 207.75 246.75 207.75 249 215.25 c 132,-1,20
 251.25 222.75 251.25 222.75 248.25 222.75 c 4,21,22
 236.25 222.75 236.25 222.75 222.75 211.5 c 132,-1,23
 209.25 200.25 209.25 200.25 198 184.5 c 132,-1,24
 186.75 168.75 186.75 168.75 179.25 150.75 c 132,-1,25
 171.75 132.75 171.75 132.75 171.75 117.75 c 4,26,27
 171.75 114.75 171.75 114.75 174 105.75 c 132,-1,28
 176.25 96.75 176.25 96.75 180.75 96.75 c 4,29,30
 186.75 96.75 186.75 96.75 195.75 129.75 c 4,31,32
 200.25 150.75 200.25 150.75 212.25 168 c 132,-1,33
 224.25 185.25 224.25 185.25 236.25 197.25 c 4,18,19
297.75 23.25 m 4,34,35
 315.75 23.25 315.75 23.25 340.5 44.25 c 132,-1,36
 365.25 65.25 365.25 65.25 365.25 104.25 c 4,37,38
 365.25 134.25 365.25 134.25 349.5 154.5 c 132,-1,39
 333.75 174.75 333.75 174.75 308.25 174.75 c 260,40,41
 282.75 174.75 282.75 174.75 261.75 154.5 c 132,-1,42
 240.75 134.25 240.75 134.25 240.75 98.25 c 260,43,44
 240.75 62.25 240.75 62.25 257.25 42.75 c 132,-1,45
 273.75 23.25 273.75 23.25 297.75 23.25 c 4,34,35
EndSplineSet
EndChar

StartChar: slash
Encoding: 47 47 17
Width: 600
Flags: W
LayerCount: 2
Fore
SplineSet
186.5 -77 m 0,0,1
 182.5 -77 182.5 -77 171 -75 c 128,-1,2
 159.5 -73 159.5 -73 147.5 -68.5 c 128,-1,3
 135.5 -64 135.5 -64 126.5 -57 c 128,-1,4
 117.5 -50 117.5 -50 117.5 -41 c 0,5,6
 117.5 -38 117.5 -38 128 -9.5 c 128,-1,7
 138.5 19 138.5 19 155.5 64 c 128,-1,8
 172.5 109 172.5 109 195 166 c 128,-1,9
 217.5 223 217.5 223 241.5 283 c 128,-1,10
 265.5 343 265.5 343 289.5 402 c 128,-1,11
 313.5 461 313.5 461 333.5 509.5 c 128,-1,12
 353.5 558 353.5 558 368.5 592 c 128,-1,13
 383.5 626 383.5 626 389.5 636 c 0,14,15
 396.5 647 396.5 647 408 656.5 c 128,-1,16
 419.5 666 419.5 666 433.5 666 c 0,17,18
 440.5 666 440.5 666 449 663.5 c 128,-1,19
 457.5 661 457.5 661 465 656.5 c 128,-1,20
 472.5 652 472.5 652 477.5 646 c 128,-1,21
 482.5 640 482.5 640 482.5 633 c 0,22,23
 482.5 625 482.5 625 474 599.5 c 128,-1,24
 465.5 574 465.5 574 454 544.5 c 128,-1,25
 442.5 515 442.5 515 431 487.5 c 128,-1,26
 419.5 460 419.5 460 413.5 447 c 0,27,28
 409.5 438 409.5 438 398.5 410.5 c 128,-1,29
 387.5 383 387.5 383 372.5 344.5 c 128,-1,30
 357.5 306 357.5 306 339.5 259.5 c 128,-1,31
 321.5 213 321.5 213 302.5 166.5 c 128,-1,32
 283.5 120 283.5 120 265 76 c 128,-1,33
 246.5 32 246.5 32 231 -2 c 128,-1,34
 215.5 -36 215.5 -36 203.5 -56.5 c 128,-1,35
 191.5 -77 191.5 -77 186.5 -77 c 0,0,1
161.5 -37 m 4,36,37
 165.5 -25 165.5 -25 173.5 -7 c 132,-1,38
 181.5 11 181.5 11 188.5 27.5 c 132,-1,39
 195.5 44 195.5 44 199 56.5 c 132,-1,40
 202.5 69 202.5 69 197.5 70 c 4,41,42
 195.5 71 195.5 71 190.5 71 c 132,-1,43
 185.5 71 185.5 71 182.5 66 c 4,44,45
 180.5 62 180.5 62 174 48.5 c 132,-1,46
 167.5 35 167.5 35 161 19.5 c 132,-1,47
 154.5 4 154.5 4 149.5 -10.5 c 132,-1,48
 144.5 -25 144.5 -25 144.5 -31 c 4,49,50
 144.5 -38 144.5 -38 152 -40 c 132,-1,51
 159.5 -42 159.5 -42 161.5 -37 c 4,36,37
EndSplineSet
EndChar

StartChar: colon
Encoding: 58 58 28
Width: 600
VWidth: 1024
Flags: W
LayerCount: 2
Fore
SplineSet
211.099609375 -32.7998046875 m 0,0,1
 211.099609375 20.400390625 211.099609375 20.400390625 237 42.099609375 c 128,-1,2
 262.900390625 63.7998046875 262.900390625 63.7998046875 297.900390625 63.7998046875 c 0,3,4
 335.700195312 63.7998046875 335.700195312 63.7998046875 362.299804688 42.099609375 c 128,-1,5
 388.900390625 20.400390625 388.900390625 20.400390625 388.900390625 -32.7998046875 c 0,6,7
 388.900390625 -84.599609375 388.900390625 -84.599609375 362.299804688 -107 c 128,-1,8
 335.700195312 -129.400390625 335.700195312 -129.400390625 297.900390625 -129.400390625 c 0,9,10
 261.5 -129.400390625 261.5 -129.400390625 236.299804688 -107 c 128,-1,11
 211.099609375 -84.599609375 211.099609375 -84.599609375 211.099609375 -32.7998046875 c 0,0,1
211.099609375 581.799804688 m 0,12,13
 211.099609375 636.400390625 211.099609375 636.400390625 237 657.400390625 c 128,-1,14
 262.900390625 678.400390625 262.900390625 678.400390625 297.900390625 678.400390625 c 0,15,16
 335.700195312 678.400390625 335.700195312 678.400390625 362.299804688 656.700195312 c 128,-1,17
 388.900390625 635 388.900390625 635 388.900390625 581.799804688 c 0,18,19
 388.900390625 530 388.900390625 530 362.299804688 506.900390625 c 128,-1,20
 335.700195312 483.799804688 335.700195312 483.799804688 297.900390625 483.799804688 c 0,21,22
 261.5 483.799804688 261.5 483.799804688 236.299804688 506.900390625 c 128,-1,23
 211.099609375 530 211.099609375 530 211.099609375 581.799804688 c 0,12,13
EndSplineSet
EndChar

StartChar: semicolon
Encoding: 59 59 29
Width: 600
VWidth: 1024
Flags: W
LayerCount: 2
Fore
SplineSet
400.099609375 65 m 1,0,1
 387.5 14.599609375 387.5 14.599609375 367.900390625 -44.2001953125 c 128,-1,2
 348.299804688 -103 348.299804688 -103 324.5 -161.099609375 c 128,-1,3
 300.700195312 -219.200195312 300.700195312 -219.200195312 276.900390625 -271 c 1,4,-1
 183.099609375 -271 l 1,5,6
 192.900390625 -230.400390625 192.900390625 -230.400390625 203.400390625 -184.900390625 c 128,-1,7
 213.900390625 -139.400390625 213.900390625 -139.400390625 224.400390625 -92.5 c 128,-1,8
 234.900390625 -45.599609375 234.900390625 -45.599609375 242.599609375 -1.5 c 128,-1,9
 250.299804688 42.599609375 250.299804688 42.599609375 255.900390625 80.400390625 c 1,10,-1
 390.299804688 80.400390625 l 1,11,-1
 400.099609375 65 l 1,0,1
239.099609375 605.400390625 m 0,12,13
 239.099609375 660 239.099609375 660 265 681 c 128,-1,14
 290.900390625 702 290.900390625 702 325.900390625 702 c 0,15,16
 363.700195312 702 363.700195312 702 390.299804688 680.299804688 c 128,-1,17
 416.900390625 658.599609375 416.900390625 658.599609375 416.900390625 605.400390625 c 0,18,19
 416.900390625 553.599609375 416.900390625 553.599609375 390.299804688 530.5 c 128,-1,20
 363.700195312 507.400390625 363.700195312 507.400390625 325.900390625 507.400390625 c 0,21,22
 289.5 507.400390625 289.5 507.400390625 264.299804688 530.5 c 128,-1,23
 239.099609375 553.599609375 239.099609375 553.599609375 239.099609375 605.400390625 c 0,12,13
EndSplineSet
EndChar

StartChar: less
Encoding: 60 60 30
Width: 600
VWidth: 1024
Flags: W
LayerCount: 2
Fore
SplineSet
565.650390625 93.7998046875 m 5,0,-1
 34.349609375 327 l 5,1,-1
 34.349609375 383.099609375 l 5,2,-1
 565.650390625 648.200195312 l 5,3,-1
 565.650390625 560.200195312 l 5,4,-1
 139.950195312 358.900390625 l 5,5,-1
 565.650390625 181.799804688 l 5,6,-1
 565.650390625 93.7998046875 l 5,0,-1
EndSplineSet
EndChar

StartChar: equal
Encoding: 61 61 31
Width: 600
VWidth: 1024
Flags: W
LayerCount: 2
Fore
SplineSet
42.0498046875 432.549804688 m 5,0,-1
 42.0498046875 512.849609375 l 5,1,-1
 557.950195312 512.849609375 l 5,2,-1
 557.950195312 432.549804688 l 5,3,-1
 42.0498046875 432.549804688 l 5,0,-1
42.0498046875 208.150390625 m 5,4,-1
 42.0498046875 288.450195312 l 5,5,-1
 557.950195312 288.450195312 l 5,6,-1
 557.950195312 208.150390625 l 5,7,-1
 42.0498046875 208.150390625 l 5,4,-1
EndSplineSet
EndChar

StartChar: greater
Encoding: 62 62 32
Width: 600
VWidth: 1024
Flags: W
LayerCount: 2
Fore
SplineSet
34.349609375 181.799804688 m 5,0,-1
 458.950195312 357.799804688 l 5,1,-1
 34.349609375 560.200195312 l 5,2,-1
 34.349609375 648.200195312 l 5,3,-1
 565.650390625 383.099609375 l 5,4,-1
 565.650390625 327 l 5,5,-1
 34.349609375 93.7998046875 l 5,6,-1
 34.349609375 181.799804688 l 5,0,-1
EndSplineSet
EndChar

StartChar: question
Encoding: 63 63 33
Width: 600
VWidth: 1024
Flags: W
LayerCount: 2
Fore
SplineSet
206.400390625 204 m 6,0,1
 206.400390625 243 206.400390625 243 216.799804688 271 c 132,-1,2
 227.200195312 299 227.200195312 299 251.900390625 324.5 c 132,-1,3
 276.599609375 350 276.599609375 350 318.200195312 378 c 4,4,5
 370.200195312 412 370.200195312 412 398.799804688 434.5 c 132,-1,6
 427.400390625 457 427.400390625 457 439.75 478.5 c 132,-1,7
 452.099609375 500 452.099609375 500 452.099609375 530 c 4,8,9
 452.099609375 579 452.099609375 579 410.5 606 c 132,-1,10
 368.900390625 633 368.900390625 633 290.900390625 633 c 4,11,12
 225.900390625 633 225.900390625 633 175.200195312 620 c 132,-1,13
 124.5 607 124.5 607 77.7001953125 590 c 5,14,-1
 36.099609375 662 l 5,15,16
 89.400390625 684 89.400390625 684 154.400390625 698 c 132,-1,17
 219.400390625 712 219.400390625 712 298.700195312 712 c 4,18,19
 424.799804688 712 424.799804688 712 494.349609375 663.5 c 132,-1,20
 563.900390625 615 563.900390625 615 563.900390625 532 c 4,21,22
 563.900390625 486 563.900390625 486 544.400390625 454 c 132,-1,23
 524.900390625 422 524.900390625 422 489.799804688 395 c 132,-1,24
 454.700195312 368 454.700195312 368 406.599609375 337 c 4,25,26
 362.400390625 308 362.400390625 308 339 286.5 c 132,-1,27
 315.599609375 265 315.599609375 265 307.799804688 244 c 132,-1,28
 300 223 300 223 300 194 c 6,29,-1
 300 176 l 5,30,-1
 206.400390625 176 l 5,31,-1
 206.400390625 204 l 6,0,1
205 26 m 0,32,33
 205 64 205 64 223 79 c 128,-1,34
 241 94 241 94 268 94 c 0,35,36
 294 94 294 94 312.5 78.5 c 128,-1,37
 331 63 331 63 331 26 c 128,-1,38
 331 -11 331 -11 312.5 -27.5 c 128,-1,39
 294 -44 294 -44 268 -44 c 0,40,41
 240 -44 240 -44 222.5 -27.5 c 128,-1,42
 205 -11 205 -11 205 26 c 0,32,33
EndSplineSet
EndChar

StartChar: at
Encoding: 64 64 34
Width: 600
VWidth: 1024
Flags: W
LayerCount: 2
Fore
SplineSet
281.684570312 -23.400390625 m 4,0,1
 225.254882812 -23.400390625 225.254882812 -23.400390625 177.734375 0.9365234375 c 132,-1,2
 130.215820312 25.271484375 130.215820312 25.271484375 96.0595703125 69.576171875 c 132,-1,3
 61.9052734375 113.879882812 61.9052734375 113.879882812 43.095703125 176.903320312 c 132,-1,4
 24.2841796875 239.927734375 24.2841796875 239.927734375 24.2841796875 316.056640625 c 4,5,6
 24.2841796875 403.416015625 24.2841796875 403.416015625 46.0654296875 477.671875 c 132,-1,7
 67.845703125 551.927734375 67.845703125 551.927734375 106.950195312 607.463867188 c 132,-1,8
 146.0546875 663 146.0546875 663 199.020507812 694.200195312 c 132,-1,9
 251.984375 725.400390625 251.984375 725.400390625 313.365234375 725.400390625 c 260,10,11
 374.745117188 725.400390625 374.745117188 725.400390625 423.75 699.19140625 c 132,-1,12
 472.754882812 672.983398438 472.754882812 672.983398438 506.415039062 626.80859375 c 132,-1,13
 540.075195312 580.631835938 540.075195312 580.631835938 557.895507812 520.103515625 c 132,-1,14
 575.715820312 459.576171875 575.715820312 459.576171875 575.715820312 390.936523438 c 4,15,16
 575.715820312 341.016601562 575.715820312 341.016601562 565.3203125 297.959960938 c 132,-1,17
 554.924804688 254.903320312 554.924804688 254.903320312 536.609375 222.456054688 c 132,-1,18
 518.294921875 190.0078125 518.294921875 190.0078125 494.040039062 171.288085938 c 132,-1,19
 469.784179688 152.568359375 469.784179688 152.568359375 442.065429688 152.568359375 c 4,20,21
 420.284179688 152.568359375 420.284179688 152.568359375 407.415039062 163.176757812 c 132,-1,22
 394.544921875 173.783203125 394.544921875 173.783203125 387.120117188 186.263671875 c 132,-1,23
 379.6953125 198.743164062 379.6953125 198.743164062 374.745117188 209.3515625 c 132,-1,24
 369.794921875 219.959960938 369.794921875 219.959960938 365.834960938 219.959960938 c 260,25,26
 361.875 219.959960938 361.875 219.959960938 352.965820312 208.728515625 c 132,-1,27
 344.0546875 197.49609375 344.0546875 197.49609375 330.690429688 185.639648438 c 132,-1,28
 317.325195312 173.783203125 317.325195312 173.783203125 300 162.551757812 c 132,-1,29
 282.674804688 151.3203125 282.674804688 151.3203125 261.884765625 151.3203125 c 260,30,31
 240.104492188 151.3203125 240.104492188 151.3203125 221.790039062 163.799804688 c 132,-1,32
 203.474609375 176.280273438 203.474609375 176.280273438 190.604492188 198.120117188 c 132,-1,33
 177.734375 219.959960938 177.734375 219.959960938 169.815429688 248.6640625 c 132,-1,34
 161.895507812 277.368164062 161.895507812 277.368164062 161.895507812 311.063476562 c 4,35,36
 161.895507812 354.743164062 161.895507812 354.743164062 173.775390625 395.303710938 c 132,-1,37
 185.655273438 435.86328125 185.655273438 435.86328125 204.465820312 467.063476562 c 132,-1,38
 223.275390625 498.263671875 223.275390625 498.263671875 248.025390625 516.983398438 c 132,-1,39
 272.775390625 535.703125 272.775390625 535.703125 299.504882812 535.703125 c 4,40,41
 312.375 535.703125 312.375 535.703125 320.294921875 530.711914062 c 132,-1,42
 328.215820312 525.719726562 328.215820312 525.719726562 333.659179688 520.728515625 c 132,-1,43
 339.104492188 515.736328125 339.104492188 515.736328125 342.075195312 511.368164062 c 132,-1,44
 345.044921875 507 345.044921875 507 348.015625 507 c 260,45,46
 350.984375 507 350.984375 507 353.955078125 512.616210938 c 132,-1,47
 356.924804688 518.231445312 356.924804688 518.231445312 360.884765625 524.471679688 c 132,-1,48
 364.845703125 530.711914062 364.845703125 530.711914062 371.280273438 536.952148438 c 132,-1,49
 377.715820312 543.19140625 377.715820312 543.19140625 387.615234375 543.19140625 c 4,50,51
 409.395507812 543.19140625 409.395507812 543.19140625 417.315429688 518.856445312 c 132,-1,52
 425.234375 494.51953125 425.234375 494.51953125 426.720703125 462.072265625 c 132,-1,53
 428.205078125 429.624023438 428.205078125 429.624023438 426.224609375 396.551757812 c 132,-1,54
 424.245117188 363.48046875 424.245117188 363.48046875 424.245117188 348.50390625 c 4,55,56
 424.245117188 332.280273438 424.245117188 332.280273438 427.215820312 314.80859375 c 132,-1,57
 430.184570312 297.3359375 430.184570312 297.3359375 435.134765625 282.360351562 c 132,-1,58
 440.084960938 267.383789062 440.084960938 267.383789062 446.025390625 258.6484375 c 132,-1,59
 451.965820312 249.912109375 451.965820312 249.912109375 458.895507812 249.912109375 c 4,60,61
 470.775390625 249.912109375 470.775390625 249.912109375 481.169921875 280.48828125 c 132,-1,62
 491.565429688 311.063476562 491.565429688 311.063476562 491.565429688 362.231445312 c 4,63,64
 491.565429688 423.383789062 491.565429688 423.383789062 482.654296875 472.056640625 c 132,-1,65
 473.745117188 520.728515625 473.745117188 520.728515625 453.9453125 555.047851562 c 132,-1,66
 434.145507812 589.368164062 434.145507812 589.368164062 401.474609375 607.463867188 c 132,-1,67
 368.8046875 625.559570312 368.8046875 625.559570312 322.275390625 625.559570312 c 260,68,69
 275.745117188 625.559570312 275.745117188 625.559570312 236.640625 603.096679688 c 132,-1,70
 197.534179688 580.631835938 197.534179688 580.631835938 169.3203125 541.3203125 c 132,-1,71
 141.104492188 502.0078125 141.104492188 502.0078125 125.265625 448.34375 c 132,-1,72
 109.424804688 394.6796875 109.424804688 394.6796875 109.424804688 332.280273438 c 4,73,74
 109.424804688 276.120117188 109.424804688 276.120117188 123.284179688 228.696289062 c 132,-1,75
 137.145507812 181.271484375 137.145507812 181.271484375 161.400390625 146.952148438 c 132,-1,76
 185.655273438 112.631835938 185.655273438 112.631835938 218.325195312 93.2880859375 c 132,-1,77
 250.995117188 73.943359375 250.995117188 73.943359375 287.625 73.943359375 c 4,78,79
 314.354492188 73.943359375 314.354492188 73.943359375 341.084960938 82.056640625 c 132,-1,80
 367.815429688 90.16796875 367.815429688 90.16796875 392.0703125 100.776367188 c 132,-1,81
 416.325195312 111.383789062 416.325195312 111.383789062 438.104492188 119.49609375 c 132,-1,82
 459.884765625 127.608398438 459.884765625 127.608398438 476.715820312 127.608398438 c 4,83,84
 505.424804688 127.608398438 505.424804688 127.608398438 505.424804688 100.151367188 c 4,85,86
 505.424804688 78.9365234375 505.424804688 78.9365234375 485.625 56.4716796875 c 132,-1,87
 465.825195312 34.0078125 465.825195312 34.0078125 433.650390625 15.912109375 c 132,-1,88
 401.474609375 -2.18359375 401.474609375 -2.18359375 361.379882812 -12.7919921875 c 132,-1,89
 321.284179688 -23.400390625 321.284179688 -23.400390625 281.684570312 -23.400390625 c 4,0,1
198.525390625 379.703125 m 4,90,91
 202.484375 379.703125 202.484375 379.703125 207.434570312 392.80859375 c 132,-1,92
 212.384765625 405.912109375 212.384765625 405.912109375 214.365234375 408.408203125 c 4,93,94
 222.284179688 425.879882812 222.284179688 425.879882812 232.6796875 441.48046875 c 132,-1,95
 243.075195312 457.080078125 243.075195312 457.080078125 254.955078125 470.80859375 c 4,96,97
 259.904296875 477.047851562 259.904296875 477.047851562 253.965820312 477.047851562 c 4,98,99
 247.034179688 477.047851562 247.034179688 477.047851562 236.145507812 466.440429688 c 132,-1,100
 225.254882812 455.83203125 225.254882812 455.83203125 215.849609375 441.48046875 c 132,-1,101
 206.4453125 427.127929688 206.4453125 427.127929688 200.009765625 412.151367188 c 132,-1,102
 193.575195312 397.176757812 193.575195312 397.176757812 193.575195312 388.440429688 c 4,103,104
 193.575195312 385.943359375 193.575195312 385.943359375 195.059570312 382.823242188 c 132,-1,105
 196.544921875 379.703125 196.544921875 379.703125 198.525390625 379.703125 c 4,90,91
285.645507812 256.151367188 m 4,106,107
 295.544921875 256.151367188 295.544921875 256.151367188 306.434570312 268.0078125 c 132,-1,108
 317.325195312 279.86328125 317.325195312 279.86328125 326.729492188 297.3359375 c 132,-1,109
 336.134765625 314.80859375 336.134765625 314.80859375 341.580078125 337.896484375 c 132,-1,110
 347.025390625 360.983398438 347.025390625 360.983398438 347.025390625 384.696289062 c 4,111,112
 347.025390625 438.360351562 347.025390625 438.360351562 314.354492188 438.360351562 c 4,113,114
 301.484375 438.360351562 301.484375 438.360351562 288.120117188 429 c 132,-1,115
 274.754882812 419.639648438 274.754882812 419.639648438 264.359375 404.6640625 c 132,-1,116
 253.965820312 389.688476562 253.965820312 389.688476562 247.529296875 370.34375 c 132,-1,117
 241.095703125 351 241.095703125 351 241.095703125 331.032226562 c 4,118,119
 241.095703125 298.583984375 241.095703125 298.583984375 251.490234375 277.368164062 c 132,-1,120
 261.884765625 256.151367188 261.884765625 256.151367188 285.645507812 256.151367188 c 4,106,107
196.544921875 347.256835938 m 4,121,122
 196.544921875 355.9921875 196.544921875 355.9921875 191.595703125 358.48828125 c 4,123,124
 188.625 359.736328125 188.625 359.736328125 185.159179688 355.368164062 c 132,-1,125
 181.6953125 351 181.6953125 351 181.6953125 347.256835938 c 4,126,127
 181.6953125 342.263671875 181.6953125 342.263671875 184.169921875 337.896484375 c 132,-1,128
 186.645507812 333.528320312 186.645507812 333.528320312 189.615234375 333.528320312 c 260,129,130
 192.584960938 333.528320312 192.584960938 333.528320312 194.565429688 338.51953125 c 132,-1,131
 196.544921875 343.51171875 196.544921875 343.51171875 196.544921875 347.256835938 c 4,121,122
EndSplineSet
EndChar

StartChar: G
Encoding: 71 71 41
Width: 600
GlyphClass: 2
Flags: W
LayerCount: 2
Fore
SplineSet
102.163085938 659.599609375 m 0,0,1
 72.9033203125 659.599609375 72.9033203125 659.599609375 55.1923828125 675.849609375 c 0,2,3
 37.4833984375 692.099609375 37.4833984375 692.099609375 37.4833984375 719.399414062 c 0,4,5
 37.4833984375 744.099609375 37.4833984375 744.099609375 52.8828125 765.549804688 c 0,6,7
 68.283203125 787 68.283203125 787 102.163085938 787 c 0,8,9
 137.583007812 787 137.583007812 787 156.0625 766.849609375 c 0,10,11
 174.54296875 746.700195312 174.54296875 746.700195312 174.54296875 719.399414062 c 0,12,13
 174.54296875 689.5 174.54296875 689.5 153.752929688 674.549804688 c 0,14,15
 132.962890625 659.599609375 132.962890625 659.599609375 102.163085938 659.599609375 c 0,0,1
74.4423828125 727.200195312 m 0,16,17
 75.9833984375 741.5 75.9833984375 741.5 82.142578125 753.200195312 c 0,18,19
 88.3037109375 764.899414062 88.3037109375 764.899414062 80.603515625 764.899414062 c 0,20,21
 69.8232421875 764.899414062 69.8232421875 764.899414062 62.892578125 746.049804688 c 0,22,23
 55.962890625 727.200195312 55.962890625 727.200195312 55.962890625 712.899414062 c 0,24,25
 55.962890625 699.899414062 55.962890625 699.899414062 63.6630859375 699.899414062 c 0,26,27
 69.8232421875 699.899414062 69.8232421875 699.899414062 71.36328125 709.649414062 c 0,28,29
 72.9033203125 719.399414062 72.9033203125 719.399414062 74.4423828125 727.200195312 c 0,16,17
EndSplineSet
Refer: 73 103 N 1 0 0 1 12.852 0 2
EndChar

StartChar: H
Encoding: 72 72 42
Width: 600
GlyphClass: 2
Flags: W
LayerCount: 2
Fore
SplineSet
300 629 m 4,0,1
 342.919921875 629 342.919921875 629 380.66015625 620.5 c 132,-1,2
 418.400390625 612 418.400390625 612 446.51953125 597 c 132,-1,3
 474.639648438 582 474.639648438 582 490.919921875 560.5 c 132,-1,4
 507.200195312 539 507.200195312 539 507.200195312 513 c 4,5,6
 507.200195312 490 507.200195312 490 493.139648438 474 c 132,-1,7
 479.080078125 458 479.080078125 458 456.879882812 458 c 260,8,9
 434.6796875 458 434.6796875 458 416.919921875 466 c 132,-1,10
 399.16015625 474 399.16015625 474 399.16015625 488 c 4,11,12
 399.16015625 515 399.16015625 515 369.559570312 529.5 c 132,-1,13
 339.959960938 544 339.959960938 544 300 544 c 4,14,15
 239.3203125 544 239.3203125 544 215.639648438 482.5 c 132,-1,16
 191.959960938 421 191.959960938 421 191.959960938 363 c 6,17,-1
 191.959960938 319 l 6,18,19
 191.959960938 308 191.959960938 308 191.959960938 293.5 c 132,-1,20
 191.959960938 279 191.959960938 279 194.919921875 279 c 6,21,22
 204.540039062 291.5 l 4,23,24
 214.16015625 304 214.16015625 304 234.139648438 318.5 c 132,-1,25
 254.120117188 333 254.120117188 333 285.200195312 345.5 c 132,-1,26
 316.280273438 358 316.280273438 358 359.200195312 358 c 4,27,28
 394.719726562 358 394.719726562 358 431.719726562 348 c 132,-1,29
 468.719726562 338 468.719726562 338 498.3203125 313.5 c 132,-1,30
 527.919921875 289 527.919921875 289 547.16015625 247.5 c 132,-1,31
 566.400390625 206 566.400390625 206 566.400390625 142 c 6,32,-1
 566.400390625 49 l 6,33,34
 566.400390625 31 566.400390625 31 550.120117188 17.5 c 132,-1,35
 533.83984375 4 533.83984375 4 499.799804688 4 c 4,36,37
 456.879882812 4 456.879882812 4 432.459960938 17 c 132,-1,38
 408.040039062 30 408.040039062 30 408.040039062 52 c 6,39,-1
 408.040039062 152 l 6,40,41
 408.040039062 189 408.040039062 189 402.860351562 210.5 c 132,-1,42
 397.6796875 232 397.6796875 232 388.059570312 243.5 c 132,-1,43
 378.440429688 255 378.440429688 255 365.120117188 258 c 132,-1,44
 351.799804688 261 351.799804688 261 335.51953125 261 c 4,45,46
 308.879882812 261 308.879882812 261 283.719726562 247.5 c 132,-1,47
 258.559570312 234 258.559570312 234 238.580078125 212 c 132,-1,48
 218.599609375 190 218.599609375 190 206.759765625 162 c 132,-1,49
 194.919921875 134 194.919921875 134 194.919921875 104 c 6,50,-1
 194.919921875 64 l 6,51,52
 194.919921875 32 194.919921875 32 174.940429688 17 c 132,-1,53
 154.959960938 2 154.959960938 2 123.879882812 2 c 4,54,55
 112.040039062 2 112.040039062 2 96.5 5.5 c 132,-1,56
 80.9599609375 9 80.9599609375 9 66.900390625 17.5 c 132,-1,57
 52.83984375 26 52.83984375 26 43.2197265625 40.5 c 132,-1,58
 33.599609375 55 33.599609375 55 33.599609375 76 c 6,59,-1
 33.599609375 447 l 6,60,61
 33.599609375 535 33.599609375 535 104.639648438 582 c 132,-1,62
 175.6796875 629 175.6796875 629 300 629 c 4,0,1
508.6796875 24 m 4,63,64
 502.759765625 21 502.759765625 21 505.719726562 16.5 c 132,-1,65
 508.6796875 12 508.6796875 12 514.599609375 12 c 4,66,67
 522 12 522 12 528.66015625 17.5 c 132,-1,68
 535.3203125 23 535.3203125 23 539.759765625 29.5 c 132,-1,69
 544.200195312 36 544.200195312 36 546.419921875 42.5 c 132,-1,70
 548.639648438 49 548.639648438 49 548.639648438 52 c 4,71,72
 548.639648438 60 548.639648438 60 546.419921875 62.5 c 132,-1,73
 544.200195312 65 544.200195312 65 541.240234375 65 c 4,74,75
 536.799804688 65 536.799804688 65 532.360351562 59.5 c 132,-1,76
 527.919921875 54 527.919921875 54 524.219726562 47 c 132,-1,77
 520.51953125 40 520.51953125 40 516.8203125 33 c 132,-1,78
 513.120117188 26 513.120117188 26 508.6796875 24 c 4,63,64
152 39 m 260,79,80
 144.599609375 31 144.599609375 31 137.200195312 21.5 c 132,-1,81
 129.799804688 12 129.799804688 12 138.6796875 12 c 4,82,83
 144.599609375 12 144.599609375 12 152 16.5 c 132,-1,84
 159.400390625 21 159.400390625 21 165.3203125 28 c 132,-1,85
 171.240234375 35 171.240234375 35 174.940429688 42 c 132,-1,86
 178.639648438 49 178.639648438 49 178.639648438 55 c 4,87,88
 178.639648438 59 178.639648438 59 174.940429688 62.5 c 132,-1,89
 171.240234375 66 171.240234375 66 168.280273438 66 c 4,90,91
 162.360351562 66 162.360351562 66 160.879882812 56.5 c 132,-1,92
 159.400390625 47 159.400390625 47 152 39 c 260,79,80
476.120117188 285 m 4,93,94
 485 279 485 279 491.66015625 271.5 c 132,-1,95
 498.3203125 264 498.3203125 264 502.759765625 256 c 4,96,97
 508.6796875 245 508.6796875 245 510.16015625 238 c 132,-1,98
 511.639648438 231 511.639648438 231 514.599609375 231 c 4,99,100
 522 231 522 231 522 250 c 4,101,102
 522 256 522 256 516.080078125 266.5 c 132,-1,103
 510.16015625 277 510.16015625 277 502.01953125 287 c 132,-1,104
 493.879882812 297 493.879882812 297 485 304.5 c 132,-1,105
 476.120117188 312 476.120117188 312 471.6796875 312 c 4,106,107
 468.719726562 312 468.719726562 312 465.01953125 309.5 c 132,-1,108
 461.3203125 307 461.3203125 307 461.3203125 302 c 260,109,110
 461.3203125 297 461.3203125 297 466.5 292.5 c 132,-1,111
 471.6796875 288 471.6796875 288 476.120117188 285 c 4,93,94
483.51953125 543 m 4,112,113
 476.120117188 543 476.120117188 543 473.900390625 538.5 c 132,-1,114
 471.6796875 534 471.6796875 534 470.200195312 526.5 c 132,-1,115
 468.719726562 519 468.719726562 519 466.5 510.5 c 132,-1,116
 464.280273438 502 464.280273438 502 458.360351562 493 c 4,117,118
 455.400390625 490 455.400390625 490 453.1796875 480 c 132,-1,119
 450.959960938 470 450.959960938 470 458.360351562 470 c 4,120,121
 470.200195312 470 470.200195312 470 479.8203125 486 c 132,-1,122
 489.440429688 502 489.440429688 502 489.440429688 518 c 4,123,124
 489.440429688 529 489.440429688 529 487.959960938 536 c 132,-1,125
 486.48046875 543 486.48046875 543 483.51953125 543 c 4,112,113
EndSplineSet
EndChar

StartChar: I
Encoding: 73 73 43
Width: 600
GlyphClass: 2
Flags: W
LayerCount: 2
Fore
SplineSet
66.009765625 448 m 1,0,-1
 256.440429688 790 l 1,1,-1
 316.940429688 790 l 1,2,-1
 528.099609375 448 l 5,3,-1
 433.719726562 448 l 5,4,-1
 287.900390625 697 l 1,5,-1
 160.390625 448 l 1,6,-1
 66.009765625 448 l 1,0,-1
21.7001953125 0 m 1,7,-1
 21.7001953125 60 l 1,8,-1
 252.809570312 75 l 1,9,-1
 252.809570312 526 l 1,10,-1
 361.709960938 526 l 1,11,-1
 361.709960938 75 l 1,12,-1
 578.299804688 60 l 1,13,-1
 578.299804688 0 l 1,14,-1
 21.7001953125 0 l 1,7,-1
EndSplineSet
EndChar

StartChar: J
Encoding: 74 74 44
Width: 600
GlyphClass: 2
Flags: W
LayerCount: 2
Fore
SplineSet
331.5 687.599609375 m 4,0,1
 304.900390625 687.599609375 304.900390625 687.599609375 288.799804688 703.849609375 c 4,2,3
 272.700195312 720.099609375 272.700195312 720.099609375 272.700195312 747.399414062 c 4,4,5
 272.700195312 772.099609375 272.700195312 772.099609375 286.700195312 793.549804688 c 4,6,7
 300.700195312 815 300.700195312 815 331.5 815 c 4,8,9
 363.700195312 815 363.700195312 815 380.5 794.849609375 c 4,10,11
 397.299804688 774.700195312 397.299804688 774.700195312 397.299804688 747.399414062 c 4,12,13
 397.299804688 717.5 397.299804688 717.5 378.400390625 702.549804688 c 4,14,15
 359.5 687.599609375 359.5 687.599609375 331.5 687.599609375 c 4,0,1
306.299804688 755.200195312 m 4,16,17
 307.700195312 769.5 307.700195312 769.5 313.299804688 781.200195312 c 4,18,19
 318.900390625 792.899414062 318.900390625 792.899414062 311.900390625 792.899414062 c 4,20,21
 302.100585938 792.899414062 302.100585938 792.899414062 295.799804688 774.049804688 c 4,22,23
 289.5 755.200195312 289.5 755.200195312 289.5 740.899414062 c 4,24,25
 289.5 727.899414062 289.5 727.899414062 296.5 727.899414062 c 4,26,27
 302.100585938 727.899414062 302.100585938 727.899414062 303.5 737.649414062 c 4,28,29
 304.900390625 747.399414062 304.900390625 747.399414062 306.299804688 755.200195312 c 4,16,17
EndSplineSet
Refer: 76 106 N 1 0 0 1 0 0 2
EndChar

StartChar: K
Encoding: 75 75 45
Width: 600
GlyphClass: 2
Flags: W
LayerCount: 2
Fore
SplineSet
251.994140625 660.049804688 m 4,0,1
 225.39453125 660.049804688 225.39453125 660.049804688 209.293945312 676.299804688 c 4,2,3
 193.194335938 692.549804688 193.194335938 692.549804688 193.194335938 719.849609375 c 4,4,5
 193.194335938 744.549804688 193.194335938 744.549804688 207.194335938 766 c 4,6,7
 221.194335938 787.450195312 221.194335938 787.450195312 251.994140625 787.450195312 c 4,8,9
 284.194335938 787.450195312 284.194335938 787.450195312 300.994140625 767.299804688 c 4,10,11
 317.793945312 747.150390625 317.793945312 747.150390625 317.793945312 719.849609375 c 4,12,13
 317.793945312 689.950195312 317.793945312 689.950195312 298.89453125 675 c 4,14,15
 279.994140625 660.049804688 279.994140625 660.049804688 251.994140625 660.049804688 c 4,0,1
226.793945312 727.650390625 m 4,16,17
 228.194335938 741.950195312 228.194335938 741.950195312 233.793945312 753.650390625 c 4,18,19
 239.39453125 765.349609375 239.39453125 765.349609375 232.39453125 765.349609375 c 4,20,21
 222.594726562 765.349609375 222.594726562 765.349609375 216.293945312 746.5 c 4,22,23
 209.994140625 727.650390625 209.994140625 727.650390625 209.994140625 713.349609375 c 4,24,25
 209.994140625 700.349609375 209.994140625 700.349609375 216.994140625 700.349609375 c 4,26,27
 222.594726562 700.349609375 222.594726562 700.349609375 223.994140625 710.099609375 c 4,28,29
 225.39453125 719.849609375 225.39453125 719.849609375 226.793945312 727.650390625 c 4,16,17
EndSplineSet
Refer: 77 107 N 1 0 0 1 0.000896295 0 2
EndChar

StartChar: M
Encoding: 77 77 47
Width: 600
GlyphClass: 2
Flags: W
LayerCount: 2
Fore
SplineSet
323.124023438 618.233398438 m 4,0,1
 293.043945312 618.233398438 293.043945312 618.233398438 271.611328125 640.409179688 c 132,-1,2
 250.1796875 662.584960938 250.1796875 662.584960938 250.1796875 697.432617188 c 4,3,4
 250.1796875 716.440429688 250.1796875 716.440429688 256.572265625 733.46875 c 132,-1,5
 262.96484375 750.497070312 262.96484375 750.497070312 274.244140625 762.772460938 c 132,-1,6
 285.5234375 775.048828125 285.5234375 775.048828125 301.31640625 782.573242188 c 132,-1,7
 317.108398438 790.096679688 317.108398438 790.096679688 335.908203125 790.096679688 c 4,8,9
 350.947265625 790.096679688 350.947265625 790.096679688 363.731445312 783.365234375 c 132,-1,10
 376.515625 776.6328125 376.515625 776.6328125 385.5390625 764.752929688 c 132,-1,11
 394.564453125 752.873046875 394.564453125 752.873046875 399.452148438 737.825195312 c 132,-1,12
 404.33984375 722.776367188 404.33984375 722.776367188 404.33984375 706.14453125 c 4,13,14
 404.33984375 684.760742188 404.33984375 684.760742188 397.947265625 668.525390625 c 132,-1,15
 391.556640625 652.2890625 391.556640625 652.2890625 380.275390625 641.201171875 c 132,-1,16
 368.99609375 630.112304688 368.99609375 630.112304688 354.33203125 624.172851562 c 132,-1,17
 339.66796875 618.233398438 339.66796875 618.233398438 323.124023438 618.233398438 c 4,0,1
295.30078125 755.249023438 m 4,18,19
 300.564453125 760.79296875 300.564453125 760.79296875 301.692382812 764.752929688 c 132,-1,20
 302.8203125 768.712890625 302.8203125 768.712890625 301.31640625 768.712890625 c 4,21,22
 295.30078125 768.712890625 295.30078125 768.712890625 288.53125 762.772460938 c 132,-1,23
 281.764648438 756.833007812 281.764648438 756.833007812 276.124023438 748.517578125 c 132,-1,24
 270.484375 740.201171875 270.484375 740.201171875 266.723632812 730.697265625 c 132,-1,25
 262.96484375 721.193359375 262.96484375 721.193359375 262.96484375 713.272460938 c 4,26,27
 262.96484375 711.689453125 262.96484375 711.689453125 264.092773438 706.936523438 c 132,-1,28
 265.220703125 702.185546875 265.220703125 702.185546875 267.475585938 702.185546875 c 4,29,30
 270.484375 702.185546875 270.484375 702.185546875 274.99609375 719.608398438 c 4,31,32
 277.251953125 730.697265625 277.251953125 730.697265625 283.267578125 739.8046875 c 132,-1,33
 289.28515625 748.913085938 289.28515625 748.913085938 295.30078125 755.249023438 c 4,18,19
326.131835938 663.376953125 m 4,34,35
 335.15625 663.376953125 335.15625 663.376953125 347.564453125 674.46484375 c 132,-1,36
 359.97265625 685.553710938 359.97265625 685.553710938 359.97265625 706.14453125 c 4,37,38
 359.97265625 721.985351562 359.97265625 721.985351562 352.075195312 732.676757812 c 132,-1,39
 344.1796875 743.369140625 344.1796875 743.369140625 331.395507812 743.369140625 c 260,40,41
 318.611328125 743.369140625 318.611328125 743.369140625 308.084960938 732.676757812 c 132,-1,42
 297.556640625 721.985351562 297.556640625 721.985351562 297.556640625 702.9765625 c 260,43,44
 297.556640625 683.96875 297.556640625 683.96875 305.828125 673.672851562 c 132,-1,45
 314.100585938 663.376953125 314.100585938 663.376953125 326.131835938 663.376953125 c 4,34,35
88.970703125 2.740234375 m 0,46,47
 74.869140625 2.740234375 74.869140625 2.740234375 66.41015625 8.1845703125 c 128,-1,48
 57.94921875 13.6298828125 57.94921875 13.6298828125 53.720703125 22.5400390625 c 128,-1,49
 49.490234375 31.4501953125 49.490234375 31.4501953125 48.080078125 42.8349609375 c 128,-1,50
 46.669921875 54.2197265625 46.669921875 54.2197265625 46.669921875 67.08984375 c 2,51,-1
 46.669921875 493.780273438 l 2,52,53
 46.669921875 504.669921875 46.669921875 504.669921875 47.140625 517.540039062 c 128,-1,54
 47.609375 530.41015625 47.609375 530.41015625 51.369140625 541.299804688 c 128,-1,55
 55.130859375 552.190429688 55.130859375 552.190429688 63.58984375 559.615234375 c 128,-1,56
 72.05078125 567.040039062 72.05078125 567.040039062 87.08984375 567.040039062 c 0,57,58
 105.890625 567.040039062 105.890625 567.040039062 115.291015625 552.684570312 c 128,-1,59
 124.689453125 538.330078125 124.689453125 538.330078125 128.919921875 520.509765625 c 128,-1,60
 133.150390625 502.690429688 133.150390625 502.690429688 134.08984375 488.334960938 c 128,-1,61
 135.029296875 473.98046875 135.029296875 473.98046875 136.91015625 473.98046875 c 256,62,63
 138.791015625 473.98046875 138.791015625 473.98046875 142.55078125 489.325195312 c 128,-1,64
 146.310546875 504.669921875 146.310546875 504.669921875 156.1796875 522.490234375 c 128,-1,65
 166.05078125 540.309570312 166.05078125 540.309570312 183.91015625 555.655273438 c 128,-1,66
 201.76953125 571 201.76953125 571 232.791015625 571 c 0,67,68
 259.109375 571 259.109375 571 276.029296875 556.150390625 c 128,-1,69
 292.94921875 541.299804688 292.94921875 541.299804688 303.291015625 522.985351562 c 128,-1,70
 313.630859375 504.669921875 313.630859375 504.669921875 319.26953125 489.8203125 c 128,-1,71
 324.91015625 474.969726562 324.91015625 474.969726562 327.73046875 474.969726562 c 256,72,73
 330.55078125 474.969726562 330.55078125 474.969726562 335.720703125 489.8203125 c 128,-1,74
 340.890625 504.669921875 340.890625 504.669921875 351.23046875 522.985351562 c 128,-1,75
 361.5703125 541.299804688 361.5703125 541.299804688 379.900390625 556.150390625 c 128,-1,76
 398.23046875 571 398.23046875 571 428.310546875 571 c 0,77,78
 466.849609375 571 466.849609375 571 491.291015625 551.200195312 c 128,-1,79
 515.73046875 531.400390625 515.73046875 531.400390625 529.359375 496.254882812 c 128,-1,80
 542.990234375 461.110351562 542.990234375 461.110351562 548.16015625 413.094726562 c 128,-1,81
 553.330078125 365.080078125 553.330078125 365.080078125 553.330078125 309.639648438 c 2,82,-1
 553.330078125 29.4697265625 l 2,83,84
 553.330078125 15.6103515625 553.330078125 15.6103515625 535.470703125 9.1748046875 c 128,-1,85
 517.609375 2.740234375 517.609375 2.740234375 498.810546875 2.740234375 c 256,86,87
 480.009765625 2.740234375 480.009765625 2.740234375 469.669921875 8.1845703125 c 128,-1,88
 459.330078125 13.6298828125 459.330078125 13.6298828125 459.330078125 28.48046875 c 2,89,-1
 459.330078125 300.73046875 l 2,90,91
 459.330078125 312.610351562 459.330078125 312.610351562 459.330078125 340.825195312 c 128,-1,92
 459.330078125 369.040039062 459.330078125 369.040039062 455.099609375 398.740234375 c 128,-1,93
 450.869140625 428.440429688 450.869140625 428.440429688 441 450.71484375 c 128,-1,94
 431.130859375 472.990234375 431.130859375 472.990234375 411.390625 472.990234375 c 0,95,96
 394.470703125 472.990234375 394.470703125 472.990234375 383.66015625 459.129882812 c 128,-1,97
 372.849609375 445.26953125 372.849609375 445.26953125 366.26953125 421.014648438 c 128,-1,98
 359.689453125 396.759765625 359.689453125 396.759765625 356.400390625 362.60546875 c 128,-1,99
 353.109375 328.450195312 353.109375 328.450195312 351.23046875 286.870117188 c 0,100,101
 348.41015625 238.360351562 348.41015625 238.360351562 347.470703125 211.629882812 c 128,-1,102
 346.529296875 184.900390625 346.529296875 184.900390625 347 142.825195312 c 128,-1,103
 347.470703125 100.75 347.470703125 100.75 347.939453125 71.544921875 c 128,-1,104
 348.41015625 42.33984375 348.41015625 42.33984375 348.41015625 33.4296875 c 0,105,106
 348.41015625 19.5703125 348.41015625 19.5703125 332.900390625 11.1552734375 c 128,-1,107
 317.390625 2.740234375 317.390625 2.740234375 294.830078125 2.740234375 c 256,108,109
 272.26953125 2.740234375 272.26953125 2.740234375 262.869140625 9.669921875 c 128,-1,110
 253.470703125 16.599609375 253.470703125 16.599609375 253.470703125 40.3603515625 c 2,111,-1
 253.470703125 300.73046875 l 2,112,113
 253.470703125 311.620117188 253.470703125 311.620117188 253.470703125 340.330078125 c 128,-1,114
 253.470703125 369.040039062 253.470703125 369.040039062 249.7109375 398.740234375 c 128,-1,115
 245.94921875 428.440429688 245.94921875 428.440429688 236.55078125 451.209960938 c 128,-1,116
 227.150390625 473.98046875 227.150390625 473.98046875 208.349609375 473.98046875 c 0,117,118
 191.4296875 473.98046875 191.4296875 473.98046875 179.6796875 458.634765625 c 128,-1,119
 167.9296875 443.290039062 167.9296875 443.290039062 160.41015625 419.530273438 c 128,-1,120
 152.890625 395.76953125 152.890625 395.76953125 148.66015625 366.0703125 c 128,-1,121
 144.4296875 336.370117188 144.4296875 336.370117188 142.55078125 308.650390625 c 128,-1,122
 140.669921875 280.9296875 140.669921875 280.9296875 140.19921875 257.169921875 c 128,-1,123
 139.73046875 233.41015625 139.73046875 233.41015625 139.73046875 221.530273438 c 2,124,-1
 139.73046875 47.2900390625 l 2,125,126
 139.73046875 28.48046875 139.73046875 28.48046875 124.689453125 15.6103515625 c 128,-1,127
 109.650390625 2.740234375 109.650390625 2.740234375 88.970703125 2.740234375 c 0,46,47
69.23046875 473.98046875 m 0,128,129
 74.869140625 474.969726562 74.869140625 474.969726562 75.33984375 485.365234375 c 128,-1,130
 75.810546875 495.759765625 75.810546875 495.759765625 75.810546875 503.6796875 c 0,131,132
 75.810546875 510.610351562 75.810546875 510.610351562 77.689453125 519.025390625 c 128,-1,133
 79.5703125 527.440429688 79.5703125 527.440429688 80.98046875 534.370117188 c 128,-1,134
 82.390625 541.299804688 82.390625 541.299804688 82.390625 546.25 c 128,-1,135
 82.390625 551.200195312 82.390625 551.200195312 78.630859375 551.200195312 c 0,136,137
 72.05078125 551.200195312 72.05078125 551.200195312 67.8203125 544.764648438 c 128,-1,138
 63.58984375 538.330078125 63.58984375 538.330078125 61.7109375 529.419921875 c 128,-1,139
 59.830078125 520.509765625 59.830078125 520.509765625 58.890625 512.58984375 c 128,-1,140
 57.94921875 504.669921875 57.94921875 504.669921875 57.94921875 501.700195312 c 0,141,142
 57.94921875 493.780273438 57.94921875 493.780273438 59.830078125 483.384765625 c 128,-1,143
 61.7109375 472.990234375 61.7109375 472.990234375 69.23046875 473.98046875 c 0,128,129
286.369140625 25.509765625 m 0,144,145
 286.369140625 35.41015625 286.369140625 35.41015625 280.259765625 38.875 c 128,-1,146
 274.150390625 42.33984375 274.150390625 42.33984375 274.150390625 53.23046875 c 0,147,148
 274.150390625 55.2099609375 274.150390625 55.2099609375 274.150390625 60.6552734375 c 128,-1,149
 274.150390625 66.099609375 274.150390625 66.099609375 273.6796875 71.544921875 c 128,-1,150
 273.2109375 76.990234375 273.2109375 76.990234375 271.330078125 81.4453125 c 128,-1,151
 269.44921875 85.900390625 269.44921875 85.900390625 266.630859375 85.900390625 c 0,152,153
 264.75 85.900390625 264.75 85.900390625 263.810546875 81.4453125 c 128,-1,154
 262.869140625 76.990234375 262.869140625 76.990234375 262.400390625 71.0498046875 c 128,-1,155
 261.9296875 65.1103515625 261.9296875 65.1103515625 261.9296875 59.6650390625 c 128,-1,156
 261.9296875 54.2197265625 261.9296875 54.2197265625 261.9296875 52.240234375 c 0,157,158
 261.9296875 40.3603515625 261.9296875 40.3603515625 265.220703125 26.9951171875 c 128,-1,159
 268.509765625 13.6298828125 268.509765625 13.6298828125 277.91015625 13.6298828125 c 0,160,161
 286.369140625 13.6298828125 286.369140625 13.6298828125 286.369140625 25.509765625 c 0,144,145
489.41015625 26.5 m 0,162,163
 489.41015625 36.400390625 489.41015625 36.400390625 484.240234375 43.8251953125 c 128,-1,164
 479.0703125 51.25 479.0703125 51.25 479.0703125 62.1396484375 c 0,165,166
 479.0703125 66.099609375 479.0703125 66.099609375 478.599609375 76 c 128,-1,167
 478.130859375 85.900390625 478.130859375 85.900390625 472.490234375 85.900390625 c 0,168,169
 467.791015625 85.900390625 467.791015625 85.900390625 467.3203125 75.009765625 c 128,-1,170
 466.849609375 64.1201171875 466.849609375 64.1201171875 466.849609375 61.150390625 c 256,171,172
 466.849609375 58.1796875 466.849609375 58.1796875 467.3203125 50.259765625 c 128,-1,173
 467.791015625 42.33984375 467.791015625 42.33984375 469.669921875 34.9150390625 c 128,-1,174
 471.55078125 27.490234375 471.55078125 27.490234375 474.369140625 21.5498046875 c 128,-1,175
 477.189453125 15.6103515625 477.189453125 15.6103515625 481.890625 15.6103515625 c 0,176,177
 485.650390625 15.6103515625 485.650390625 15.6103515625 487.529296875 20.0654296875 c 128,-1,178
 489.41015625 24.51953125 489.41015625 24.51953125 489.41015625 26.5 c 0,162,163
87.08984375 26.5 m 0,179,180
 87.08984375 37.3896484375 87.08984375 37.3896484375 82.859375 38.3798828125 c 128,-1,181
 78.630859375 39.3701171875 78.630859375 39.3701171875 73.9296875 46.2998046875 c 0,182,183
 72.990234375 48.2802734375 72.990234375 48.2802734375 72.51953125 53.724609375 c 128,-1,184
 72.05078125 59.169921875 72.05078125 59.169921875 72.05078125 64.615234375 c 128,-1,185
 72.05078125 70.0595703125 72.05078125 70.0595703125 70.640625 74.5146484375 c 128,-1,186
 69.23046875 78.9697265625 69.23046875 78.9697265625 66.41015625 78.9697265625 c 0,187,188
 61.7109375 78.9697265625 61.7109375 78.9697265625 61.240234375 69.5654296875 c 128,-1,189
 60.76953125 60.16015625 60.76953125 60.16015625 60.76953125 53.23046875 c 0,190,191
 60.76953125 49.26953125 60.76953125 49.26953125 61.7109375 43.330078125 c 128,-1,192
 62.650390625 37.3896484375 62.650390625 37.3896484375 65 31.4501953125 c 128,-1,193
 67.349609375 25.509765625 67.349609375 25.509765625 70.640625 21.0546875 c 128,-1,194
 73.9296875 16.599609375 73.9296875 16.599609375 78.630859375 16.599609375 c 0,195,196
 87.08984375 16.599609375 87.08984375 16.599609375 87.08984375 26.5 c 0,179,180
EndSplineSet
EndChar

StartChar: N
Encoding: 78 78 48
Width: 600
GlyphClass: 2
Flags: W
LayerCount: 2
Fore
SplineSet
290.5 576 m 0,0,1
 250.5 576 250.5 576 222 604 c 128,-1,2
 193.5 632 193.5 632 193.5 676 c 0,3,4
 193.5 700 193.5 700 202 721.5 c 128,-1,5
 210.5 743 210.5 743 225.5 758.5 c 128,-1,6
 240.5 774 240.5 774 261.5 783.5 c 128,-1,7
 282.5 793 282.5 793 307.5 793 c 0,8,9
 327.5 793 327.5 793 344.5 784.5 c 128,-1,10
 361.5 776 361.5 776 373.5 761 c 128,-1,11
 385.5 746 385.5 746 392 727 c 128,-1,12
 398.5 708 398.5 708 398.5 687 c 0,13,14
 398.5 660 398.5 660 390 639.5 c 128,-1,15
 381.5 619 381.5 619 366.5 605 c 128,-1,16
 351.5 591 351.5 591 332 583.5 c 128,-1,17
 312.5 576 312.5 576 290.5 576 c 0,0,1
253.5 749 m 0,18,19
 260.5 756 260.5 756 262 761 c 128,-1,20
 263.5 766 263.5 766 261.5 766 c 0,21,22
 253.5 766 253.5 766 244.5 758.5 c 128,-1,23
 235.5 751 235.5 751 228 740.5 c 128,-1,24
 220.5 730 220.5 730 215.5 718 c 128,-1,25
 210.5 706 210.5 706 210.5 696 c 0,26,27
 210.5 694 210.5 694 212 688 c 128,-1,28
 213.5 682 213.5 682 216.5 682 c 0,29,30
 220.5 682 220.5 682 226.5 704 c 0,31,32
 229.5 718 229.5 718 237.5 729.5 c 128,-1,33
 245.5 741 245.5 741 253.5 749 c 0,18,19
294.5 633 m 0,34,35
 306.5 633 306.5 633 323 647 c 128,-1,36
 339.5 661 339.5 661 339.5 687 c 0,37,38
 339.5 707 339.5 707 329 720.5 c 128,-1,39
 318.5 734 318.5 734 301.5 734 c 256,40,41
 284.5 734 284.5 734 270.5 720.5 c 128,-1,42
 256.5 707 256.5 707 256.5 683 c 256,43,44
 256.5 659 256.5 659 267.5 646 c 128,-1,45
 278.5 633 278.5 633 294.5 633 c 0,34,35
55.25 0 m 5,46,-1
 55.25 511 l 5,47,-1
 134.450195312 511 l 5,48,-1
 148.75 432 l 5,49,-1
 154.25 432 l 5,50,51
 172 463 172 463 199.900390625 482.5 c 4,52,53
 227 502 227 502 265.349609375 511.5 c 4,54,55
 302 521 302 521 346.75 521 c 4,56,57
 436 521 436 521 490.299804688 475.5 c 4,58,59
 544.75 430.208007812 544.75 430.208007812 544.75 333 c 6,60,-1
 544.75 0 l 5,61,-1
 445.75 0 l 5,62,-1
 445.75 317 l 6,63,64
 446 384 446 384 415.5 416.5 c 4,65,66
 386 448 386 448 318.150390625 448 c 4,67,68
 215.936523438 448 215.936523438 448 191.099609375 396 c 4,69,70
 154.25 319.518554688 154.25 319.518554688 154.25 250 c 6,71,-1
 154.25 0 l 5,72,-1
 55.25 0 l 5,46,-1
EndSplineSet
EndChar

StartChar: O
Encoding: 79 79 49
Width: 600
GlyphClass: 2
Flags: W
LayerCount: 2
Fore
SplineSet
172.780273438 381.428710938 m 0,0,1
 159.705078125 386.329101562 159.705078125 386.329101562 151.157226562 396.12890625 c 128,-1,2
 142.609375 405.930664062 142.609375 405.930664062 140.094726562 416.8203125 c 128,-1,3
 137.580078125 427.709960938 137.580078125 427.709960938 141.100585938 439.145507812 c 0,4,5
 145.625 451.66796875 145.625 451.66796875 154.677734375 457.658203125 c 0,6,7
 159.705078125 460.379882812 159.705078125 460.379882812 167.249023438 463.103515625 c 0,8,9
 174.791992188 464.736328125 174.791992188 464.736328125 188.369140625 466.915039062 c 128,-1,10
 201.9453125 469.091796875 201.9453125 469.091796875 222.059570312 469.091796875 c 0,11,12
 282.400390625 469.091796875 282.400390625 469.091796875 313.577148438 469.63671875 c 0,13,14
 385.987304688 469.091796875 385.987304688 469.091796875 411.12890625 468.00390625 c 128,-1,15
 436.271484375 466.915039062 436.271484375 466.915039062 448.84375 460.924804688 c 0,16,17
 461.415039062 456.024414062 461.415039062 456.024414062 464.430664062 445.678710938 c 0,18,19
 467.448242188 436.421875 467.448242188 436.421875 467.448242188 419.54296875 c 0,20,21
 467.448242188 405.930664062 467.448242188 405.930664062 461.91796875 398.307617188 c 128,-1,22
 456.385742188 390.684570312 456.385742188 390.684570312 442.305664062 385.240234375 c 128,-1,23
 428.2265625 379.794921875 428.2265625 379.794921875 404.08984375 378.16015625 c 0,24,25
 379.954101562 375.438476562 379.954101562 375.438476562 313.577148438 375.983398438 c 0,26,27
 235.1328125 375.438476562 235.1328125 375.438476562 206.470703125 377.616210938 c 128,-1,28
 177.80859375 379.794921875 177.80859375 379.794921875 172.780273438 381.428710938 c 0,0,1
180.825195312 447.857421875 m 0,29,30
 180.825195312 449.491210938 180.825195312 449.491210938 178.311523438 451.66796875 c 0,31,32
 176.802734375 452.7578125 176.802734375 452.7578125 171.774414062 450.034179688 c 128,-1,33
 166.745117188 447.3125 166.745117188 447.3125 164.232421875 436.966796875 c 0,34,35
 161.716796875 427.709960938 161.716796875 427.709960938 161.716796875 419.54296875 c 256,36,37
 161.716796875 412.46484375 161.716796875 412.46484375 163.728515625 411.919921875 c 0,38,39
 166.745117188 412.46484375 166.745117188 412.46484375 171.774414062 426.077148438 c 0,40,41
 177.80859375 440.779296875 177.80859375 440.779296875 177.80859375 441.322265625 c 0,42,43
 180.825195312 444.045898438 180.825195312 444.045898438 180.825195312 447.857421875 c 0,29,30
170.768554688 206.098632812 m 0,44,45
 151.66015625 209.91015625 151.66015625 209.91015625 142.10546875 225.15625 c 128,-1,46
 132.551757812 240.40234375 132.551757812 240.40234375 139.591796875 256.192382812 c 0,47,48
 144.620117188 266.5390625 144.620117188 266.5390625 152.162109375 271.439453125 c 0,49,50
 159.705078125 277.428710938 159.705078125 277.428710938 175.293945312 279.606445312 c 0,51,52
 198.928710938 282.873046875 198.928710938 282.873046875 216.024414062 282.873046875 c 0,53,54
 280.388671875 282.873046875 280.388671875 282.873046875 334.194335938 283.41796875 c 128,-1,55
 387.999023438 283.962890625 387.999023438 283.962890625 413.64453125 281.78515625 c 128,-1,56
 439.2890625 279.606445312 439.2890625 279.606445312 453.369140625 276.33984375 c 128,-1,57
 467.448242188 273.072265625 467.448242188 273.072265625 472.98046875 265.44921875 c 128,-1,58
 478.51171875 257.826171875 478.51171875 257.826171875 478.51171875 246.391601562 c 0,59,60
 478.51171875 231.69140625 478.51171875 231.69140625 472.4765625 222.434570312 c 0,61,62
 466.442382812 212.088867188 466.442382812 212.088867188 450.85546875 207.1875 c 0,63,64
 435.266601562 201.198242188 435.266601562 201.198242188 409.118164062 199.020507812 c 0,65,66
 371.907226562 195.75390625 371.907226562 195.75390625 314.583007812 196.297851562 c 0,67,68
 236.138671875 196.841796875 236.138671875 196.841796875 207.475585938 200.110351562 c 128,-1,69
 178.814453125 203.376953125 178.814453125 203.376953125 170.768554688 206.098632812 c 0,44,45
173.78515625 259.458984375 m 0,70,71
 173.78515625 262.182617188 173.78515625 262.182617188 170.768554688 262.727539062 c 256,72,73
 167.750976562 262.182617188 167.750976562 262.182617188 166.745117188 261.637695312 c 0,74,75
 164.734375 260.00390625 164.734375 260.00390625 161.716796875 255.6484375 c 128,-1,76
 158.700195312 251.291992188 158.700195312 251.291992188 158.700195312 243.125 c 0,77,78
 158.700195312 233.868164062 158.700195312 233.868164062 160.208984375 232.234375 c 0,79,80
 161.716796875 231.69140625 161.716796875 231.69140625 166.745117188 236.591796875 c 0,81,82
 170.768554688 240.40234375 170.768554688 240.40234375 172.27734375 247.48046875 c 0,83,84
 173.78515625 253.470703125 173.78515625 253.470703125 173.78515625 259.458984375 c 0,70,71
297.486328125 -1.35546875 m 0,85,86
 225.076171875 -1.35546875 225.076171875 -1.35546875 171.271484375 28.591796875 c 128,-1,87
 117.465820312 58.5400390625 117.465820312 58.5400390625 82.267578125 105.91015625 c 128,-1,88
 47.068359375 153.282226562 47.068359375 153.282226562 29.4677734375 212.088867188 c 128,-1,89
 11.8681640625 270.89453125 11.8681640625 270.89453125 11.8681640625 329.700195312 c 0,90,91
 11.8681640625 401.57421875 11.8681640625 401.57421875 31.982421875 462.55859375 c 128,-1,92
 52.0966796875 523.541992188 52.0966796875 523.541992188 89.810546875 567.647460938 c 128,-1,93
 127.5234375 611.751953125 127.5234375 611.751953125 181.831054688 636.797851562 c 128,-1,94
 236.138671875 661.845703125 236.138671875 661.845703125 303.520507812 661.845703125 c 0,95,96
 365.874023438 661.845703125 365.874023438 661.845703125 418.168945312 637.342773438 c 128,-1,97
 470.46484375 612.840820312 470.46484375 612.840820312 508.1796875 569.825195312 c 128,-1,98
 545.892578125 526.809570312 545.892578125 526.809570312 567.01171875 467.458984375 c 128,-1,99
 588.131835938 408.108398438 588.131835938 408.108398438 588.131835938 339.501953125 c 0,100,101
 588.131835938 269.805664062 588.131835938 269.805664062 566.509765625 207.732421875 c 128,-1,102
 544.88671875 145.66015625 544.88671875 145.66015625 506.16796875 99.376953125 c 128,-1,103
 467.448242188 53.0947265625 467.448242188 53.0947265625 414.146484375 25.869140625 c 128,-1,104
 360.844726562 -1.35546875 360.844726562 -1.35546875 297.486328125 -1.35546875 c 0,85,86
299.498046875 82.4970703125 m 0,105,106
 401.073242188 82.4970703125 401.073242188 82.4970703125 452.866210938 151.6484375 c 128,-1,107
 504.66015625 220.80078125 504.66015625 220.80078125 504.66015625 339.501953125 c 0,108,109
 504.66015625 387.416992188 504.66015625 387.416992188 491.083007812 431.522460938 c 128,-1,110
 477.505859375 475.626953125 477.505859375 475.626953125 451.358398438 509.384765625 c 128,-1,111
 425.209960938 543.14453125 425.209960938 543.14453125 387.999023438 563.291015625 c 128,-1,112
 350.788085938 583.4375 350.788085938 583.4375 303.520507812 583.4375 c 0,113,114
 258.263671875 583.4375 258.263671875 583.4375 220.55078125 563.834960938 c 128,-1,115
 182.836914062 544.233398438 182.836914062 544.233398438 155.682617188 511.563476562 c 128,-1,116
 128.529296875 478.893554688 128.529296875 478.893554688 113.443359375 435.333984375 c 128,-1,117
 98.3583984375 391.7734375 98.3583984375 391.7734375 98.3583984375 342.768554688 c 256,118,119
 98.3583984375 293.763671875 98.3583984375 293.763671875 111.935546875 246.936523438 c 128,-1,120
 125.512695312 200.110351562 125.512695312 200.110351562 151.157226562 163.62890625 c 128,-1,121
 176.802734375 127.146484375 176.802734375 127.146484375 214.013671875 104.822265625 c 128,-1,122
 251.224609375 82.4970703125 251.224609375 82.4970703125 299.498046875 82.4970703125 c 0,105,106
EndSplineSet
EndChar

StartChar: Q
Encoding: 81 81 51
Width: 600
GlyphClass: 2
Flags: W
LayerCount: 2
Fore
SplineSet
251.609375 647 m 4,0,1
 225.009765625 647 225.009765625 647 208.909179688 663.25 c 4,2,3
 192.809570312 679.5 192.809570312 679.5 192.809570312 706.799804688 c 4,4,5
 192.809570312 731.5 192.809570312 731.5 206.809570312 752.950195312 c 4,6,7
 220.809570312 774.400390625 220.809570312 774.400390625 251.609375 774.400390625 c 4,8,9
 283.809570312 774.400390625 283.809570312 774.400390625 300.609375 754.25 c 4,10,11
 317.409179688 734.100585938 317.409179688 734.100585938 317.409179688 706.799804688 c 4,12,13
 317.409179688 676.900390625 317.409179688 676.900390625 298.509765625 661.950195312 c 4,14,15
 279.609375 647 279.609375 647 251.609375 647 c 4,0,1
226.409179688 714.600585938 m 4,16,17
 227.809570312 728.900390625 227.809570312 728.900390625 233.409179688 740.600585938 c 4,18,19
 239.009765625 752.299804688 239.009765625 752.299804688 232.009765625 752.299804688 c 4,20,21
 222.209960938 752.299804688 222.209960938 752.299804688 215.909179688 733.450195312 c 4,22,23
 209.609375 714.600585938 209.609375 714.600585938 209.609375 700.299804688 c 4,24,25
 209.609375 687.299804688 209.609375 687.299804688 216.609375 687.299804688 c 4,26,27
 222.209960938 687.299804688 222.209960938 687.299804688 223.609375 697.049804688 c 4,28,29
 225.009765625 706.799804688 225.009765625 706.799804688 226.409179688 714.600585938 c 4,16,17
EndSplineSet
Refer: 83 113 N 1 0 0 1 -0.000294216 0 2
EndChar

StartChar: R
Encoding: 82 82 52
Width: 600
GlyphClass: 2
Flags: W
LayerCount: 2
Fore
SplineSet
324.650390625 631.629882812 m 0,0,1
 295.390625 631.629882812 295.390625 631.629882812 277.6796875 649.504882812 c 0,2,3
 259.970703125 667.379882812 259.970703125 667.379882812 259.970703125 697.41015625 c 0,4,5
 259.970703125 724.580078125 259.970703125 724.580078125 275.370117188 748.174804688 c 0,6,7
 290.770507812 771.770507812 290.770507812 771.770507812 324.650390625 771.770507812 c 0,8,9
 360.0703125 771.770507812 360.0703125 771.770507812 378.549804688 749.60546875 c 0,10,11
 397.029296875 727.440429688 397.029296875 727.440429688 397.029296875 697.41015625 c 0,12,13
 397.029296875 664.520507812 397.029296875 664.520507812 376.240234375 648.075195312 c 0,14,15
 355.450195312 631.629882812 355.450195312 631.629882812 324.650390625 631.629882812 c 0,0,1
296.9296875 705.990234375 m 0,16,17
 298.470703125 721.720703125 298.470703125 721.720703125 304.629882812 734.590820312 c 0,18,19
 310.790039062 747.459960938 310.790039062 747.459960938 303.090820312 747.459960938 c 0,20,21
 292.310546875 747.459960938 292.310546875 747.459960938 285.379882812 726.725585938 c 0,22,23
 278.450195312 705.990234375 278.450195312 705.990234375 278.450195312 690.259765625 c 0,24,25
 278.450195312 675.959960938 278.450195312 675.959960938 286.150390625 675.959960938 c 0,26,27
 292.310546875 675.959960938 292.310546875 675.959960938 293.849609375 686.684570312 c 0,28,29
 295.390625 697.41015625 295.390625 697.41015625 296.9296875 705.990234375 c 0,16,17
EndSplineSet
Refer: 84 114 S 1 0 0 1 0 0 2
EndChar

StartChar: S
Encoding: 83 83 53
Width: 600
GlyphClass: 2
Flags: W
LayerCount: 2
Fore
SplineSet
326 685.599609375 m 4,0,1
 299 686 299 686 283.299804688 701.849609375 c 4,2,3
 267 718 267 718 267.200195312 745.399414062 c 4,4,5
 267 770 267 770 281.200195312 791.549804688 c 4,6,7
 295 813 295 813 326 813 c 4,8,9
 358 813 358 813 375 792.849609375 c 4,10,11
 390 776 390 776 391.799804688 719.399414062 c 0,12,13
 392 716 392 716 372.900390625 700.549804688 c 4,14,15
 354 686 354 686 326 685.599609375 c 4,0,1
300.799804688 753.200195312 m 4,16,17
 302 767 302 767 307.799804688 779.200195312 c 4,18,19
 313 791 313 791 306.400390625 790.899414062 c 4,20,21
 297 791 297 791 290.299804688 772.049804688 c 4,22,23
 284 753 284 753 284 738.899414062 c 4,24,25
 284 726 284 726 291 725.899414062 c 4,26,27
 299.18641098 726.00234379 299.18641098 726.00234379 298 709.649414062 c 0,28,29
 301 752 301 752 300.799804688 753.200195312 c 4,16,17
EndSplineSet
Refer: 85 115 N 1 0 0 1 0 0 2
EndChar

StartChar: T
Encoding: 84 84 54
Width: 600
GlyphClass: 2
Flags: W
LayerCount: 2
Fore
SplineSet
476 658.599609375 m 4,0,1
 449.400390625 658.599609375 449.400390625 658.599609375 433.299804688 674.849609375 c 4,2,3
 417.200195312 691.099609375 417.200195312 691.099609375 417.200195312 718.399414062 c 4,4,5
 417.200195312 743.099609375 417.200195312 743.099609375 431.200195312 764.549804688 c 4,6,7
 445.200195312 786 445.200195312 786 476 786 c 4,8,9
 508.200195312 786 508.200195312 786 525 765.849609375 c 4,10,11
 541.799804688 745.700195312 541.799804688 745.700195312 541.799804688 718.399414062 c 4,12,13
 541.799804688 688.5 541.799804688 688.5 522.900390625 673.549804688 c 4,14,15
 504 658.599609375 504 658.599609375 476 658.599609375 c 4,0,1
450.799804688 726.200195312 m 4,16,17
 452.200195312 740.5 452.200195312 740.5 457.799804688 752.200195312 c 4,18,19
 463.400390625 763.899414062 463.400390625 763.899414062 456.400390625 763.899414062 c 4,20,21
 446.600585938 763.899414062 446.600585938 763.899414062 440.299804688 745.049804688 c 4,22,23
 434 726.200195312 434 726.200195312 434 711.899414062 c 4,24,25
 434 698.899414062 434 698.899414062 441 698.899414062 c 4,26,27
 446.600585938 698.899414062 446.600585938 698.899414062 448 708.649414062 c 4,28,29
 449.400390625 718.399414062 449.400390625 718.399414062 450.799804688 726.200195312 c 4,16,17
EndSplineSet
Refer: 86 116 N 1 0 0 1 0 0 2
EndChar

StartChar: U
Encoding: 85 85 55
Width: 600
GlyphClass: 2
Flags: W
LayerCount: 2
Fore
SplineSet
233.5 -4 m 0,0,1
 188.008789062 -4 188.008789062 -4 152 12.5 c 0,2,3
 108.008789062 32 108.008789062 32 90.5 58.5 c 0,4,5
 44.0087890625 127 44.0087890625 127 52 129.5 c 0,6,7
 54.0087890625 130 54.0087890625 130 38.5 221 c 2,8,-1
 38.5 530 l 2,9,10
 39.0087890625 536 39.0087890625 536 40.5 555 c 0,11,12
 42.0087890625 570 42.0087890625 570 48.5 583.5 c 0,13,14
 54.0087890625 597 54.0087890625 597 65 606.5 c 128,-1,15
 76.0087890625 616 76.0087890625 616 91.5 616 c 0,16,17
 116.008789062 616 116.008789062 616 124.5 597 c 0,18,19
 146.102539062 553.813476562 146.102539062 553.813476562 145.5 528 c 2,20,-1
 138.5 228 l 2,21,22
 139.008789062 206 139.008789062 206 138.5 179.5 c 0,23,24
 138.008789062 155 138.008789062 155 146 135.5 c 128,-1,25
 154.008789062 116 154.008789062 116 190 103.5 c 128,-1,26
 226.008789062 91 226.008789062 91 318.508789062 91 c 128,-1,27
 411.008789062 91 411.008789062 91 427.5 110 c 4,28,29
 445.008789062 129 445.008789062 129 452 157.5 c 132,-1,30
 459.008789062 186 459.008789062 186 460 220 c 4,31,32
 460.008789062 237 460.008789062 237 460.5 284 c 6,33,-1
 460.5 531 l 6,34,35
 460.178710938 542.12109375 460.178710938 542.12109375 462.5 556 c 4,36,37
 465.008789062 571 465.008789062 571 470 584.5 c 132,-1,38
 475.008789062 598 475.008789062 598 485 608 c 132,-1,39
 495.008789062 618 495.008789062 618 510.5 618 c 4,40,41
 551.008789062 618 551.008789062 618 553.5 597.5 c 0,42,43
 561.008789062 535 561.008789062 535 561.5 532 c 2,44,-1
 561.5 246 l 2,45,46
 560.94921875 188.83984375 560.94921875 188.83984375 549 143 c 128,-1,47
 537.008789062 97 537.008789062 97 511 64.5 c 128,-1,48
 485.008789062 32 485.008789062 32 448.5 14 c 0,49,50
 411.008789062 -4 411.008789062 -4 233.5 -4 c 0,0,1
488.5 556 m 4,51,52
 489.008789062 560 489.008789062 560 491.5 568 c 4,53,54
 495.008789062 576 495.008789062 576 501.5 584 c 4,55,56
 509.008789062 595 509.008789062 595 510 599 c 132,-1,57
 511.008789062 603 511.008789062 603 501.5 603 c 4,58,59
 497.008789062 603 497.008789062 603 492 598 c 132,-1,60
 487.008789062 593 487.008789062 593 484.5 588 c 4,61,62
 483.008789062 583 483.008789062 583 479 575 c 4,63,64
 474.008789062 565 474.008789062 565 474.5 558 c 4,65,66
 475.008789062 553 475.008789062 553 475.5 548.5 c 4,67,68
 477.008789062 544 477.008789062 544 481.5 544 c 260,69,70
 487.008789062 544 487.008789062 544 487.5 547.5 c 132,-1,71
 488.008789062 551 488.008789062 551 488.5 556 c 4,51,52
80.5 570 m 0,72,73
 85 579 85 579 90 585 c 0,74,75
 96 592 96 592 95.5 598 c 0,76,77
 95 603 95 603 92.5 603 c 256,78,79
 89 603 89 603 83.5 600.5 c 0,80,81
 77 598 77 598 72.5 590 c 0,82,83
 57 569 57 569 55.5 552 c 0,84,85
 53 535 53 535 59.5 535 c 0,86,87
 65 535 65 535 70 545.5 c 0,88,89
 74 556 74 556 80.5 570 c 0,72,73
149.5 48 m 0,90,91
 149 51 149 51 142 57 c 128,-1,92
 135 63 135 63 126.5 72 c 0,93,94
 119 80 119 80 108 93.5 c 0,95,96
 102 100 102 100 90.5 122 c 0,97,98
 85 132 85 132 81 136 c 128,-1,99
 77 140 77 140 74.5 140 c 0,100,101
 71 140 71 140 70.5 133 c 0,102,103
 71 125 71 125 78.5 109.5 c 0,104,105
 87 94 87 94 97.5 79 c 0,106,107
 109 64 109 64 121 53 c 128,-1,108
 133 42 133 42 143.5 42 c 0,109,110
 151 42 151 42 149.5 48 c 0,90,91
172.5 39 m 0,111,112
 173 40 173 40 170 43 c 128,-1,113
 167 46 167 46 164.5 46 c 0,114,115
 159 45 159 45 157.5 42 c 0,116,117
 155 39 155 39 155.5 37 c 0,118,119
 157 34 157 34 157.5 31.5 c 0,120,121
 159 29 159 29 163.5 30 c 0,122,123
 168 30 168 30 172.5 39 c 0,111,112
EndSplineSet
EndChar

StartChar: X
Encoding: 88 88 58
Width: 600
GlyphClass: 2
Flags: W
LayerCount: 2
Fore
SplineSet
299 658.599609375 m 0,0,1
 272.400390625 658.599609375 272.400390625 658.599609375 256.299804688 674.849609375 c 0,2,3
 240.200195312 691.099609375 240.200195312 691.099609375 240.200195312 718.399414062 c 0,4,5
 240.200195312 743.099609375 240.200195312 743.099609375 254.200195312 764.549804688 c 0,6,7
 268.200195312 786 268.200195312 786 299 786 c 0,8,9
 331.200195312 786 331.200195312 786 348 765.849609375 c 0,10,11
 364.799804688 745.700195312 364.799804688 745.700195312 364.799804688 718.399414062 c 0,12,13
 364.799804688 688.5 364.799804688 688.5 345.900390625 673.549804688 c 0,14,15
 327 658.599609375 327 658.599609375 299 658.599609375 c 0,0,1
273.799804688 726.200195312 m 0,16,17
 275.200195312 740.5 275.200195312 740.5 280.799804688 752.200195312 c 0,18,19
 286.400390625 763.899414062 286.400390625 763.899414062 279.400390625 763.899414062 c 0,20,21
 269.600585938 763.899414062 269.600585938 763.899414062 263.299804688 745.049804688 c 0,22,23
 257 726.200195312 257 726.200195312 257 711.899414062 c 0,24,25
 257 698.899414062 257 698.899414062 264 698.899414062 c 0,26,27
 269.600585938 698.899414062 269.600585938 698.899414062 271 708.649414062 c 0,28,29
 272.400390625 718.399414062 272.400390625 718.399414062 273.799804688 726.200195312 c 0,16,17
EndSplineSet
Refer: 90 120 N 1 0 0 1 0.000703118 0 2
EndChar

StartChar: Z
Encoding: 90 90 60
Width: 600
GlyphClass: 2
Flags: W
LayerCount: 2
Fore
SplineSet
302.099609375 662.049804688 m 4,0,1
 275.5 662.049804688 275.5 662.049804688 259.399414062 678.299804688 c 4,2,3
 243.299804688 694.549804688 243.299804688 694.549804688 243.299804688 721.849609375 c 4,4,5
 243.299804688 746.549804688 243.299804688 746.549804688 257.299804688 768 c 4,6,7
 271.299804688 789.450195312 271.299804688 789.450195312 302.099609375 789.450195312 c 4,8,9
 334.299804688 789.450195312 334.299804688 789.450195312 351.099609375 769.299804688 c 4,10,11
 367.899414062 749.150390625 367.899414062 749.150390625 367.899414062 721.849609375 c 4,12,13
 367.899414062 691.950195312 367.899414062 691.950195312 349 677 c 4,14,15
 330.099609375 662.049804688 330.099609375 662.049804688 302.099609375 662.049804688 c 4,0,1
276.899414062 729.650390625 m 4,16,17
 278.299804688 743.950195312 278.299804688 743.950195312 283.899414062 755.650390625 c 4,18,19
 289.5 767.349609375 289.5 767.349609375 282.5 767.349609375 c 4,20,21
 272.700195312 767.349609375 272.700195312 767.349609375 266.399414062 748.5 c 4,22,23
 260.099609375 729.650390625 260.099609375 729.650390625 260.099609375 715.349609375 c 4,24,25
 260.099609375 702.349609375 260.099609375 702.349609375 267.099609375 702.349609375 c 4,26,27
 272.700195312 702.349609375 272.700195312 702.349609375 274.099609375 712.099609375 c 4,28,29
 275.5 721.849609375 275.5 721.849609375 276.899414062 729.650390625 c 4,16,17
EndSplineSet
Refer: 92 122 N 1 0 0 1 0 0 2
EndChar

StartChar: bracketleft
Encoding: 91 91 61
Width: 600
VWidth: 1024
Flags: W
LayerCount: 2
Fore
SplineSet
489.110351562 -82 m 0,0,1
 513.015625 -82 513.015625 -82 530.7109375 -73.5 c 0,2,3
 549.015625 -65 549.015625 -65 548.310546875 -56 c 0,4,5
 549.015625 -10 549.015625 -10 525.91015625 -7 c 0,6,7
 483.015625 -1 483.015625 -1 471.510742188 0 c 0,8,9
 440.015625 2 440.015625 2 409.110351562 5 c 0,10,11
 379.015625 8 379.015625 8 375.510742188 8.5 c 0,12,13
 154.015625 20 154.015625 20 153.7109375 20.5 c 4,14,15
 152.015625 38 152.015625 38 151.310546875 39 c 6,16,-1
 151.310546875 589 l 6,17,18
 380.310546875 593 l 0,19,20
 382.015625 591 382.015625 591 418.7109375 591 c 256,21,22
 427.015625 591 427.015625 591 456.310546875 590 c 0,23,24
 477.015625 589 477.015625 589 493.91015625 588 c 0,25,26
 514.015625 588 514.015625 588 532.310546875 595.5 c 0,27,28
 546.015625 601 546.015625 601 548.310546875 648 c 0,29,30
 549.015625 660 549.015625 660 521.110351562 669 c 0,31,32
 494.015625 678 494.015625 678 445.91015625 678 c 0,33,34
 331.015625 678 331.015625 678 216.310546875 678 c 0,35,36
 177.015625 678 177.015625 678 145.110351562 676.5 c 128,-1,37
 113.015625 675 113.015625 675 92.310546875 672 c 0,38,39
 72.015625 669 72.015625 669 66.7109375 663 c 0,40,41
 62.015625 658 62.015625 658 61.1103515625 641 c 128,-1,42
 60.015625 624 60.015625 624 60.310546875 584.5 c 0,43,44
 60.015625 545 60.015625 545 59.5107421875 477.5 c 0,45,46
 59.015625 359 59.015625 359 57.1103515625 302 c 0,47,48
 54.015625 198 54.015625 198 52.310546875 130.5 c 0,49,50
 51.015625 63 51.015625 63 52.310546875 22 c 0,51,52
 53.015625 -7 53.015625 -7 58.7109375 -25.5 c 0,53,54
 65.015625 -44 65.015625 -44 74.7109375 -55.5 c 0,55,56
 85.015625 -67 85.015625 -67 97.91015625 -72 c 0,57,58
 112.015625 -77 112.015625 -77 129.110351562 -78 c 0,59,60
 158.015625 -80 158.015625 -80 193.110351562 -81 c 0,61,62
 229.015625 -82 229.015625 -82 407.510742188 -82 c 0,63,64
 440.015625 -82 440.015625 -82 462.7109375 -82 c 0,65,66
 486.015625 -82 486.015625 -82 489.110351562 -82 c 0,0,1
497.110351562 659 m 256,67,68
 503.510742188 664 503.510742188 664 514.7109375 660 c 128,-1,69
 525.91015625 656 525.91015625 656 525.91015625 648 c 0,70,71
 525.91015625 638 525.91015625 638 519.510742188 638 c 256,72,73
 513.110351562 638 513.110351562 638 513.110351562 645 c 0,74,75
 511.510742188 649 511.510742188 649 501.110351562 651.5 c 128,-1,76
 490.7109375 654 490.7109375 654 497.110351562 659 c 256,67,68
EndSplineSet
EndChar

StartChar: backslash
Encoding: 92 92 62
Width: 600
VWidth: 1024
Flags: W
LayerCount: 2
Fore
SplineSet
137.599609375 682 m 4,0,1
 147.400390625 682 147.400390625 682 173.299804688 645.5 c 132,-1,2
 199.200195312 609 199.200195312 609 232.799804688 554 c 132,-1,3
 266.400390625 499 266.400390625 499 303.5 433 c 132,-1,4
 340.599609375 367 340.599609375 367 373.5 307 c 132,-1,5
 406.400390625 247 406.400390625 247 430.200195312 202.5 c 132,-1,6
 454 158 454 158 462.400390625 145 c 132,-1,7
 470.799804688 132 470.799804688 132 487.599609375 104 c 132,-1,8
 504.400390625 76 504.400390625 76 521.200195312 45.5 c 132,-1,9
 538 15 538 15 549.900390625 -11 c 132,-1,10
 561.799804688 -37 561.799804688 -37 561.799804688 -45 c 4,11,12
 561.799804688 -52 561.799804688 -52 554.799804688 -58.5 c 132,-1,13
 547.799804688 -65 547.799804688 -65 536.599609375 -69.5 c 132,-1,14
 525.400390625 -74 525.400390625 -74 513.5 -76.5 c 132,-1,15
 501.599609375 -79 501.599609375 -79 491.799804688 -79 c 4,16,17
 472.200195312 -79 472.200195312 -79 455.400390625 -69 c 132,-1,18
 438.599609375 -59 438.599609375 -59 428.799804688 -48 c 4,19,20
 420.400390625 -38 420.400390625 -38 398.700195312 -3 c 132,-1,21
 377 32 377 32 348.299804688 81.5 c 132,-1,22
 319.599609375 131 319.599609375 131 285.299804688 191.5 c 132,-1,23
 251 252 251 252 216.700195312 313.5 c 132,-1,24
 182.400390625 375 182.400390625 375 150.200195312 433.5 c 132,-1,25
 118 492 118 492 93.5 538 c 132,-1,26
 69 584 69 584 53.599609375 613 c 132,-1,27
 38.2001953125 642 38.2001953125 642 38.2001953125 645 c 4,28,29
 38.2001953125 654 38.2001953125 654 51.5 661.5 c 132,-1,30
 64.7998046875 669 64.7998046875 669 81.599609375 673.5 c 132,-1,31
 98.400390625 678 98.400390625 678 115.200195312 680 c 132,-1,32
 132 682 132 682 137.599609375 682 c 4,0,1
101.200195312 641 m 4,33,34
 98.400390625 646 98.400390625 646 87.900390625 644 c 132,-1,35
 77.400390625 642 77.400390625 642 77.400390625 635 c 4,36,37
 77.400390625 629 77.400390625 629 84.400390625 614 c 132,-1,38
 91.400390625 599 91.400390625 599 101.200195312 583 c 132,-1,39
 111 567 111 567 120.099609375 553.5 c 132,-1,40
 129.200195312 540 129.200195312 540 132 536 c 4,41,42
 136.200195312 531 136.200195312 531 143.200195312 530.5 c 132,-1,43
 150.200195312 530 150.200195312 530 153 531 c 4,44,45
 160 532 160 532 155.099609375 545 c 132,-1,46
 150.200195312 558 150.200195312 558 140.400390625 575 c 132,-1,47
 130.599609375 592 130.599609375 592 118.700195312 610.5 c 132,-1,48
 106.799804688 629 106.799804688 629 101.200195312 641 c 4,33,34
EndSplineSet
EndChar

StartChar: bracketright
Encoding: 93 93 63
Width: 600
VWidth: 1024
Flags: W
LayerCount: 2
Fore
SplineSet
110.889648438 -82 m 4,0,1
 86.984375 -82 86.984375 -82 69.2890625 -73.5 c 4,2,3
 50.984375 -65 50.984375 -65 51.689453125 -56 c 4,4,5
 50.984375 -10 50.984375 -10 74.08984375 -7 c 4,6,7
 116.984375 -1 116.984375 -1 128.489257812 0 c 4,8,9
 159.984375 2 159.984375 2 190.889648438 5 c 4,10,11
 220.984375 8 220.984375 8 224.489257812 8.5 c 4,12,13
 445.984375 20 445.984375 20 446.2890625 20.5 c 4,14,15
 447.984375 38 447.984375 38 448.689453125 39 c 6,16,-1
 448.689453125 589 l 6,17,18
 219.689453125 593 l 4,19,20
 217.984375 591 217.984375 591 181.2890625 591 c 260,21,22
 172.984375 591 172.984375 591 143.689453125 590 c 4,23,24
 122.984375 589 122.984375 589 106.08984375 588 c 4,25,26
 85.984375 588 85.984375 588 67.689453125 595.5 c 4,27,28
 53.984375 601 53.984375 601 51.689453125 648 c 4,29,30
 50.984375 660 50.984375 660 78.8896484375 669 c 4,31,32
 105.984375 678 105.984375 678 154.08984375 678 c 4,33,34
 268.984375 678 268.984375 678 383.689453125 678 c 4,35,36
 422.984375 678 422.984375 678 454.889648438 676.5 c 132,-1,37
 486.984375 675 486.984375 675 507.689453125 672 c 4,38,39
 527.984375 669 527.984375 669 533.2890625 663 c 4,40,41
 537.984375 658 537.984375 658 538.889648438 641 c 132,-1,42
 539.984375 624 539.984375 624 539.689453125 584.5 c 4,43,44
 539.984375 545 539.984375 545 540.489257812 477.5 c 4,45,46
 540.984375 359 540.984375 359 542.889648438 302 c 4,47,48
 545.984375 198 545.984375 198 547.689453125 130.5 c 4,49,50
 548.984375 63 548.984375 63 547.689453125 22 c 4,51,52
 546.984375 -7 546.984375 -7 541.2890625 -25.5 c 4,53,54
 534.984375 -44 534.984375 -44 525.2890625 -55.5 c 4,55,56
 514.984375 -67 514.984375 -67 502.08984375 -72 c 4,57,58
 487.984375 -77 487.984375 -77 470.889648438 -78 c 4,59,60
 441.984375 -80 441.984375 -80 406.889648438 -81 c 4,61,62
 370.984375 -82 370.984375 -82 192.489257812 -82 c 4,63,64
 159.984375 -82 159.984375 -82 137.2890625 -82 c 4,65,66
 113.984375 -82 113.984375 -82 110.889648438 -82 c 4,0,1
102.889648438 659 m 260,67,68
 96.4892578125 664 96.4892578125 664 85.2890625 660 c 132,-1,69
 74.08984375 656 74.08984375 656 74.08984375 648 c 4,70,71
 74.08984375 638 74.08984375 638 80.4892578125 638 c 260,72,73
 86.8896484375 638 86.8896484375 638 86.8896484375 645 c 4,74,75
 88.4892578125 649 88.4892578125 649 98.8896484375 651.5 c 132,-1,76
 109.2890625 654 109.2890625 654 102.889648438 659 c 260,67,68
EndSplineSet
EndChar

StartChar: asciicircum
Encoding: 94 94 64
Width: 600
VWidth: 1024
Flags: W
LayerCount: 2
Fore
SplineSet
10.4404296875 273 m 5,0,-1
 257.8203125 736 l 5,1,-1
 315.959960938 736 l 5,2,-1
 589.559570312 273 l 5,3,-1
 498.360351562 273 l 5,4,-1
 288.599609375 641 l 5,5,-1
 101.639648438 273 l 5,6,-1
 10.4404296875 273 l 5,0,-1
EndSplineSet
EndChar

StartChar: underscore
Encoding: 95 95 65
Width: 600
VWidth: 1024
Flags: W
LayerCount: 2
Fore
SplineSet
575.400390625 -161.299804688 m 5,0,-1
 24.599609375 -161.299804688 l 5,1,-1
 24.599609375 -88.7001953125 l 5,2,-1
 575.400390625 -88.7001953125 l 5,3,-1
 575.400390625 -161.299804688 l 5,0,-1
EndSplineSet
EndChar

StartChar: grave
Encoding: 96 96 66
Width: 600
VWidth: 1024
Flags: W
LayerCount: 2
Fore
SplineSet
304.799804688 792.150390625 m 5,0,1
 318 766.849609375 318 766.849609375 339 736.599609375 c 132,-1,2
 360 706.349609375 360 706.349609375 382.200195312 676.650390625 c 132,-1,3
 404.400390625 646.950195312 404.400390625 646.950195312 423.599609375 626.049804688 c 5,4,-1
 423.599609375 612.849609375 l 5,5,-1
 350.400390625 612.849609375 l 5,6,7
 330 628.25 330 628.25 304.200195312 650.25 c 132,-1,8
 278.400390625 672.25 278.400390625 672.25 253.200195312 696.450195312 c 132,-1,9
 228 720.650390625 228 720.650390625 207.599609375 743.200195312 c 132,-1,10
 187.200195312 765.75 187.200195312 765.75 176.400390625 781.150390625 c 5,11,-1
 176.400390625 792.150390625 l 5,12,-1
 304.799804688 792.150390625 l 5,0,1
EndSplineSet
EndChar

StartChar: g
Encoding: 103 103 73
Width: 600
GlyphClass: 2
Flags: W
LayerCount: 2
Fore
SplineSet
298.75 1 m 0,0,1
 222.950195312 1 222.950195312 1 174.549804688 34 c 128,-1,2
 125.950195312 67 125.950195312 67 98.3505859375 117 c 128,-1,3
 70.9501953125 167 70.9501953125 167 60.5498046875 225 c 128,-1,4
 49.9501953125 283 49.9501953125 283 50.3505859375 334 c 0,5,6
 49.9501953125 390 49.9501953125 390 66.5498046875 443.5 c 128,-1,7
 82.9501953125 497 82.9501953125 497 116.950195312 538.5 c 128,-1,8
 150.950195312 580 150.950195312 580 205.75 605.5 c 0,9,10
 259.950195312 631 259.950195312 631 337.150390625 631 c 0,11,12
 369.950195312 631 369.950195312 631 404.950195312 625 c 128,-1,13
 439.950195312 619 439.950195312 619 469.75 602.5 c 0,14,15
 498.950195312 586 498.950195312 586 518.950195312 558 c 128,-1,16
 538.950195312 530 538.950195312 530 538.75 486 c 0,17,18
 538.950195312 470 538.950195312 470 530.950195312 460.5 c 128,-1,19
 522.950195312 451 522.950195312 451 511.75 445.5 c 0,20,21
 499.950195312 440 499.950195312 440 488.350585938 438.5 c 0,22,23
 475.950195312 437 475.950195312 437 469.150390625 437 c 0,24,25
 451.950195312 437 451.950195312 437 437.350585938 447 c 0,26,27
 421.950195312 457 421.950195312 457 422.350585938 486 c 0,28,29
 421.950195312 509 421.950195312 509 412.75 521 c 0,30,31
 402.950195312 533 402.950195312 533 389.950195312 538.5 c 128,-1,32
 376.950195312 544 376.950195312 544 364.150390625 545 c 0,33,34
 351.950195312 546 351.950195312 546 344.350585938 546 c 0,35,36
 312.950195312 546 312.950195312 546 271.950195312 531.5 c 0,37,38
 233.318359375 517.837890625 233.318359375 517.837890625 209.25 488 c 4,39,40
 172.950195312 443 172.950195312 443 165.75 415 c 0,41,42
 150.950195312 361 150.950195312 361 153.75 320 c 0,43,44
 157.950195312 263 157.950195312 263 157.950195312 251 c 0,45,46
 157.950195312 248 157.950195312 248 189.049804688 175 c 0,47,48
 203.950195312 139 203.950195312 139 242.950195312 113.5 c 128,-1,49
 281.950195312 88 281.950195312 88 325.150390625 88 c 0,50,51
 352.950195312 88 352.950195312 88 373.150390625 103 c 0,52,53
 393.950195312 118 393.950195312 118 407.350585938 140 c 128,-1,54
 420.950195312 162 420.950195312 162 428.350585938 186.5 c 128,-1,55
 435.950195312 211 435.950195312 211 434.350585938 230 c 0,56,57
 432.950195312 246 432.950195312 246 410.950195312 247.5 c 128,-1,58
 388.950195312 249 388.950195312 249 361.150390625 249 c 2,59,-1
 286.75 249 l 2,60,61
 279.950195312 249 279.950195312 249 273.549804688 255 c 0,62,63
 267.950195312 261 267.950195312 261 263.950195312 269.5 c 128,-1,64
 259.950195312 278 259.950195312 278 257.950195312 287 c 128,-1,65
 255.950195312 296 255.950195312 296 255.549804688 302 c 0,66,67
 255.950195312 318 255.950195312 318 268.150390625 330.5 c 0,68,69
 281.135742188 343.181640625 281.135742188 343.181640625 308.350585938 343 c 2,70,-1
 458.350585938 342 l 2,71,72
 473.950195312 342 473.950195312 342 490.150390625 336.5 c 0,73,74
 505.950195312 331 505.950195312 331 518.950195312 320.5 c 128,-1,75
 531.950195312 310 531.950195312 310 539.950195312 293.5 c 128,-1,76
 547.950195312 277 547.950195312 277 548.350585938 254 c 0,77,78
 547.950195312 219 547.950195312 219 548.950195312 189 c 128,-1,79
 549.950195312 159 549.950195312 159 549.549804688 115 c 0,80,81
 549.950195312 81 549.950195312 81 546.549804688 60 c 0,82,83
 543.950195312 39 543.950195312 39 536.350585938 27 c 128,-1,84
 528.950195312 15 528.950195312 15 518.950195312 10.5 c 128,-1,85
 508.950195312 6 508.950195312 6 494.350585938 6 c 0,86,87
 473.950195312 6 473.950195312 6 464.350585938 18.5 c 128,-1,88
 454.950195312 31 454.950195312 31 450.549804688 46 c 128,-1,89
 445.950195312 61 445.950195312 61 445.150390625 73.5 c 0,90,91
 443.950195312 86 443.950195312 86 440.350585938 86 c 256,92,93
 436.950195312 86 436.950195312 86 429.549804688 72.5 c 128,-1,94
 421.950195312 59 421.950195312 59 406.75 43.5 c 0,95,96
 390.950195312 28 390.950195312 28 365.950195312 14.5 c 128,-1,97
 340.950195312 1 340.950195312 1 298.75 1 c 0,0,1
184.75 82 m 0,98,99
 184.75 87 184.75 87 165.549804688 110 c 0,100,101
 157.150390625 121 157.150390625 121 148.75 135.5 c 128,-1,102
 140.350585938 150 140.350585938 150 134.350585938 164 c 128,-1,103
 128.350585938 178 128.350585938 178 124.75 190 c 128,-1,104
 121.150390625 202 121.150390625 202 122.350585938 206 c 0,105,106
 123.549804688 211 123.549804688 211 119.950195312 213.5 c 128,-1,107
 116.350585938 216 116.350585938 216 115.150390625 216 c 0,108,109
 105.549804688 216 105.549804688 216 103.150390625 205 c 256,110,111
 100.75 194 100.75 194 107.350585938 173 c 128,-1,112
 113.950195312 152 113.950195312 152 125.350585938 131 c 128,-1,113
 136.75 110 136.75 110 150.549804688 94 c 128,-1,114
 164.350585938 78 164.350585938 78 175.150390625 77 c 0,115,116
 183.549804688 75 183.549804688 75 184.75 82 c 0,98,99
500.350585938 31 m 0,117,118
 500.350585938 39 500.350585938 39 490.75 44.5 c 128,-1,119
 481.150390625 50 481.150390625 50 479.950195312 62 c 0,120,121
 479.950195312 65 479.950195312 65 479.350585938 73 c 128,-1,122
 478.75 81 478.75 81 472.75 81 c 256,123,124
 466.75 81 466.75 81 465.549804688 74.5 c 128,-1,125
 464.350585938 68 464.350585938 68 464.350585938 63 c 256,126,127
 464.350585938 58 464.350585938 58 466.150390625 50.5 c 128,-1,128
 467.950195312 43 467.950195312 43 471.549804688 36.5 c 128,-1,129
 475.150390625 30 475.150390625 30 479.950195312 25 c 128,-1,130
 484.75 20 484.75 20 490.75 20 c 256,131,132
 496.75 20 496.75 20 498.549804688 24 c 128,-1,133
 500.350585938 28 500.350585938 28 500.350585938 31 c 0,117,118
208.75 65 m 0,134,135
 209.950195312 68 209.950195312 68 206.950195312 70.5 c 128,-1,136
 203.950195312 73 203.950195312 73 201.549804688 73 c 0,137,138
 196.75 74 196.75 74 194.950195312 71 c 128,-1,139
 193.150390625 68 193.150390625 68 191.950195312 66 c 0,140,141
 190.75 61 190.75 61 193.75 59.5 c 128,-1,142
 196.75 58 196.75 58 199.150390625 58 c 0,143,144
 206.350585938 58 206.350585938 58 208.75 65 c 0,134,135
EndSplineSet
EndChar

StartChar: h
Encoding: 104 104 74
Width: 600
GlyphClass: 2
Flags: W
LayerCount: 2
Fore
SplineSet
77.5 0 m 1,0,-1
 77.5 646 l 5,1,-1
 167.5 646 l 5,2,-1
 167.5 400 l 2,3,4
 167.803468208 378.150289017 167.803468208 378.150289017 166 352 c 0,5,6
 164 323 164 323 163.5 306 c 1,7,-1
 168.5 306 l 1,8,9
 186 339 186 339 211 360 c 128,-1,10
 236 381 236 381 268.5 391.5 c 0,11,12
 300 402 300 402 336.5 402 c 0,13,14
 420 402 420 402 471 355.5 c 0,15,16
 522.5 308.544117647 522.5 308.544117647 522.5 206 c 2,17,-1
 522.5 0 l 1,18,-1
 432.5 0 l 1,19,-1
 432.5 188 l 2,20,21
 432 261 432 261 401.5 295 c 0,22,23
 370 329 370 329 313.5 329 c 0,24,25
 270 329 270 329 236.5 306 c 0,26,27
 193 276 193 276 185.5 239.5 c 0,28,29
 167.5 141.271428571 167.5 141.271428571 167.5 134 c 2,30,-1
 167.5 0 l 1,31,-1
 77.5 0 l 1,0,-1
EndSplineSet
EndChar

StartChar: i
Encoding: 105 105 75
Width: 600
GlyphClass: 2
Flags: W
LayerCount: 2
Fore
SplineSet
230.5 576 m 0,0,1
 190.5 576 190.5 576 162 604 c 128,-1,2
 133.5 632 133.5 632 133.5 676 c 0,3,4
 133.5 700 133.5 700 142 721.5 c 128,-1,5
 150.5 743 150.5 743 165.5 758.5 c 128,-1,6
 180.5 774 180.5 774 201.5 783.5 c 128,-1,7
 222.5 793 222.5 793 247.5 793 c 0,8,9
 267.5 793 267.5 793 284.5 784.5 c 128,-1,10
 301.5 776 301.5 776 313.5 761 c 128,-1,11
 325.5 746 325.5 746 332 727 c 128,-1,12
 338.5 708 338.5 708 338.5 687 c 0,13,14
 338.5 660 338.5 660 330 639.5 c 128,-1,15
 321.5 619 321.5 619 306.5 605 c 128,-1,16
 291.5 591 291.5 591 272 583.5 c 128,-1,17
 252.5 576 252.5 576 230.5 576 c 0,0,1
193.5 749 m 0,18,19
 200.5 756 200.5 756 202 761 c 128,-1,20
 203.5 766 203.5 766 201.5 766 c 0,21,22
 193.5 766 193.5 766 184.5 758.5 c 128,-1,23
 175.5 751 175.5 751 168 740.5 c 128,-1,24
 160.5 730 160.5 730 155.5 718 c 128,-1,25
 150.5 706 150.5 706 150.5 696 c 0,26,27
 150.5 694 150.5 694 152 688 c 128,-1,28
 153.5 682 153.5 682 156.5 682 c 0,29,30
 160.5 682 160.5 682 166.5 704 c 0,31,32
 169.5 718 169.5 718 177.5 729.5 c 128,-1,33
 185.5 741 185.5 741 193.5 749 c 0,18,19
234.5 633 m 0,34,35
 246.5 633 246.5 633 263 647 c 128,-1,36
 279.5 661 279.5 661 279.5 687 c 0,37,38
 279.5 707 279.5 707 269 720.5 c 128,-1,39
 258.5 734 258.5 734 241.5 734 c 256,40,41
 224.5 734 224.5 734 210.5 720.5 c 128,-1,42
 196.5 707 196.5 707 196.5 683 c 256,43,44
 196.5 659 196.5 659 207.5 646 c 128,-1,45
 218.5 633 218.5 633 234.5 633 c 0,34,35
47 0 m 5,46,-1
 47 60 l 5,47,-1
 257.099609375 75 l 5,48,-1
 257.099609375 461 l 5,49,-1
 64.599609375 474 l 5,50,-1
 64.599609375 536 l 5,51,-1
 356.099609375 536 l 5,52,-1
 356.099609375 75 l 5,53,-1
 553 60 l 5,54,-1
 553 0 l 5,55,-1
 47 0 l 5,46,-1
EndSplineSet
EndChar

StartChar: j
Encoding: 106 106 76
Width: 600
GlyphClass: 2
Flags: W
LayerCount: 2
Fore
SplineSet
253 4 m 0,0,1
 296.5 -3 296.5 -3 317.5 16 c 128,-1,2
 338.5 35 338.5 35 348 64 c 128,-1,3
 357.5 93 357.5 93 359 130 c 128,-1,4
 360.5 167 360.5 167 360.5 206 c 2,5,-1
 360.5 541 l 1,6,-1
 520.5 541 l 2,7,8
 542.5 541 542.5 541 550.5 552 c 128,-1,9
 558.5 563 558.5 563 558.5 580 c 256,10,11
 558.5 597 558.5 597 552 607 c 128,-1,12
 545.5 617 545.5 617 520.5 617 c 2,13,-1
 74.5 617 l 2,14,15
 56.5 617 56.5 617 49 608.5 c 128,-1,16
 41.5 600 41.5 600 41.5 586 c 0,17,18
 41.5 566 41.5 566 48 553.5 c 128,-1,19
 54.5 541 54.5 541 70.5 541 c 2,20,-1
 257.5 541 l 1,21,-1
 257.5 156 l 2,22,23
 257.5 119 257.5 119 255 96 c 128,-1,24
 252.5 73 252.5 73 241.5 73 c 2,25,-1
 233.5 73 l 1,26,-1
 150.5 71 l 0,27,28
 141.5 56 141.5 56 142.5 4 c 0,29,-1
 253 4 l 0,0,1
538.5 587 m 0,30,31
 538.5 592 538.5 592 537 598.5 c 128,-1,32
 535.5 605 535.5 605 537.5 605 c 0,33,34
 542.5 605 542.5 605 546 597.5 c 128,-1,35
 549.5 590 549.5 590 549.5 579 c 0,36,37
 549.5 572 549.5 572 547 564.5 c 128,-1,38
 544.5 557 544.5 557 539.5 557 c 256,39,40
 534.5 557 534.5 557 536.5 567.5 c 128,-1,41
 538.5 578 538.5 578 538.5 587 c 0,30,31
312.053710938 33.8388671875 m 0,42,43
 299.5 50 299.5 50 294.91015625 51.2021484375 c 0,44,45
 278.704101562 44.20703125 278.704101562 44.20703125 267.680664062 52.5595703125 c 0,46,47
 260.5 58 260.5 58 256.821289062 63.1533203125 c 0,48,49
 253.5 69 253.5 69 255.337890625 71.267578125 c 0,50,51
 257.5 77 257.5 77 267.341796875 72.251953125 c 0,52,53
 281.5 66 281.5 66 281.822265625 65.6904296875 c 0,54,55
 289.5 83 289.5 83 294.903320312 78.6474609375 c 0,56,57
 303.5 72 303.5 72 311.923828125 63.455078125 c 128,-1,58
 320.5 55 320.5 55 325.138671875 47.486328125 c 0,59,60
 329.5 40 329.5 40 327.861328125 35.599609375 c 0,61,62
 327.5 33 327.5 33 320.83984375 32.703125 c 0,63,64
 313.5 32 313.5 32 312.053710938 33.8388671875 c 0,42,43
EndSplineSet
EndChar

StartChar: k
Encoding: 107 107 77
Width: 600
GlyphClass: 2
Flags: W
LayerCount: 2
Fore
SplineSet
109.18359375 0 m 4,0,1
 98.900390625 0 98.900390625 0 85.68359375 11 c 4,2,3
 70.900390625 22 70.900390625 22 66.783203125 38.5 c 4,4,5
 61.900390625 55 61.900390625 55 61.8837890625 73 c 132,-1,6
 61.900390625 91 61.900390625 91 61.8837890625 105 c 6,7,-1
 61.8837890625 204 l 5,8,-1
 60.4833984375 402 l 5,9,-1
 60.4833984375 501 l 6,10,11
 60.900390625 528 60.900390625 528 63.283203125 554 c 4,12,13
 65.900390625 575 65.900390625 575 74.4833984375 590 c 132,-1,14
 82.900390625 605 82.900390625 605 98.9833984375 613 c 132,-1,15
 114.900390625 621 114.900390625 621 115.68359375 621 c 4,16,17
 115.900390625 621 115.900390625 621 140.583984375 602.5 c 4,18,19
 165.900390625 583 165.900390625 583 165.083984375 554 c 4,20,21
 164.900390625 549 164.900390625 549 164.383789062 533 c 132,-1,22
 163.900390625 517 163.900390625 517 163.68359375 493.5 c 4,23,24
 163.900390625 470 163.900390625 470 163.68359375 446.5 c 4,25,26
 163.900390625 423 163.900390625 423 163.68359375 403.5 c 4,27,28
 163.900390625 384 163.900390625 384 165.783203125 371 c 4,29,30
 167.900390625 358 167.900390625 358 170.68359375 358 c 4,31,32
 175.900390625 358 175.900390625 358 193.083984375 377 c 4,33,34
 209.900390625 396 209.900390625 396 233.68359375 425 c 4,35,36
 256.900390625 454 256.900390625 454 284.283203125 487 c 4,37,38
 330.900390625 546 330.900390625 546 334.483398438 549 c 4,39,40
 360.900390625 578 360.900390625 578 384.18359375 597 c 4,41,42
 406.900390625 616 406.900390625 616 422.68359375 616 c 4,43,44
 450.68359375 617 l 4,45,46
 464.900390625 610 464.900390625 610 478.68359375 604 c 4,47,48
 492.900390625 598 492.900390625 598 495.68359375 589 c 4,49,50
 503.443359375 565.426757812 503.443359375 565.426757812 500.541992188 564 c 4,51,52
 495.900390625 562 495.900390625 562 476.18359375 538.5 c 4,53,54
 451.900390625 510 451.900390625 510 434.883789062 492 c 132,-1,55
 417.900390625 474 417.900390625 474 391.18359375 437.5 c 4,56,57
 384.900390625 429 384.900390625 429 344.483398438 385 c 4,58,59
 321.900390625 361 321.900390625 361 312.18359375 344 c 4,60,61
 301.900390625 327 301.900390625 327 302.283203125 324 c 4,62,63
 301.900390625 320 301.900390625 320 319.783203125 300.5 c 4,64,65
 336.900390625 281 336.900390625 281 363.883789062 253.5 c 4,66,67
 389.900390625 226 389.900390625 226 420.583984375 194 c 4,68,69
 449.900390625 162 449.900390625 162 477.283203125 133 c 4,70,71
 503.900390625 104 503.900390625 104 521.383789062 81 c 4,72,73
 542.900390625 52 542.900390625 52 538.883789062 48 c 4,74,75
 532.900390625 42 532.900390625 42 528.983398438 26 c 4,76,77
 524.900390625 12 524.900390625 12 524.283203125 11 c 4,78,79
 522.900390625 9 522.900390625 9 495.18359375 2 c 4,80,81
 482.900390625 -1 482.900390625 -1 471.68359375 -1 c 4,82,83
 449.900390625 -1 449.900390625 -1 431.083984375 18 c 4,84,85
 400.900390625 47 400.900390625 47 393.283203125 57 c 4,86,87
 368.900390625 86 368.900390625 86 368.083984375 87.5 c 4,88,89
 366.900390625 89 366.900390625 89 331.083984375 136 c 4,90,91
 252.900390625 237 252.900390625 237 246.283203125 245 c 4,92,93
 218.900390625 272 218.900390625 272 211.283203125 282 c 4,94,95
 207.900390625 286 207.900390625 286 200.083984375 287 c 4,96,97
 193.938476562 287.994140625 193.938476562 287.994140625 187.483398438 282 c 6,98,-1
 173.483398438 269 l 6,99,100
 162.283203125 259.330078125 162.283203125 259.330078125 162.283203125 237 c 6,101,-1
 162.283203125 214 l 5,102,-1
 163.68359375 125 l 5,103,-1
 163.68359375 102 l 6,104,105
 163.900390625 53 163.900390625 53 141.283203125 25.5 c 4,106,107
 118.900390625 0 118.900390625 0 109.18359375 0 c 4,0,1
87.083984375 566 m 4,108,109
 94.083984375 565 94.083984375 565 101.083984375 568.5 c 132,-1,110
 108.083984375 572 108.083984375 572 114.383789062 577.5 c 132,-1,111
 120.68359375 583 120.68359375 583 125.583984375 589 c 132,-1,112
 130.483398438 595 130.483398438 595 131.883789062 599 c 4,113,114
 133.283203125 602 133.283203125 602 129.083984375 604.5 c 132,-1,115
 124.883789062 607 124.883789062 607 120.68359375 607 c 4,116,117
 115.083984375 607 115.083984375 607 108.783203125 602.5 c 132,-1,118
 102.483398438 598 102.483398438 598 96.18359375 591.5 c 132,-1,119
 89.8837890625 585 89.8837890625 585 86.3837890625 579 c 132,-1,120
 82.8837890625 573 82.8837890625 573 82.8837890625 570 c 4,121,122
 82.8837890625 566 82.8837890625 566 87.083984375 566 c 4,108,109
386.283203125 558 m 4,123,124
 390.18359375 558 390.18359375 558 398.18359375 562.5 c 132,-1,125
 406.18359375 567 406.18359375 567 412.883789062 573.5 c 4,126,127
 420.18359375 580 420.18359375 580 424.783203125 586.5 c 132,-1,128
 429.18359375 593 429.18359375 593 428.283203125 597 c 4,129,130
 428.18359375 600 428.18359375 600 422.68359375 601 c 4,131,132
 418.18359375 602 418.18359375 602 410.083984375 597.5 c 4,133,134
 401.18359375 593 401.18359375 593 393.983398438 586.5 c 4,135,136
 386.18359375 580 386.18359375 580 380.68359375 573.5 c 132,-1,137
 375.18359375 567 375.18359375 567 376.483398438 564 c 4,138,139
 379.18359375 559 379.18359375 559 386.283203125 558 c 4,123,124
108.083984375 81 m 4,140,141
 108.083984375 85 108.083984375 85 108.083984375 97.5 c 132,-1,142
 108.083984375 110 108.083984375 110 106.68359375 123.5 c 132,-1,143
 105.283203125 137 105.283203125 137 102.483398438 147.5 c 132,-1,144
 99.68359375 158 99.68359375 158 94.083984375 158 c 4,145,146
 89.8837890625 158 89.8837890625 158 86.3837890625 153 c 132,-1,147
 82.8837890625 148 82.8837890625 148 81.4833984375 141 c 132,-1,148
 80.083984375 134 80.083984375 134 79.3837890625 127.5 c 132,-1,149
 78.68359375 121 78.68359375 121 78.68359375 119 c 4,150,151
 78.68359375 115 78.68359375 115 78.68359375 104.5 c 132,-1,152
 78.68359375 94 78.68359375 94 80.783203125 83 c 132,-1,153
 82.8837890625 72 82.8837890625 72 87.083984375 63 c 132,-1,154
 91.283203125 54 91.283203125 54 99.68359375 54 c 4,155,156
 102.483398438 54 102.483398438 54 104.583984375 58 c 132,-1,157
 106.68359375 62 106.68359375 62 107.383789062 66.5 c 132,-1,158
 108.083984375 71 108.083984375 71 108.083984375 75.5 c 132,-1,159
 108.083984375 80 108.083984375 80 108.083984375 81 c 4,140,141
475.883789062 21 m 4,160,161
 476.18359375 24 476.18359375 24 471.68359375 30.5 c 132,-1,162
 467.18359375 37 467.18359375 37 461.18359375 43 c 132,-1,163
 455.18359375 49 455.18359375 49 447.883789062 54 c 4,164,165
 441.18359375 59 441.18359375 59 436.68359375 59 c 4,166,167
 434.18359375 59 434.18359375 59 432.483398438 55.5 c 4,168,169
 431.18359375 52 431.18359375 52 431.083984375 50 c 4,170,171
 431.18359375 47 431.18359375 47 434.583984375 41 c 132,-1,172
 438.18359375 35 438.18359375 35 442.983398438 29 c 4,173,174
 448.18359375 23 448.18359375 23 454.883789062 19 c 4,175,176
 462.18359375 15 462.18359375 15 467.483398438 15 c 4,177,178
 476.18359375 15 476.18359375 15 475.883789062 21 c 4,160,161
120.68359375 31 m 4,179,180
 123.483398438 36 123.483398438 36 117.883789062 41 c 132,-1,181
 112.283203125 46 112.283203125 46 105.283203125 46 c 4,182,183
 96.8837890625 46 96.8837890625 46 91.9833984375 41 c 132,-1,184
 87.083984375 36 87.083984375 36 89.8837890625 31 c 4,185,186
 95.4833984375 21 95.4833984375 21 105.283203125 21 c 260,187,188
 115.083984375 21 115.083984375 21 120.68359375 31 c 4,179,180
EndSplineSet
EndChar

StartChar: l
Encoding: 108 108 78
Width: 600
GlyphClass: 2
Flags: W
LayerCount: 2
Fore
SplineSet
92.9775390625 0 m 2,0,1
 81.498046875 0 81.498046875 0 73.4775390625 8 c 0,2,3
 64.9775390625 15.5732421875 64.9775390625 15.5732421875 64.9775390625 27 c 2,4,-1
 64.9775390625 553 l 2,5,6
 65.498046875 558 65.498046875 558 66.4775390625 575 c 0,7,8
 67.498046875 586 67.498046875 586 73.9775390625 595 c 0,9,10
 79.498046875 604 79.498046875 604 91.4775390625 610 c 128,-1,11
 103.498046875 616 103.498046875 616 122.977539062 616 c 0,12,13
 143.498046875 616 143.498046875 616 162.477539062 598 c 0,14,15
 178.977539062 581.521484375 178.977539062 581.521484375 178.977539062 560 c 2,16,-1
 178.977539062 121 l 2,17,18
 178.498046875 103 178.498046875 103 255.477539062 98.5 c 0,19,20
 331.498046875 94 331.498046875 94 340.977539062 94 c 0,21,22
 392.498046875 94 392.498046875 94 406.477539062 94.5 c 128,-1,23
 420.498046875 95 420.498046875 95 432.977539062 95.5 c 0,24,25
 456.498046875 96 456.498046875 96 480.477539062 96.5 c 0,26,27
 493.498046875 97 493.498046875 97 510.977539062 97 c 0,28,29
 525.498046875 97 525.498046875 97 529.977539062 82.5 c 0,30,31
 535.498046875 68 535.498046875 68 534.977539062 54 c 0,32,33
 535.498046875 34 535.498046875 34 522.477539062 16.5 c 0,34,35
 510.498046875 -1 510.498046875 -1 495.977539062 -1 c 2,36,-1
 426.977539062 -1 l 1,37,-1
 169.977539062 0 l 1,38,-1
 92.9775390625 0 l 2,0,1
82.9775390625 549 m 0,39,40
 85.9775390625 549 85.9775390625 549 90.4775390625 555.5 c 128,-1,41
 94.9775390625 562 94.9775390625 562 99.4775390625 571 c 128,-1,42
 103.977539062 580 103.977539062 580 107.477539062 588 c 128,-1,43
 110.977539062 596 110.977539062 596 110.977539062 599 c 0,44,45
 110.977539062 604 110.977539062 604 102.977539062 604 c 0,46,47
 97.9775390625 604 97.9775390625 604 92.9775390625 597.5 c 128,-1,48
 87.9775390625 591 87.9775390625 591 84.4775390625 583 c 128,-1,49
 80.9775390625 575 80.9775390625 575 78.9775390625 567 c 128,-1,50
 76.9775390625 559 76.9775390625 559 77.9775390625 555 c 0,51,52
 77.9775390625 549 77.9775390625 549 82.9775390625 549 c 0,39,40
93.9775390625 59 m 0,53,54
 98.9775390625 59 98.9775390625 59 100.977539062 70 c 128,-1,55
 102.977539062 81 102.977539062 81 103.977539062 96.5 c 128,-1,56
 104.977539062 112 104.977539062 112 104.477539062 128.5 c 128,-1,57
 103.977539062 145 103.977539062 145 103.977539062 155 c 0,58,59
 103.977539062 159 103.977539062 159 103.477539062 165 c 128,-1,60
 102.977539062 171 102.977539062 171 101.477539062 177 c 128,-1,61
 99.9775390625 183 99.9775390625 183 97.4775390625 187 c 128,-1,62
 94.9775390625 191 94.9775390625 191 89.9775390625 191 c 0,63,64
 86.9775390625 191 86.9775390625 191 85.4775390625 182.5 c 128,-1,65
 83.9775390625 174 83.9775390625 174 82.9775390625 163 c 128,-1,66
 81.9775390625 152 81.9775390625 152 81.9775390625 142.5 c 128,-1,67
 81.9775390625 133 81.9775390625 133 81.9775390625 130 c 256,68,69
 81.9775390625 127 81.9775390625 127 82.4775390625 115.5 c 128,-1,70
 82.9775390625 104 82.9775390625 104 84.4775390625 91.5 c 128,-1,71
 85.9775390625 79 85.9775390625 79 87.9775390625 69 c 128,-1,72
 89.9775390625 59 89.9775390625 59 93.9775390625 59 c 0,53,54
110.977539062 30 m 0,73,74
 110.977539062 41 110.977539062 41 103.977539062 41 c 0,75,76
 93.9775390625 41 93.9775390625 41 93.9775390625 30 c 0,77,78
 93.9775390625 22 93.9775390625 22 101.977539062 22 c 0,79,80
 104.977539062 22 104.977539062 22 107.977539062 24 c 128,-1,81
 110.977539062 26 110.977539062 26 110.977539062 30 c 0,73,74
EndSplineSet
EndChar

StartChar: m
Encoding: 109 109 79
Width: 600
GlyphClass: 2
Flags: W
LayerCount: 2
Fore
SplineSet
88.7900390625 -21.232421875 m 4,0,1
 74.712890625 -21 74.712890625 -21 66.2109375 -15.6796875 c 4,2,3
 57.712890625 -10 57.712890625 -10 53.509765625 -1.037109375 c 4,4,5
 48.712890625 11 48.712890625 11 47.865234375 19.6640625 c 4,6,7
 46.712890625 41 46.712890625 41 46.4541015625 44.404296875 c 6,8,-1
 46.4541015625 518.078125 l 6,9,10
 46.712890625 529 46.712890625 529 46.9248046875 542.313476562 c 4,11,12
 47.712890625 555 47.712890625 555 51.1572265625 566.548828125 c 132,-1,13
 54.712890625 578 54.712890625 578 63.388671875 585.23046875 c 4,14,15
 71.712890625 593 71.712890625 593 86.908203125 592.803710938 c 4,16,17
 105.712890625 593 105.712890625 593 115.131835938 578.161132812 c 4,18,19
 124.712890625 564 124.712890625 564 128.7734375 545.342773438 c 4,20,21
 132.712890625 527 132.712890625 527 133.948242188 512.524414062 c 4,22,23
 134.712890625 498 134.712890625 498 136.770507812 497.881835938 c 260,24,25
 138.712890625 498 138.712890625 498 142.415039062 513.534179688 c 4,26,27
 145.712890625 529 145.712890625 529 156.056640625 547.36328125 c 4,28,29
 165.712890625 566 165.712890625 566 183.810546875 581.19140625 c 4,30,31
 201.712890625 597 201.712890625 597 232.732421875 596.842773438 c 4,32,33
 258.712890625 597 258.712890625 597 276.008789062 581.6953125 c 4,34,35
 292.712890625 567 292.712890625 567 303.291992188 547.8671875 c 4,36,37
 313.712890625 529 313.712890625 529 319.286132812 514.0390625 c 132,-1,38
 324.712890625 499 324.712890625 499 327.752929688 498.892578125 c 260,39,40
 330.712890625 499 330.712890625 499 335.75 514.0390625 c 132,-1,41
 340.712890625 529 340.712890625 529 351.272460938 547.8671875 c 4,42,43
 361.712890625 567 361.712890625 567 379.967773438 581.6953125 c 4,44,45
 398.712890625 597 398.712890625 597 428.41796875 596.842773438 c 4,46,47
 466.712890625 597 466.712890625 597 491.452148438 576.647460938 c 4,48,49
 515.712890625 556 515.712890625 556 529.5546875 520.602539062 c 4,50,51
 542.712890625 485 542.712890625 485 548.37109375 435.780273438 c 4,52,53
 553.544921875 396.282226562 553.544921875 396.282226562 553.544921875 330.255859375 c 6,54,-1
 553.544921875 6.0322265625 l 6,55,56
 553.712890625 -8 553.712890625 -8 535.669921875 -14.6689453125 c 4,57,58
 517.712890625 -21 517.712890625 -21 498.978515625 -21.232421875 c 260,59,60
 479.712890625 -21 479.712890625 -21 469.813476562 -15.6796875 c 4,61,62
 459.46484375 -9.8603515625 459.46484375 -9.8603515625 459.46484375 5.021484375 c 6,63,-1
 459.46484375 321.166992188 l 6,64,65
 459.712890625 333 459.712890625 333 459.46484375 362.064453125 c 4,66,67
 459.712890625 391 459.712890625 391 455.231445312 421.137695312 c 4,68,69
 450.712890625 451 450.712890625 451 441.119140625 474.15234375 c 4,70,71
 431.712890625 497 431.712890625 497 411.484375 496.873046875 c 4,72,73
 394.712890625 497 394.712890625 497 383.73046875 482.735351562 c 4,74,75
 372.712890625 469 372.712890625 469 366.326171875 443.858398438 c 4,76,77
 359.712890625 419 359.712890625 419 356.447265625 384.279296875 c 4,78,79
 352.712890625 349 352.712890625 349 351.272460938 307.030273438 c 4,80,81
 348.712890625 258 348.712890625 258 347.509765625 207.059570312 c 4,82,83
 346.712890625 157 346.712890625 157 347.0390625 121.153320312 c 4,84,85
 347.712890625 79 347.712890625 79 347.979492188 48.9482421875 c 4,86,87
 348.712890625 19 348.712890625 19 348.450195312 10.0712890625 c 4,88,89
 348.712890625 -4 348.712890625 -4 332.927734375 -12.6494140625 c 4,90,91
 317.712890625 -21 317.712890625 -21 294.825195312 -21.232421875 c 260,92,93
 272.712890625 -21 272.712890625 -21 262.837890625 -14.1650390625 c 4,94,95
 253.4296875 -6.77734375 253.4296875 -6.77734375 253.4296875 17.1396484375 c 6,96,-1
 253.4296875 321.166992188 l 6,97,98
 253.712890625 332 253.712890625 332 253.4296875 361.55859375 c 4,99,100
 253.712890625 391 253.712890625 391 249.666992188 421.137695312 c 4,101,102
 245.712890625 451 245.712890625 451 236.495117188 474.657226562 c 4,103,104
 226.712890625 498 226.712890625 498 208.271484375 497.881835938 c 4,105,106
 191.712890625 498 191.712890625 498 179.577148438 482.23046875 c 4,107,108
 167.712890625 467 167.712890625 467 160.291015625 442.34375 c 4,109,110
 152.712890625 418 152.712890625 418 148.530273438 387.814453125 c 4,111,112
 144.712890625 358 144.712890625 358 142.415039062 329.24609375 c 4,113,114
 140.712890625 301 140.712890625 301 140.063476562 276.736328125 c 4,115,116
 139.712890625 245 139.712890625 245 139.592773438 240.383789062 c 6,117,-1
 139.592773438 24.2080078125 l 6,118,119
 139.712890625 5 139.712890625 5 124.540039062 -8.10546875 c 4,120,121
 109.712890625 -21 109.712890625 -21 88.7900390625 -21.232421875 c 4,0,1
69.033203125 497.881835938 m 4,122,123
 74.712890625 499 74.712890625 499 75.1484375 509.495117188 c 132,-1,124
 75.712890625 520 75.712890625 520 75.6181640625 528.176757812 c 4,125,126
 75.712890625 535 75.712890625 535 77.5 543.828125 c 4,127,128
 79.712890625 552 79.712890625 552 80.79296875 559.48046875 c 132,-1,129
 81.712890625 567 81.712890625 567 82.2041015625 571.59765625 c 4,130,131
 81.712890625 577 81.712890625 577 78.4404296875 576.647460938 c 4,132,133
 71.712890625 577 71.712890625 577 67.62109375 570.083984375 c 4,134,135
 63.712890625 564 63.712890625 564 61.5068359375 554.430664062 c 4,136,137
 59.712890625 545 59.712890625 545 58.6845703125 537.264648438 c 4,138,139
 57.712890625 529 57.712890625 529 57.744140625 526.157226562 c 4,140,141
 57.712890625 518 57.712890625 518 59.625 507.475585938 c 132,-1,142
 61.712890625 497 61.712890625 497 69.033203125 497.881835938 c 4,122,123
286.357421875 1.9921875 m 4,143,144
 286.357421875 12.0908203125 286.357421875 12.0908203125 280.2421875 15.6240234375 c 132,-1,145
 274.127929688 19.1591796875 274.127929688 19.1591796875 274.127929688 30.2666015625 c 4,146,147
 274.127929688 32.2861328125 274.127929688 32.2861328125 274.127929688 37.8408203125 c 132,-1,148
 274.127929688 43.3935546875 274.127929688 43.3935546875 273.65625 48.9482421875 c 132,-1,149
 273.186523438 54.501953125 273.186523438 54.501953125 271.305664062 59.0458984375 c 132,-1,150
 269.423828125 63.58984375 269.423828125 63.58984375 266.600585938 63.58984375 c 4,151,152
 264.71875 63.58984375 264.71875 63.58984375 263.778320312 59.0458984375 c 132,-1,153
 262.837890625 54.501953125 262.837890625 54.501953125 262.3671875 48.443359375 c 132,-1,154
 261.896484375 42.384765625 261.896484375 42.384765625 261.896484375 36.830078125 c 132,-1,155
 261.896484375 31.2763671875 261.896484375 31.2763671875 261.896484375 29.2568359375 c 4,156,157
 261.896484375 17.1396484375 261.896484375 17.1396484375 265.189453125 3.5068359375 c 132,-1,158
 268.482421875 -10.125 268.482421875 -10.125 277.890625 -10.125 c 4,159,160
 286.357421875 -10.125 286.357421875 -10.125 286.357421875 1.9921875 c 4,143,144
489.5703125 3.001953125 m 4,161,162
 489.5703125 13.099609375 489.5703125 13.099609375 484.395507812 20.673828125 c 132,-1,163
 479.221679688 28.2470703125 479.221679688 28.2470703125 479.221679688 39.3544921875 c 4,164,165
 479.221679688 43.3935546875 479.221679688 43.3935546875 478.750976562 53.4921875 c 132,-1,166
 478.280273438 63.58984375 478.280273438 63.58984375 472.635742188 63.58984375 c 4,167,168
 467.931640625 63.58984375 467.931640625 63.58984375 467.4609375 52.482421875 c 132,-1,169
 466.991210938 41.3740234375 466.991210938 41.3740234375 466.991210938 38.3447265625 c 260,170,171
 466.991210938 35.31640625 466.991210938 35.31640625 467.4609375 27.2373046875 c 132,-1,172
 467.931640625 19.1591796875 467.931640625 19.1591796875 469.813476562 11.5849609375 c 132,-1,173
 471.6953125 4.01171875 471.6953125 4.01171875 474.517578125 -2.046875 c 132,-1,174
 477.33984375 -8.10546875 477.33984375 -8.10546875 482.044921875 -8.10546875 c 4,175,176
 485.807617188 -8.10546875 485.807617188 -8.10546875 487.689453125 -3.5615234375 c 132,-1,177
 489.5703125 0.982421875 489.5703125 0.982421875 489.5703125 3.001953125 c 4,161,162
86.908203125 3.001953125 m 4,178,179
 86.908203125 14.109375 86.908203125 14.109375 82.6748046875 15.1201171875 c 132,-1,180
 78.4404296875 16.12890625 78.4404296875 16.12890625 73.736328125 23.1982421875 c 4,181,182
 72.7958984375 25.2177734375 72.7958984375 25.2177734375 72.326171875 30.771484375 c 132,-1,183
 71.85546875 36.3251953125 71.85546875 36.3251953125 71.85546875 41.8798828125 c 132,-1,184
 71.85546875 47.4326171875 71.85546875 47.4326171875 70.4443359375 51.9765625 c 132,-1,185
 69.033203125 56.521484375 69.033203125 56.521484375 66.2109375 56.521484375 c 4,186,187
 61.5068359375 56.521484375 61.5068359375 56.521484375 61.0361328125 46.927734375 c 132,-1,188
 60.56640625 37.3359375 60.56640625 37.3359375 60.56640625 30.2666015625 c 4,189,190
 60.56640625 26.2275390625 60.56640625 26.2275390625 61.5068359375 20.16796875 c 132,-1,191
 62.447265625 14.109375 62.447265625 14.109375 64.798828125 8.0517578125 c 132,-1,192
 67.1513671875 1.9921875 67.1513671875 1.9921875 70.4443359375 -2.5517578125 c 132,-1,193
 73.736328125 -7.0966796875 73.736328125 -7.0966796875 78.4404296875 -7.0966796875 c 4,194,195
 86.908203125 -7.0966796875 86.908203125 -7.0966796875 86.908203125 3.001953125 c 4,178,179
EndSplineSet
EndChar

StartChar: n
Encoding: 110 110 80
Width: 600
GlyphClass: 2
Flags: W
LayerCount: 2
Fore
SplineSet
59.650390625 0 m 1,0,-1
 50.849609375 627 l 1,1,-1
 138.849609375 627 l 1,2,-1
 153.150390625 526 l 1,3,-1
 158.650390625 526 l 1,4,5
 176.799804688 557 176.799804688 557 204.299804688 576.5 c 128,-1,6
 231.799804688 596 231.799804688 596 269.75 605.5 c 0,7,8
 306.599609375 615 306.599609375 615 351.150390625 615 c 0,9,10
 440.799804688 615 440.799804688 615 494.700195312 569.5 c 0,11,12
 549.150390625 523.536132812 549.150390625 523.536132812 549.150390625 427 c 2,13,-1
 549.150390625 0 l 1,14,-1
 450.150390625 0 l 1,15,-1
 450.150390625 411 l 2,16,17
 449.583007812 479.017578125 449.583007812 479.017578125 419.900390625 510.5 c 128,-1,18
 390.200195312 542 390.200195312 542 322.549804688 542 c 0,19,20
 219.700195312 542 219.700195312 542 195.5 490 c 0,21,22
 158.650390625 406.7578125 158.650390625 406.7578125 158.650390625 344 c 2,23,-1
 158.650390625 0 l 1,24,-1
 59.650390625 0 l 1,0,-1
EndSplineSet
EndChar

StartChar: o
Encoding: 111 111 81
Width: 600
GlyphClass: 2
Flags: W
LayerCount: 2
Fore
SplineSet
297.486328125 -0.35546875 m 0,0,1
 225.076171875 -0.35546875 225.076171875 -0.35546875 171.271484375 29.591796875 c 128,-1,2
 117.465820312 59.5400390625 117.465820312 59.5400390625 82.267578125 106.91015625 c 128,-1,3
 47.068359375 154.282226562 47.068359375 154.282226562 29.4677734375 213.088867188 c 128,-1,4
 11.8681640625 271.89453125 11.8681640625 271.89453125 11.8681640625 330.700195312 c 0,5,6
 11.8681640625 402.57421875 11.8681640625 402.57421875 31.982421875 463.55859375 c 128,-1,7
 52.0966796875 524.541992188 52.0966796875 524.541992188 89.810546875 568.647460938 c 128,-1,8
 127.5234375 612.751953125 127.5234375 612.751953125 181.831054688 637.797851562 c 128,-1,9
 236.138671875 662.845703125 236.138671875 662.845703125 303.520507812 662.845703125 c 0,10,11
 365.874023438 662.845703125 365.874023438 662.845703125 418.168945312 638.342773438 c 128,-1,12
 470.46484375 613.840820312 470.46484375 613.840820312 508.1796875 570.825195312 c 128,-1,13
 545.892578125 527.809570312 545.892578125 527.809570312 567.01171875 468.458984375 c 128,-1,14
 588.131835938 409.108398438 588.131835938 409.108398438 588.131835938 340.501953125 c 0,15,16
 588.131835938 270.805664062 588.131835938 270.805664062 566.509765625 208.732421875 c 128,-1,17
 544.88671875 146.66015625 544.88671875 146.66015625 506.16796875 100.376953125 c 128,-1,18
 467.448242188 54.0947265625 467.448242188 54.0947265625 414.146484375 26.869140625 c 128,-1,19
 360.844726562 -0.35546875 360.844726562 -0.35546875 297.486328125 -0.35546875 c 0,0,1
299.498046875 83.4970703125 m 0,20,21
 401.073242188 83.4970703125 401.073242188 83.4970703125 452.866210938 152.6484375 c 128,-1,22
 504.66015625 221.80078125 504.66015625 221.80078125 504.66015625 340.501953125 c 0,23,24
 504.66015625 388.416992188 504.66015625 388.416992188 491.083007812 432.522460938 c 128,-1,25
 477.505859375 476.626953125 477.505859375 476.626953125 451.358398438 510.384765625 c 128,-1,26
 425.209960938 544.14453125 425.209960938 544.14453125 387.999023438 564.291015625 c 128,-1,27
 350.788085938 584.4375 350.788085938 584.4375 303.520507812 584.4375 c 0,28,29
 258.263671875 584.4375 258.263671875 584.4375 220.55078125 564.834960938 c 128,-1,30
 182.836914062 545.233398438 182.836914062 545.233398438 155.682617188 512.563476562 c 128,-1,31
 128.529296875 479.893554688 128.529296875 479.893554688 113.443359375 436.333984375 c 128,-1,32
 98.3583984375 392.7734375 98.3583984375 392.7734375 98.3583984375 343.768554688 c 256,33,34
 98.3583984375 294.763671875 98.3583984375 294.763671875 111.935546875 247.936523438 c 128,-1,35
 125.512695312 201.110351562 125.512695312 201.110351562 151.157226562 164.62890625 c 128,-1,36
 176.802734375 128.146484375 176.802734375 128.146484375 214.013671875 105.822265625 c 128,-1,37
 251.224609375 83.4970703125 251.224609375 83.4970703125 299.498046875 83.4970703125 c 0,20,21
EndSplineSet
EndChar

StartChar: p
Encoding: 112 112 82
Width: 600
GlyphClass: 2
Flags: W
LayerCount: 2
Fore
SplineSet
112.184570312 -40 m 4,0,1
 98.984375 -40 98.984375 -40 71.984375 -18 c 4,2,3
 60.583984375 -8.6728515625 60.583984375 -8.6728515625 60.583984375 103 c 6,4,-1
 60.583984375 577 l 6,5,6
 61.01171875 619.751953125 61.01171875 619.751953125 72.583984375 636.5 c 4,7,8
 83.984375 653 83.984375 653 112.184570312 653 c 260,9,10
 138.984375 653 138.984375 653 160.184570312 642 c 4,11,12
 180.583984375 631.211914062 180.583984375 631.211914062 180.583984375 593 c 6,13,-1
 180.583984375 501 l 5,14,15
 185.984375 502 185.984375 502 274.784179688 502 c 4,16,17
 305.984375 502 305.984375 502 317.384765625 502 c 4,18,19
 382.984375 502 382.984375 502 424.784179688 490 c 4,20,21
 466.984375 478 466.984375 478 493.184570312 454.5 c 4,22,23
 519.984375 431 519.984375 431 529.184570312 396.5 c 4,24,25
 539.984375 359 539.984375 359 539.384765625 318 c 260,26,27
 538.984375 274 538.984375 274 525.583984375 236.5 c 132,-1,28
 511.984375 199 511.984375 199 481.184570312 172 c 4,29,30
 449.984375 145 449.984375 145 401.984375 130.5 c 4,31,32
 352.984375 116 352.984375 116 180.583984375 118 c 5,33,-1
 180.583984375 117 l 6,34,35
 180.984375 82 180.984375 82 179.384765625 80.5 c 4,36,37
 177.984375 78 177.984375 78 171.583984375 31 c 4,38,39
 165.984375 -16 165.984375 -16 151.184570312 -28 c 4,40,41
 136.984375 -40 136.984375 -40 112.184570312 -40 c 4,0,1
96.583984375 598 m 4,42,43
 95.384765625 599 95.384765625 599 95.384765625 601 c 4,44,45
 92.984375 605 92.984375 605 92.984375 609 c 4,46,47
 92.984375 621 92.984375 621 103.784179688 627.5 c 132,-1,48
 114.583984375 634 114.583984375 634 114.583984375 637 c 260,49,50
 114.583984375 640 114.583984375 640 107.384765625 640 c 4,51,52
 96.583984375 640 96.583984375 640 87.583984375 630 c 132,-1,53
 78.583984375 620 78.583984375 620 78.583984375 605 c 4,54,55
 78.583984375 587 78.583984375 587 88.1845703125 587 c 4,56,57
 109.784179688 587 109.784179688 587 96.583984375 598 c 4,42,43
336.583984375 201 m 6,58,59
 358.784179688 201 358.784179688 201 373.784179688 205.5 c 4,60,61
 389.984375 210 389.984375 210 400.184570312 223 c 4,62,63
 409.184570312 233 409.184570312 233 415.784179688 259.5 c 4,64,65
 418.784179688 271 418.784179688 271 420.583984375 320 c 4,66,67
 421.184570312 334 421.184570312 334 418.784179688 351.5 c 132,-1,68
 416.384765625 369 416.384765625 369 410.384765625 384 c 132,-1,69
 404.384765625 399 404.384765625 399 391.784179688 409.5 c 4,70,71
 380.384765625 420 380.384765625 420 359.384765625 420 c 4,72,73
 349.184570312 420 349.184570312 420 326.384765625 420.5 c 4,74,75
 201.583984375 421 201.583984375 421 180.583984375 417 c 5,76,-1
 180.583984375 201 l 5,77,-1
 336.583984375 201 l 6,58,59
85.7841796875 76 m 4,78,79
 88.1845703125 76 88.1845703125 76 89.384765625 84.5 c 132,-1,80
 90.583984375 93 90.583984375 93 91.1845703125 103.5 c 132,-1,81
 91.7841796875 114 91.7841796875 114 91.7841796875 124 c 132,-1,82
 91.7841796875 134 91.7841796875 134 91.7841796875 138 c 4,83,84
 91.7841796875 161 91.7841796875 161 89.384765625 167 c 132,-1,85
 86.984375 173 86.984375 173 84.583984375 173 c 260,86,87
 82.1845703125 173 82.1845703125 173 79.7841796875 167.5 c 132,-1,88
 77.384765625 162 77.384765625 162 77.384765625 138 c 4,89,90
 77.384765625 103 77.384765625 103 78.583984375 89.5 c 132,-1,91
 79.7841796875 76 79.7841796875 76 85.7841796875 76 c 4,78,79
85.7841796875 65 m 4,92,93
 78.583984375 65 78.583984375 65 78.583984375 56 c 4,94,95
 78.583984375 45 78.583984375 45 86.984375 45 c 4,96,97
 92.984375 45 92.984375 45 92.984375 56 c 4,98,99
 92.984375 61 92.984375 61 92.384765625 63 c 132,-1,100
 91.7841796875 65 91.7841796875 65 85.7841796875 65 c 4,92,93
EndSplineSet
EndChar

StartChar: q
Encoding: 113 113 83
Width: 600
GlyphClass: 2
Flags: W
LayerCount: 2
Fore
SplineSet
101.041992188 471.405273438 m 0,0,1
 105.595703125 473.8671875 105.595703125 473.8671875 129.859375 454.36328125 c 128,-1,2
 154.123046875 434.857421875 154.123046875 434.857421875 188.509765625 403.82421875 c 128,-1,3
 222.891601562 372.791992188 222.891601562 372.791992188 262.6171875 335 c 128,-1,4
 302.341796875 297.205078125 302.341796875 297.205078125 337.9921875 262.72265625 c 128,-1,5
 373.643554688 228.241210938 373.643554688 228.241210938 399.759765625 202.390625 c 128,-1,6
 425.87890625 176.536132812 425.87890625 176.536132812 434.024414062 169.915039062 c 0,7,8
 442.526367188 162.5625 442.526367188 162.5625 459.732421875 146.595703125 c 128,-1,9
 476.938476562 130.626953125 476.938476562 130.626953125 494.852539062 113.205078125 c 128,-1,10
 512.767578125 95.783203125 512.767578125 95.783203125 527.3125 80.21484375 c 128,-1,11
 541.861328125 64.6484375 541.861328125 64.6484375 544.690429688 58.826171875 c 0,12,13
 547.165039062 53.7333984375 547.165039062 53.7333984375 546.03515625 47.611328125 c 128,-1,14
 544.904296875 41.4873046875 544.904296875 41.4873046875 541.616210938 35.5791015625 c 128,-1,15
 538.328125 29.6669921875 538.328125 29.6669921875 533.682617188 24.861328125 c 128,-1,16
 529.038085938 20.0546875 529.038085938 20.0546875 524.484375 17.5927734375 c 0,17,18
 515.375976562 12.6728515625 515.375976562 12.6728515625 504.53515625 15.5439453125 c 128,-1,19
 493.6953125 18.4150390625 493.6953125 18.4150390625 485.250976562 23.958984375 c 0,20,21
 477.811523438 29.1259765625 477.811523438 29.1259765625 456.029296875 48.5927734375 c 128,-1,22
 434.248046875 68.0615234375 434.248046875 68.0615234375 404.083984375 96.3212890625 c 128,-1,23
 373.921875 124.58203125 373.921875 124.58203125 337.443359375 159.075195312 c 128,-1,24
 300.965820312 193.571289062 300.965820312 193.571289062 264.1328125 228.791992188 c 128,-1,25
 227.30078125 264.015625 227.30078125 264.015625 192.508789062 297.581054688 c 128,-1,26
 157.712890625 331.147460938 157.712890625 331.147460938 130.739257812 357.915039062 c 128,-1,27
 103.764648438 384.684570312 103.764648438 384.684570312 86.857421875 401.731445312 c 128,-1,28
 69.9462890625 418.778320312 69.9462890625 418.778320312 68.88671875 420.9609375 c 0,29,30
 65.703125 427.509765625 65.703125 427.509765625 69.0830078125 435.765625 c 128,-1,31
 72.4609375 444.022460938 72.4609375 444.022460938 78.6767578125 451.513671875 c 128,-1,32
 84.8916015625 459.0078125 84.8916015625 459.0078125 91.666015625 464.50390625 c 128,-1,33
 98.439453125 470 98.439453125 470 101.041992188 471.405273438 c 0,0,1
98.9248046875 433.515625 m 0,34,35
 95.8544921875 436.450195312 95.8544921875 436.450195312 91.6826171875 432.359375 c 128,-1,36
 87.51171875 428.267578125 87.51171875 428.267578125 89.9873046875 423.173828125 c 0,37,38
 92.109375 418.809570312 92.109375 418.809570312 100.489257812 410.016601562 c 128,-1,39
 108.869140625 401.22265625 108.869140625 401.22265625 118.580078125 392.228515625 c 128,-1,40
 128.2890625 383.233398438 128.2890625 383.233398438 137.29296875 375.697265625 c 128,-1,41
 146.295898438 368.159179688 146.295898438 368.159179688 149.010742188 365.950195312 c 0,42,43
 152.731445312 363.365234375 152.731445312 363.365234375 155.983398438 365.123046875 c 128,-1,44
 159.236328125 366.879882812 159.236328125 366.879882812 160.18359375 368.310546875 c 0,45,46
 163.083007812 370.796875 163.083007812 370.796875 156.385742188 378.662109375 c 128,-1,47
 149.688476562 386.528320312 149.688476562 386.528320312 139.298828125 396.071289062 c 128,-1,48
 128.909179688 405.619140625 128.909179688 405.619140625 117.33984375 415.904296875 c 128,-1,49
 105.770507812 426.188476562 105.770507812 426.188476562 98.9248046875 433.515625 c 0,34,35
144.610351562 0 m 2,50,51
 130.53515625 -1.1064453125 130.53515625 -1.1064453125 110.110351562 4 c 0,52,53
 94.1103515625 8 94.1103515625 8 81.1103515625 18 c 0,54,55
 64.1103515625 31 64.1103515625 31 61.1103515625 45 c 0,56,57
 54.1103515625 88 54.1103515625 88 53.6103515625 88 c 2,58,-1
 53.6103515625 516 l 2,59,60
 54.1103515625 541 54.1103515625 541 63.1103515625 562.5 c 0,61,62
 72.1103515625 582 72.1103515625 582 88.1103515625 594.5 c 128,-1,63
 104.110351562 607 104.110351562 607 124.610351562 612.5 c 0,64,65
 149.127929688 618.749023438 149.127929688 618.749023438 168.610351562 618 c 2,66,-1
 298.610351562 613 l 2,67,68
 346.110351562 611 346.110351562 611 381.610351562 593.5 c 0,69,70
 422.110351562 574 422.110351562 574 452.110351562 539 c 128,-1,71
 482.110351562 504 482.110351562 504 501.110351562 449.5 c 128,-1,72
 520.110351562 395 520.110351562 395 519.610351562 326 c 0,73,74
 520.110351562 257 520.110351562 257 500.610351562 192.5 c 128,-1,75
 481.110351562 128 481.110351562 128 449.610351562 89.5 c 0,76,77
 424.110351562 59 424.110351562 59 374.610351562 34.5 c 0,78,79
 335.033203125 14.9619140625 335.033203125 14.9619140625 284.610351562 11 c 2,80,-1
 144.610351562 0 l 2,50,51
238.610351562 96 m 2,81,82
 306.110351562 96 306.110351562 96 328.610351562 112.5 c 0,83,84
 352.110351562 129 352.110351562 129 368.110351562 159.5 c 128,-1,85
 384.110351562 190 384.110351562 190 394.110351562 233 c 128,-1,86
 404.110351562 276 404.110351562 276 403.610351562 329 c 0,87,88
 404.110351562 419 404.110351562 419 373.610351562 467 c 0,89,90
 339.110351562 520 339.110351562 520 295.610351562 520 c 2,91,-1
 280.610351562 520 l 2,92,93
 175.110351562 520 175.110351562 520 173.610351562 512.5 c 0,94,95
 168.110351562 481 168.110351562 481 167.610351562 480 c 2,96,-1
 167.610351562 132 l 2,97,98
 168.247070312 111.63671875 168.247070312 111.63671875 171.110351562 104 c 0,99,100
 174.110351562 96 174.110351562 96 225.610351562 96 c 2,101,-1
 238.610351562 96 l 2,81,82
84.6103515625 83 m 0,102,103
 89.1103515625 83 89.1103515625 83 90.1103515625 93.5 c 128,-1,104
 91.1103515625 104 91.1103515625 104 91.6103515625 117.5 c 0,105,106
 91.1103515625 131 91.1103515625 131 91.1103515625 143.5 c 128,-1,107
 91.1103515625 156 91.1103515625 156 90.6103515625 161 c 0,108,109
 91.1103515625 216 91.1103515625 216 84.6103515625 216 c 0,110,111
 81.1103515625 216 81.1103515625 216 78.6103515625 203.5 c 0,112,113
 75.1103515625 191 75.1103515625 191 75.6103515625 161 c 0,114,115
 75.1103515625 116 75.1103515625 116 76.1103515625 99.5 c 128,-1,116
 77.1103515625 83 77.1103515625 83 84.6103515625 83 c 0,102,103
83.6103515625 69 m 0,117,118
 77.1103515625 69 77.1103515625 69 76.6103515625 58 c 0,119,120
 77.1103515625 40 77.1103515625 40 84.6103515625 40 c 0,121,122
 87.1103515625 40 87.1103515625 40 89.6103515625 46 c 0,123,124
 91.1103515625 52 91.1103515625 52 91.6103515625 58 c 0,125,126
 91.1103515625 69 91.1103515625 69 83.6103515625 69 c 0,117,118
EndSplineSet
EndChar

StartChar: r
Encoding: 114 114 84
Width: 600
GlyphClass: 2
Flags: W
LayerCount: 2
Fore
SplineSet
45 0 m 5,0,-1
 45 60 l 5,1,-1
 208 75 l 5,2,-1
 208 461 l 5,3,-1
 61 474 l 5,4,-1
 61 536 l 5,5,-1
 280 536 l 5,6,-1
 292 438 l 5,7,-1
 296 438 l 5,8,9
 324 491 324 491 357.5 518.5 c 132,-1,10
 391 546 391 546 446 546 c 4,11,12
 480 546 480 546 506.5 540 c 132,-1,13
 533 534 533 534 555 524 c 5,14,-1
 531 445 l 5,15,16
 515 454 515 454 493 460.5 c 132,-1,17
 471 467 471 467 446 467 c 4,18,19
 403 467 403 467 370 440 c 132,-1,20
 337 413 337 413 318 368 c 132,-1,21
 299 323 299 323 299 269 c 6,22,-1
 299 75 l 5,23,-1
 455 60 l 5,24,-1
 455 0 l 5,25,-1
 45 0 l 5,0,-1
EndSplineSet
EndChar

StartChar: s
Encoding: 115 115 85
Width: 600
GlyphClass: 2
Flags: W
LayerCount: 2
Fore
SplineSet
272.280273438 -15.01953125 m 4,0,1
 206.280273438 -15.01953125 206.280273438 -15.01953125 146.21875 -5.0302734375 c 132,-1,2
 86.1591796875 4.9599609375 86.1591796875 4.9599609375 42.599609375 22.7197265625 c 5,3,-1
 42.599609375 114.849609375 l 5,4,5
 88.7998046875 97.08984375 88.7998046875 97.08984375 144.900390625 82.10546875 c 132,-1,6
 201 67.1201171875 201 67.1201171875 278.879882812 67.1201171875 c 4,7,8
 366 67.1201171875 366 67.1201171875 402.299804688 89.875 c 132,-1,9
 438.599609375 112.629882812 438.599609375 112.629882812 438.599609375 155.919921875 c 4,10,11
 438.599609375 179.23046875 438.599609375 179.23046875 426.059570312 194.21484375 c 132,-1,12
 413.51953125 209.200195312 413.51953125 209.200195312 377.879882812 224.740234375 c 132,-1,13
 342.239257812 240.280273438 342.239257812 240.280273438 273.599609375 264.700195312 c 4,14,15
 204.959960938 290.23046875 204.959960938 290.23046875 156.119140625 312.4296875 c 132,-1,16
 107.280273438 334.629882812 107.280273438 334.629882812 80.8798828125 365.155273438 c 132,-1,17
 54.4794921875 395.6796875 54.4794921875 395.6796875 54.4794921875 443.41015625 c 4,18,19
 54.4794921875 496.690429688 54.4794921875 496.690429688 86.8193359375 531.655273438 c 132,-1,20
 119.159179688 566.620117188 119.159179688 566.620117188 180.5390625 584.379882812 c 132,-1,21
 241.918945312 602.139648438 241.918945312 602.139648438 326.400390625 602.139648438 c 4,22,23
 384.479492188 602.139648438 384.479492188 602.139648438 437.280273438 593.259765625 c 132,-1,24
 490.080078125 584.379882812 490.080078125 584.379882812 546.838867188 564.400390625 c 5,25,-1
 511.200195312 486.700195312 l 5,26,27
 458.400390625 505.5703125 458.400390625 505.5703125 414.1796875 512.23046875 c 132,-1,28
 369.959960938 518.889648438 369.959960938 518.889648438 326.400390625 518.889648438 c 4,29,30
 244.559570312 518.889648438 244.559570312 518.889648438 206.939453125 501.129882812 c 132,-1,31
 169.319335938 483.370117188 169.319335938 483.370117188 169.319335938 445.629882812 c 4,32,33
 169.319335938 421.209960938 169.319335938 421.209960938 185.819335938 404.559570312 c 132,-1,34
 202.319335938 387.91015625 202.319335938 387.91015625 239.939453125 372.370117188 c 132,-1,35
 277.559570312 356.830078125 277.559570312 356.830078125 339.599609375 334.629882812 c 4,36,37
 409.559570312 310.209960938 409.559570312 310.209960938 458.400390625 289.120117188 c 132,-1,38
 507.239257812 268.030273438 507.239257812 268.030273438 532.319335938 238.615234375 c 132,-1,39
 557.400390625 209.200195312 557.400390625 209.200195312 557.400390625 158.139648438 c 4,40,41
 557.400390625 101.530273438 557.400390625 101.530273438 525.059570312 63.2353515625 c 132,-1,42
 492.71875 24.9404296875 492.71875 24.9404296875 429.359375 4.9599609375 c 132,-1,43
 366 -15.01953125 366 -15.01953125 272.280273438 -15.01953125 c 4,0,1
EndSplineSet
EndChar

StartChar: t
Encoding: 116 116 86
Width: 600
GlyphClass: 2
Flags: W
LayerCount: 2
Fore
SplineSet
427.599609375 -10 m 0,0,1
 356 -10 356 -10 315.400390625 5 c 0,2,3
 248 30 248 30 236.75 58 c 0,4,5
 207.599609375 139.114257812 207.599609375 139.114257812 207.599609375 163 c 2,6,-1
 207.599609375 418 l 5,7,-1
 47 418 l 5,8,-1
 47 480 l 5,9,-1
 207.599609375 496 l 5,10,-1
 227.400390625 679 l 1,11,-1
 306.599609375 679 l 1,12,-1
 306.599609375 493 l 5,13,-1
 536.5 493 l 5,14,-1
 536.5 418 l 5,15,-1
 306.599609375 418 l 5,16,-1
 306.599609375 180 l 2,17,18
 307 140 307 140 319.25 114 c 0,19,20
 332 88 332 88 360.5 75.5 c 128,-1,21
 389 63 389 63 434.200195312 63 c 0,22,23
 463 63 463 63 495.799804688 68 c 0,24,25
 529 73 529 73 553 78 c 1,26,-1
 553 6 l 1,27,28
 527 0 527 0 494.700195312 -5 c 0,29,30
 463 -10 463 -10 427.599609375 -10 c 0,0,1
EndSplineSet
EndChar

StartChar: u
Encoding: 117 117 87
Width: 600
GlyphClass: 2
Flags: W
LayerCount: 2
Fore
SplineSet
256.0078125 -17.599609375 m 4,0,1
 141.505859375 -17.599609375 141.505859375 -17.599609375 86.6650390625 39.400390625 c 132,-1,2
 31.8251953125 96.400390625 31.8251953125 96.400390625 31.8251953125 209.200195312 c 6,3,-1
 31.8251953125 637.599609375 l 5,4,-1
 140.30078125 637.599609375 l 5,5,-1
 140.30078125 226 l 6,6,7
 140.30078125 149.200195312 140.30078125 149.200195312 172.240234375 109.599609375 c 132,-1,8
 204.1796875 70 204.1796875 70 282.5234375 70 c 4,9,10
 350.01953125 70 350.01953125 70 388.587890625 98.2001953125 c 132,-1,11
 427.15625 126.400390625 427.15625 126.400390625 443.427734375 179.200195312 c 132,-1,12
 459.69921875 232 459.69921875 232 459.69921875 306.400390625 c 6,13,-1
 459.69921875 637.599609375 l 5,14,-1
 568.174804688 637.599609375 l 5,15,-1
 568.174804688 -5.599609375 l 5,16,-1
 481.39453125 -5.599609375 l 5,17,-1
 465.7265625 80.7998046875 l 5,18,-1
 459.69921875 80.7998046875 l 5,19,20
 436.799804688 44.7998046875 436.799804688 44.7998046875 406.66796875 23.2001953125 c 132,-1,21
 376.53515625 1.599609375 376.53515625 1.599609375 339.171875 -8 c 132,-1,22
 301.807617188 -17.599609375 301.807617188 -17.599609375 256.0078125 -17.599609375 c 4,0,1
EndSplineSet
EndChar

StartChar: v
Encoding: 118 118 88
Width: 600
GlyphClass: 2
Flags: W
LayerCount: 2
Fore
SplineSet
368.857421875 508.875 m 0,0,1
 359.3203125 509 359.3203125 509 355.71484375 513.892578125 c 0,2,3
 352.030273438 519 352.030273438 519 349.126953125 526.03515625 c 128,-1,4
 346.360351562 533 346.360351562 533 345.05078125 541.875 c 0,5,6
 340.345703125 555.822265625 340.345703125 555.822265625 340.345703125 557.452148438 c 2,7,-1
 340.345703125 634.01171875 l 2,8,9
 342.665039062 644.038085938 342.665039062 644.038085938 342.541015625 644.30859375 c 0,10,11
 340.8203125 647.740234375 340.8203125 647.740234375 335.95703125 647.740234375 c 2,12,-1
 268.837890625 647.740234375 l 2,13,14
 262.9296875 648 262.9296875 648 260.056640625 646.15625 c 0,15,16
 257.548828125 645.119140625 257.548828125 645.119140625 257.548828125 639.291015625 c 2,17,-1
 257.548828125 564.315429688 l 2,18,19
 257.260742188 557 257.260742188 557 256.29296875 547.15625 c 0,20,21
 254.830078125 537 254.830078125 537 251.275390625 528.940429688 c 0,22,23
 247.540039062 520 247.540039062 520 244.317382812 514.68359375 c 0,24,25
 241.060546875 509 241.060546875 509 232.000976562 508.875 c 0,26,27
 221.620117188 509 221.620117188 509 214.893554688 513.365234375 c 0,28,29
 207.849609375 518 207.849609375 518 204.344726562 525.244140625 c 0,30,31
 200.560546875 533 200.560546875 533 199.211914062 542.668945312 c 0,32,33
 197.78515625 556.28515625 197.78515625 556.28515625 197.78515625 564.315429688 c 2,34,-1
 197.78515625 797.165039062 l 2,35,36
 198.129882812 800 198.129882812 800 199.211914062 806.404296875 c 0,37,38
 200.560546875 812 200.560546875 812 204.059570312 818.811523438 c 0,39,40
 207.849609375 825 207.849609375 825 213.75390625 829.634765625 c 0,41,42
 220 834 220 834 230.291015625 834.125 c 0,43,44
 238.629882812 834 238.629882812 834 244.831054688 830.428710938 c 0,45,46
 250.780273438 827 250.780273438 827 252.301757812 820.922851562 c 128,-1,47
 254.01953125 815 254.01953125 815 255.665039062 808.515625 c 0,48,49
 257.548828125 800.8203125 257.548828125 800.8203125 257.548828125 796.109375 c 2,50,-1
 257.548828125 703.708984375 l 2,51,52
 257.260742188 699 257.260742188 699 259.116210938 696.315429688 c 0,53,54
 260.421875 693.1875 260.421875 693.1875 265.701171875 693.1484375 c 2,55,-1
 337.209960938 692.619140625 l 2,56,57
 340.689453125 693 340.689453125 693 342.228515625 693.940429688 c 0,58,59
 341.5 698 341.5 698 340.345703125 702.65234375 c 2,60,-1
 340.345703125 793.99609375 l 2,61,62
 340.689453125 809 340.689453125 809 351.637695312 824.090820312 c 0,63,64
 359.3203125 834 359.3203125 834 366.006835938 834.125 c 0,65,66
 372.280273438 834 372.280273438 834 378.837890625 832.01171875 c 128,-1,67
 385.239257812 830 385.239257812 830 391.098632812 824.884765625 c 0,68,69
 396.580078125 820 396.580078125 820 400.505859375 811.948242188 c 0,70,71
 404.21484375 803.186523438 404.21484375 803.186523438 404.21484375 792.412109375 c 2,72,-1
 404.21484375 556.924804688 l 2,73,74
 403.870117188 550 403.870117188 550 402.217773438 541.083984375 c 0,75,76
 399.8203125 533 399.8203125 533 395.944335938 525.508789062 c 0,77,78
 391.719726562 518 391.719726562 518 384.826171875 513.62890625 c 0,79,80
 377.950195312 509 377.950195312 509 368.857421875 508.875 c 0,0,1
207.481445312 801.916015625 m 0,81,82
 209.19140625 801.916015625 209.19140625 801.916015625 211.758789062 804.291015625 c 128,-1,83
 214.32421875 806.668945312 214.32421875 806.668945312 216.888671875 810.099609375 c 128,-1,84
 219.455078125 813.53125 219.455078125 813.53125 221.737304688 816.96484375 c 128,-1,85
 224.017578125 820.396484375 224.017578125 820.396484375 224.587890625 821.98046875 c 256,86,87
 225.158203125 823.564453125 225.158203125 823.564453125 224.873046875 825.940429688 c 128,-1,88
 224.587890625 828.315429688 224.587890625 828.315429688 222.877929688 827.788085938 c 0,89,90
 218.88671875 827.259765625 218.88671875 827.259765625 216.034179688 824.35546875 c 128,-1,91
 213.18359375 821.452148438 213.18359375 821.452148438 210.901367188 817.755859375 c 128,-1,92
 208.622070312 814.059570312 208.622070312 814.059570312 207.481445312 810.890625 c 128,-1,93
 206.33984375 807.724609375 206.33984375 807.724609375 206.33984375 806.140625 c 0,94,95
 206.33984375 805.083984375 206.33984375 805.083984375 206.33984375 803.764648438 c 128,-1,96
 206.33984375 802.444335938 206.33984375 802.444335938 207.481445312 801.916015625 c 0,81,82
361.446289062 812.475585938 m 0,97,98
 361.75 817 361.75 817 365.15234375 820.924804688 c 0,99,100
 368.23046875 825 368.23046875 825 364.866210938 825.67578125 c 0,101,102
 360.129882812 826 360.129882812 826 357.852539062 821.1875 c 0,103,104
 355.26953125 816 355.26953125 816 354.146484375 808.780273438 c 0,105,106
 353.66015625 800.176757812 353.66015625 800.176757812 352.321289062 800.331054688 c 0,107,108
 356.889648438 800 356.889648438 800 358.87890625 805.083984375 c 128,-1,109
 360.939453125 810 360.939453125 810 361.446289062 812.475585938 c 0,97,98
221.737304688 524.715820312 m 0,110,111
 221.737304688 527.35546875 221.737304688 527.35546875 219.455078125 529.46875 c 0,112,113
 216.603515625 532.109375 216.603515625 532.109375 215.463867188 540.291015625 c 128,-1,114
 214.32421875 548.475585938 214.32421875 548.475585938 214.32421875 554.284179688 c 0,115,116
 214.32421875 563.259765625 214.32421875 563.259765625 210.33203125 563.259765625 c 0,117,118
 208.05078125 563.259765625 208.05078125 563.259765625 207.481445312 559.564453125 c 128,-1,119
 206.911132812 555.869140625 206.911132812 555.869140625 206.911132812 554.284179688 c 0,120,121
 206.911132812 552.171875 206.911132812 552.171875 207.481445312 546.890625 c 128,-1,122
 208.05078125 541.611328125 208.05078125 541.611328125 209.19140625 536.331054688 c 128,-1,123
 210.33203125 531.051757812 210.33203125 531.051757812 212.61328125 527.090820312 c 128,-1,124
 214.893554688 523.130859375 214.893554688 523.130859375 218.315429688 523.130859375 c 256,125,126
 221.737304688 523.130859375 221.737304688 523.130859375 221.737304688 524.715820312 c 0,110,111
362.015625 522.603515625 m 0,127,128
 358.510742188 526 358.510742188 526 356.02734375 535.275390625 c 0,129,130
 353.650390625 545 353.650390625 545 353.461914062 549.53125 c 0,131,132
 353.650390625 552 353.650390625 552 352.321289062 551.64453125 c 0,133,134
 355.26953125 552 355.26953125 552 354.146484375 547.684570312 c 0,135,136
 352.83984375 544 352.83984375 544 352.892578125 539.5 c 0,137,138
 352.83984375 533 352.83984375 533 353.462890625 525.5078125 c 0,139,140
 353.650390625 518 353.650390625 518 362.015625 517.8515625 c 0,141,142
 363.370117188 518 363.370117188 518 363.44140625 519.700195312 c 0,143,144
 363.370117188 522 363.370117188 522 362.015625 522.603515625 c 0,127,128
262.104492188 -0.107421875 m 1,145,-1
 14.4658203125 620.107421875 l 1,146,-1
 99.94921875 620.107421875 l 1,147,-1
 172.213867188 413.435546875 l 1,148,-1
 424.260742188 413.435546875 l 1,149,-1
 500.05078125 620.107421875 l 1,150,-1
 585.534179688 620.107421875 l 1,151,-1
 334.369140625 -0.107421875 l 1,152,-1
 262.104492188 -0.107421875 l 1,145,-1
300 74.1953125 m 1,153,-1
 399.584960938 342.587890625 l 1,154,-1
 200.415039062 342.587890625 l 1,155,-1
 300 74.1953125 l 1,153,-1
EndSplineSet
EndChar

StartChar: w
Encoding: 119 119 89
Width: 600
GlyphClass: 2
Flags: W
LayerCount: 2
Fore
SplineSet
272.286132812 467.26171875 m 1,0,-1
 115.241210938 804.73828125 l 1,1,-1
 173.133789062 804.73828125 l 1,2,-1
 300 521.693359375 l 1,3,-1
 426.25 804.73828125 l 1,4,-1
 484.758789062 804.73828125 l 1,5,-1
 327.713867188 467.26171875 l 1,6,-1
 272.286132812 467.26171875 l 1,0,-1
403 -20 m 0,7,8
 380 -20 380 -20 363.5 -14 c 128,-1,9
 347 -8 347 -8 335.5 3.5 c 128,-1,10
 324 15 324 15 316 31 c 0,11,12
 304 55 304 55 301 67 c 0,13,14
 300 71 300 71 299 77 c 128,-1,15
 298 83 298 83 296.5 89 c 128,-1,16
 295 95 295 95 293.5 99 c 128,-1,17
 292 103 292 103 290 103 c 256,18,19
 288 103 288 103 286 95.5 c 128,-1,20
 284 88 284 88 280 77 c 0,21,22
 270 51 270 51 261 32.5 c 128,-1,23
 252 14 252 14 240.5 2.5 c 128,-1,24
 229 -9 229 -9 215 -14.5 c 128,-1,25
 201 -20 201 -20 181 -20 c 0,26,27
 141 -20 141 -20 111.5 -6.5 c 128,-1,28
 82 7 82 7 63 31.5 c 128,-1,29
 44 56 44 56 35 89.5 c 128,-1,30
 26 123 26 123 26 163 c 2,31,-1
 26 502 l 2,32,33
 26 512 26 512 29 525.5 c 128,-1,34
 32 539 32 539 39 551 c 128,-1,35
 46 563 46 563 57.5 571.5 c 128,-1,36
 69 580 69 580 87 580 c 0,37,38
 116 580 116 580 127 559.5 c 128,-1,39
 137.903320312 539.1796875 137.903320312 539.1796875 138 507 c 2,40,-1
 139 173 l 2,41,42
 139 163 139 163 141 146.5 c 128,-1,43
 143 130 143 130 147.5 114 c 128,-1,44
 152 98 152 98 161 86.5 c 128,-1,45
 170 75 170 75 183 75 c 0,46,47
 206 75 206 75 219.5 80.5 c 128,-1,48
 233 86 233 86 240 142 c 128,-1,49
 247 198 247 198 248.5 203.5 c 128,-1,50
 250 209 250 209 250 285 c 0,51,52
 250 300 250 300 260 324.5 c 128,-1,53
 270 349 270 349 300 349 c 0,54,55
 314 349 314 349 323 344 c 128,-1,56
 332 339 332 339 338 323 c 0,57,58
 342 312 342 312 346.5 277 c 0,59,60
 348 264 348 264 349 256 c 0,61,-1
 349 194 l 0,62,-1
 350.5 159.5 l 0,63,64
 352 125 352 125 354.5 133 c 128,-1,65
 357 141 357 141 362 126 c 0,66,67
 371 97 371 97 381 85.5 c 128,-1,68
 391 74 391 74 404 74 c 0,69,70
 463 74 463 74 463 219 c 2,71,-1
 463 519 l 2,72,73
 463 530 463 530 465 541 c 128,-1,74
 467 552 467 552 472.5 560.5 c 128,-1,75
 478 569 478 569 488 574.5 c 128,-1,76
 498 580 498 580 513 580 c 0,77,78
 545 580 545 580 559.5 562.5 c 128,-1,79
 574 545 574 545 574 519 c 2,80,-1
 574 200 l 2,81,82
 574 158 574 158 562.5 118.5 c 128,-1,83
 551 79 551 79 529.5 48 c 128,-1,84
 508 17 508 17 476 -1.5 c 128,-1,85
 444 -20 444 -20 403 -20 c 0,7,8
51 495 m 0,86,87
 58 495 58 495 60.5 502 c 128,-1,88
 63 509 63 509 64 514 c 0,89,90
 66 528 66 528 75 537.5 c 0,91,92
 90 553 90 553 90 559 c 0,93,94
 90 561 90 561 88 564 c 128,-1,95
 86 567 86 567 83 567 c 0,96,97
 77 567 77 567 70 560.5 c 128,-1,98
 63 554 63 554 57 545 c 128,-1,99
 51 536 51 536 47.5 525.5 c 128,-1,100
 44 515 44 515 44 507 c 0,101,102
 44 503 44 503 45 499 c 128,-1,103
 46 495 46 495 51 495 c 0,86,87
496 513 m 0,104,105
 496 523 496 523 499 531 c 128,-1,106
 502 539 502 539 506 546 c 0,107,108
 511 554 511 554 510 559 c 128,-1,109
 509 564 509 564 506 564 c 0,110,111
 501 564 501 564 494.5 560.5 c 128,-1,112
 488 557 488 557 484 547 c 0,113,114
 479 531 479 531 480.5 516 c 128,-1,115
 482 501 482 501 490 501 c 0,116,117
 492 501 492 501 494 504.5 c 128,-1,118
 496 508 496 508 496 513 c 0,104,105
277 285 m 0,119,120
 277 286 277 286 279 295.5 c 128,-1,121
 281 305 281 305 284 311 c 0,122,123
 291 324 291 324 293 329 c 128,-1,124
 295 334 295 334 292 334 c 0,125,126
 290 334 290 334 284.5 332 c 128,-1,127
 279 330 279 330 274 323 c 0,128,129
 263 308 263 308 263.5 291 c 128,-1,130
 264 274 264 274 272 274 c 0,131,132
 277 274 277 274 277 285 c 0,119,120
128 17 m 0,133,134
 127 22 127 22 114 31 c 128,-1,135
 101 40 101 40 95 47 c 0,136,137
 84 58 84 58 79.5 69 c 128,-1,138
 75 80 75 80 70 79 c 0,139,140
 66 79 66 79 66.5 72 c 128,-1,141
 67 65 67 65 71.5 55 c 128,-1,142
 76 45 76 45 85 34 c 128,-1,143
 94 23 94 23 107 14 c 0,144,145
 116 7 116 7 123 9 c 0,146,147
 128 9 128 9 128 17 c 0,133,134
394 2 m 0,148,149
 394 6 394 6 390.5 7 c 128,-1,150
 387 8 387 8 384 8 c 0,151,152
 379 9 379 9 369 18 c 128,-1,153
 359 27 359 27 353 37 c 0,154,155
 343 52 343 52 335 54 c 0,156,157
 332 54 332 54 332 49 c 0,158,159
 332 47 332 47 335.5 39 c 128,-1,160
 339 31 339 31 346 22 c 128,-1,161
 353 13 353 13 362.5 5.5 c 128,-1,162
 372 -2 372 -2 383 -3 c 0,163,164
 387 -3 387 -3 390 -3 c 128,-1,165
 393 -3 393 -3 394 2 c 0,148,149
EndSplineSet
EndChar

StartChar: x
Encoding: 120 120 90
Width: 600
GlyphClass: 2
Flags: W
LayerCount: 2
Fore
SplineSet
443.659179688 79 m 5,0,-1
 169.759765625 79 l 5,1,-1
 169.759765625 173 l 5,2,-1
 443.659179688 173 l 5,3,-1
 443.659179688 79 l 5,0,-1
88.359375 -8 m 4,4,5
 71.859375 -8 71.859375 -8 59.2099609375 2.5 c 132,-1,6
 46.5595703125 13 46.5595703125 13 46.5595703125 24 c 4,7,8
 46.5595703125 30.052734375 46.5595703125 30.052734375 50.9599609375 38 c 6,9,-1
 218.159179688 340 l 6,10,11
 235.759765625 379 l 4,12,13
 235.759765625 385 235.759765625 385 231.359375 393.5 c 4,14,15
 221.459960938 410 l 6,16,-1
 72.9599609375 566 l 6,17,18
 69.6591796875 570 69.6591796875 570 62.509765625 587 c 4,19,20
 57.5595703125 599 57.5595703125 599 57.5595703125 614 c 4,21,22
 57.5595703125 628 57.5595703125 628 73.509765625 642 c 132,-1,23
 89.4599609375 656 89.4599609375 656 119.159179688 656 c 4,24,25
 125.759765625 656 125.759765625 656 131.809570312 654 c 4,26,27
 140.059570312 651 140.059570312 651 144.459960938 646 c 4,28,29
 147.759765625 642 147.759765625 642 163.709960938 629.46484375 c 4,30,31
 192.859375 607 192.859375 607 199.459960938 602 c 6,32,-1
 288.559570312 503 l 6,33,34
 297.359375 489 297.359375 489 299.009765625 487 c 4,35,36
 302.859375 481 302.859375 481 305.059570312 481 c 260,37,-1
 320.459960938 503 l 6,38,-1
 444.759765625 642 l 6,39,40
 456.859375 653 l 4,41,42
 461.259765625 656 461.259765625 656 472.259765625 656 c 260,43,44
 479.959960938 656 479.959960938 656 492.609375 653 c 132,-1,45
 505.259765625 650 505.259765625 650 516.259765625 643 c 4,46,47
 529.459960938 635 529.459960938 635 532.209960938 626 c 4,48,49
 537.268554688 611.694335938 537.268554688 611.694335938 528.359375 601 c 6,50,-1
 384.259765625 428 l 6,51,52
 366.659179688 407 366.659179688 407 366.659179688 391 c 4,53,54
 366.659179688 387 366.659179688 387 373.809570312 376.5 c 4,55,56
 377.659179688 370 377.659179688 370 396.359375 340 c 6,57,-1
 552.559570312 38 l 6,58,59
 554.759765625 33 554.759765625 33 551.459960938 26.5 c 4,60,61
 547.059570312 19 547.059570312 19 537.159179688 12 c 132,-1,62
 527.259765625 5 527.259765625 5 512.959960938 0 c 132,-1,63
 498.659179688 -5 498.659179688 -5 482.159179688 -5 c 4,64,65
 476.659179688 -5 476.659179688 -5 468.409179688 -3 c 4,66,67
 458.721679688 -0.927734375 458.721679688 -0.927734375 455.759765625 6 c 6,68,-1
 321.559570312 320 l 6,69,70
 320.459960938 321 320.459960938 321 311.109375 336.5 c 4,71,72
 306.159179688 344 306.159179688 344 301.759765625 344 c 260,73,74
 297.359375 344 297.359375 344 293.509765625 338 c 4,75,76
 291.859375 335 291.859375 335 279.759765625 317 c 6,77,-1
 152.159179688 29 l 6,78,79
 144.459960938 11 144.459960938 11 122.459960938 0 c 4,80,81
 107.059570312 -8 107.059570312 -8 88.359375 -8 c 4,4,5
465.659179688 616 m 4,82,83
 465.659179688 622 465.659179688 622 477.759765625 633 c 260,84,85
 489.859375 644 489.859375 644 483.259765625 644 c 4,86,87
 477.759765625 644 477.759765625 644 471.159179688 641.5 c 132,-1,88
 464.559570312 639 464.559570312 639 459.059570312 631 c 4,89,90
 452.459960938 620 452.459960938 620 454.109375 615.5 c 132,-1,91
 455.759765625 611 455.759765625 611 459.059570312 611 c 4,92,93
 465.659179688 611 465.659179688 611 465.659179688 616 c 4,82,83
91.6591796875 603 m 4,94,95
 91.6591796875 615 91.6591796875 615 97.7099609375 619.5 c 132,-1,96
 103.759765625 624 103.759765625 624 102.659179688 628 c 4,97,98
 100.459960938 636 100.459960938 636 92.759765625 636 c 4,99,100
 88.359375 636 88.359375 636 83.9599609375 630.5 c 132,-1,101
 79.5595703125 625 79.5595703125 625 77.359375 617 c 132,-1,102
 75.1591796875 609 75.1591796875 609 75.7099609375 600 c 132,-1,103
 76.259765625 591 76.259765625 591 80.6591796875 584 c 4,104,105
 85.0595703125 578 85.0595703125 578 89.4599609375 579 c 4,106,107
 94.9599609375 581 94.9599609375 581 93.3095703125 589.5 c 132,-1,108
 91.6591796875 598 91.6591796875 598 91.6591796875 603 c 4,94,95
489.859375 8 m 4,109,110
 493.159179688 13 493.159179688 13 477.759765625 22 c 4,111,112
 474.459960938 24 474.459960938 24 470.059570312 29.5 c 132,-1,113
 465.659179688 35 465.659179688 35 462.359375 41 c 132,-1,114
 459.059570312 47 459.059570312 47 455.759765625 52 c 4,115,-1
 429.359375 74 l 4,116,117
 444.759765625 73 444.759765625 73 444.759765625 51 c 4,118,119
 444.759765625 47 444.759765625 47 447.509765625 40 c 132,-1,120
 450.259765625 33 450.259765625 33 455.209960938 25.5 c 132,-1,121
 460.159179688 18 460.159179688 18 466.209960938 12 c 132,-1,122
 472.259765625 6 472.259765625 6 478.859375 5 c 4,123,124
 482.159179688 5 482.159179688 5 486.009765625 5 c 4,125,126
 487.659179688 5 487.659179688 5 489.859375 8 c 4,109,110
78.4599609375 15 m 4,127,128
 76.259765625 19 76.259765625 19 71.3095703125 25 c 132,-1,129
 66.359375 31 66.359375 31 68.5595703125 36 c 4,130,131
 70.759765625 44 70.759765625 44 68.009765625 44 c 132,-1,132
 65.259765625 44 65.259765625 44 61.9599609375 38 c 4,133,134
 57.5595703125 30 57.5595703125 30 61.4091796875 20 c 132,-1,135
 65.259765625 10 65.259765625 10 70.759765625 8 c 4,136,137
 75.1591796875 6 75.1591796875 6 78.4599609375 7.5 c 132,-1,138
 81.759765625 9 81.759765625 9 78.4599609375 15 c 4,127,128
EndSplineSet
EndChar

StartChar: z
Encoding: 122 122 92
Width: 600
GlyphClass: 2
Flags: W
LayerCount: 2
Fore
SplineSet
40.8408203125 -11.9638671875 m 5,0,-1
 40.8408203125 57.44921875 l 5,1,-1
 449.434570312 519.446289062 l 5,2,-1
 57.5595703125 519.446289062 l 5,3,-1
 57.5595703125 597.963867188 l 5,4,-1
 550.799804688 597.963867188 l 5,5,-1
 550.799804688 517.171875 l 5,6,-1
 152.654296875 74.517578125 l 5,7,-1
 559.159179688 74.517578125 l 5,8,-1
 559.159179688 -11.9638671875 l 5,9,-1
 40.8408203125 -11.9638671875 l 5,0,-1
EndSplineSet
EndChar

StartChar: braceleft
Encoding: 123 123 93
Width: 600
VWidth: 1024
Flags: W
LayerCount: 2
Fore
SplineSet
35 379 m 1,0,1
 76 379 76 379 122.5 388 c 128,-1,2
 169 397 169 397 183.5 417.5 c 128,-1,3
 198 438 198 438 198 471 c 2,4,-1
 198 708 l 2,5,6
 198 759 198 759 220.5 790 c 128,-1,7
 243 821 243 821 379 836 c 128,-1,8
 515 851 515 851 565 852 c 5,9,-1
 565 778 l 5,10,11
 537 778 537 778 420 771.5 c 128,-1,12
 303 765 303 765 292 749 c 128,-1,13
 281 733 281 733 281 701 c 2,14,-1
 281 466 l 2,15,16
 281 415 281 415 253.5 384.5 c 128,-1,17
 226 354 226 354 172 343 c 1,18,-1
 172 338 l 1,19,20
 225 328 225 328 253 298 c 128,-1,21
 281 268 281 268 281 216 c 2,22,-1
 281 -18 l 2,23,24
 281 -50 281 -50 292 -66.5 c 128,-1,25
 303 -83 303 -83 420 -89 c 128,-1,26
 537 -95 537 -95 565 -96 c 5,27,-1
 565 -170 l 5,28,29
 515 -169 515 -169 379 -154 c 128,-1,30
 243 -139 243 -139 220.5 -108 c 128,-1,31
 198 -77 198 -77 198 -26 c 2,32,-1
 198 211 l 2,33,34
 198 245 198 245 183.5 265 c 128,-1,35
 169 285 169 285 122.5 294 c 128,-1,36
 76 303 76 303 35 303 c 1,37,-1
 35 379 l 1,0,1
EndSplineSet
EndChar

StartChar: bar
Encoding: 124 124 94
Width: 600
VWidth: 1024
Flags: W
LayerCount: 2
Fore
SplineSet
263.5 852 m 5,0,-1
 336.5 852 l 5,1,-1
 336.5 -170 l 5,2,-1
 263.5 -170 l 5,3,-1
 263.5 852 l 5,0,-1
EndSplineSet
EndChar

StartChar: asciitilde
Encoding: 126 126 96
Width: 600
VWidth: 1024
Flags: W
LayerCount: 2
Fore
SplineSet
29.73046875 343 m 5,0,1
 60.150390625 371 60.150390625 371 95.8349609375 384 c 132,-1,2
 131.51953125 397 131.51953125 397 174.810546875 397 c 4,3,4
 197.040039062 397 197.040039062 397 216.344726562 394.5 c 132,-1,5
 235.650390625 392 235.650390625 392 259.635742188 385.5 c 132,-1,6
 283.620117188 379 283.620117188 379 319.889648438 366 c 4,7,8
 364.349609375 350 364.349609375 350 388.334960938 344 c 132,-1,9
 412.3203125 338 412.3203125 338 436.889648438 338 c 4,10,11
 470.8203125 338 470.8203125 338 506.504882812 355.5 c 132,-1,12
 542.189453125 373 542.189453125 373 570.26953125 398 c 5,13,-1
 570.26953125 317 l 5,14,15
 541.01953125 290 541.01953125 290 504.75 276.5 c 132,-1,16
 468.48046875 263 468.48046875 263 425.189453125 263 c 4,17,18
 402.959960938 263 402.959960938 263 383.655273438 265.5 c 132,-1,19
 364.349609375 268 364.349609375 268 340.950195312 275 c 132,-1,20
 317.549804688 282 317.549804688 282 280.110351562 295 c 4,21,22
 236.819335938 311 236.819335938 311 213.419921875 317 c 132,-1,23
 190.01953125 323 190.01953125 323 163.110351562 323 c 4,24,25
 130.349609375 323 130.349609375 323 94.6650390625 305.5 c 132,-1,26
 58.98046875 288 58.98046875 288 29.73046875 262 c 5,27,-1
 29.73046875 343 l 5,0,1
EndSplineSet
EndChar

StartChar: uni0080
Encoding: 128 128 97
Width: 600
Flags: W
LayerCount: 2
Fore
SplineSet
32.849609375 85 m 0,0,1
 32.849609375 103 32.849609375 103 53 118 c 128,-1,2
 73.150390625 133 73.150390625 133 109.549804688 144.5 c 128,-1,3
 145.950195312 156 145.950195312 156 194.700195312 162.5 c 128,-1,4
 243.450195312 169 243.450195312 169 299.349609375 169 c 0,5,6
 356.549804688 169 356.549804688 169 405.299804688 162.5 c 128,-1,7
 454.049804688 156 454.049804688 156 489.799804688 144.5 c 128,-1,8
 525.549804688 133 525.549804688 133 546.349609375 118 c 128,-1,9
 567.150390625 103 567.150390625 103 567.150390625 85 c 0,10,11
 567.150390625 68 567.150390625 68 546.349609375 53 c 128,-1,12
 525.549804688 38 525.549804688 38 489.799804688 27 c 128,-1,13
 454.049804688 16 454.049804688 16 405.299804688 9.5 c 128,-1,14
 356.549804688 3 356.549804688 3 299.349609375 3 c 0,15,16
 243.450195312 3 243.450195312 3 194.700195312 9.5 c 128,-1,17
 145.950195312 16 145.950195312 16 109.549804688 27 c 128,-1,18
 73.150390625 38 73.150390625 38 53 53 c 128,-1,19
 32.849609375 68 32.849609375 68 32.849609375 85 c 0,0,1
136.849609375 85 m 256,20,21
 136.849609375 74 136.849609375 74 149.200195312 64.5 c 128,-1,22
 161.549804688 55 161.549804688 55 183.650390625 48.5 c 128,-1,23
 205.75 42 205.75 42 235.650390625 38 c 128,-1,24
 265.549804688 34 265.549804688 34 299.349609375 34 c 0,25,26
 334.450195312 34 334.450195312 34 363.700195312 38 c 128,-1,27
 392.950195312 42 392.950195312 42 415.049804688 48.5 c 128,-1,28
 437.150390625 55 437.150390625 55 449.5 64.5 c 128,-1,29
 461.849609375 74 461.849609375 74 461.849609375 85 c 256,30,31
 461.849609375 96 461.849609375 96 449.5 105.5 c 128,-1,32
 437.150390625 115 437.150390625 115 415.049804688 122 c 128,-1,33
 392.950195312 129 392.950195312 129 363.700195312 133 c 128,-1,34
 334.450195312 137 334.450195312 137 299.349609375 137 c 0,35,36
 265.549804688 137 265.549804688 137 235.650390625 133 c 128,-1,37
 205.75 129 205.75 129 183.650390625 122 c 128,-1,38
 161.549804688 115 161.549804688 115 149.200195312 105.5 c 128,-1,39
 136.849609375 96 136.849609375 96 136.849609375 85 c 256,20,21
32.849609375 272 m 0,40,41
 32.849609375 290 32.849609375 290 53 305 c 128,-1,42
 73.150390625 320 73.150390625 320 109.549804688 331.5 c 128,-1,43
 145.950195312 343 145.950195312 343 194.700195312 349 c 128,-1,44
 243.450195312 355 243.450195312 355 299.349609375 355 c 0,45,46
 356.549804688 355 356.549804688 355 405.299804688 349 c 128,-1,47
 454.049804688 343 454.049804688 343 489.799804688 331.5 c 128,-1,48
 525.549804688 320 525.549804688 320 546.349609375 305 c 128,-1,49
 567.150390625 290 567.150390625 290 567.150390625 272 c 0,50,51
 567.150390625 255 567.150390625 255 546.349609375 240 c 128,-1,52
 525.549804688 225 525.549804688 225 489.799804688 214 c 128,-1,53
 454.049804688 203 454.049804688 203 405.299804688 196 c 128,-1,54
 356.549804688 189 356.549804688 189 299.349609375 189 c 0,55,56
 243.450195312 189 243.450195312 189 194.700195312 196 c 128,-1,57
 145.950195312 203 145.950195312 203 109.549804688 214 c 128,-1,58
 73.150390625 225 73.150390625 225 53 240 c 128,-1,59
 32.849609375 255 32.849609375 255 32.849609375 272 c 0,40,41
136.849609375 272 m 256,60,61
 136.849609375 261 136.849609375 261 149.200195312 251.5 c 128,-1,62
 161.549804688 242 161.549804688 242 183.650390625 235 c 128,-1,63
 205.75 228 205.75 228 235.650390625 224 c 128,-1,64
 265.549804688 220 265.549804688 220 299.349609375 220 c 0,65,66
 334.450195312 220 334.450195312 220 363.700195312 224 c 128,-1,67
 392.950195312 228 392.950195312 228 415.049804688 235 c 128,-1,68
 437.150390625 242 437.150390625 242 449.5 251.5 c 128,-1,69
 461.849609375 261 461.849609375 261 461.849609375 272 c 256,70,71
 461.849609375 283 461.849609375 283 449.5 292.5 c 128,-1,72
 437.150390625 302 437.150390625 302 415.049804688 309 c 128,-1,73
 392.950195312 316 392.950195312 316 363.700195312 320 c 128,-1,74
 334.450195312 324 334.450195312 324 299.349609375 324 c 0,75,76
 265.549804688 324 265.549804688 324 235.650390625 320 c 128,-1,77
 205.75 316 205.75 316 183.650390625 309 c 128,-1,78
 161.549804688 302 161.549804688 302 149.200195312 292.5 c 128,-1,79
 136.849609375 283 136.849609375 283 136.849609375 272 c 256,60,61
32.849609375 461 m 256,80,81
 32.849609375 478 32.849609375 478 53 493.5 c 128,-1,82
 73.150390625 509 73.150390625 509 109.549804688 520 c 128,-1,83
 145.950195312 531 145.950195312 531 194.700195312 537.5 c 128,-1,84
 243.450195312 544 243.450195312 544 299.349609375 544 c 0,85,86
 356.549804688 544 356.549804688 544 405.299804688 537.5 c 128,-1,87
 454.049804688 531 454.049804688 531 489.799804688 520 c 128,-1,88
 525.549804688 509 525.549804688 509 546.349609375 493.5 c 128,-1,89
 567.150390625 478 567.150390625 478 567.150390625 461 c 256,90,91
 567.150390625 444 567.150390625 444 546.349609375 429 c 128,-1,92
 525.549804688 414 525.549804688 414 489.799804688 402.5 c 128,-1,93
 454.049804688 391 454.049804688 391 405.299804688 384.5 c 128,-1,94
 356.549804688 378 356.549804688 378 299.349609375 378 c 0,95,96
 243.450195312 378 243.450195312 378 194.700195312 384.5 c 128,-1,97
 145.950195312 391 145.950195312 391 109.549804688 402.5 c 128,-1,98
 73.150390625 414 73.150390625 414 53 429 c 128,-1,99
 32.849609375 444 32.849609375 444 32.849609375 461 c 256,80,81
136.849609375 461 m 256,100,101
 136.849609375 450 136.849609375 450 149.200195312 440.5 c 128,-1,102
 161.549804688 431 161.549804688 431 183.650390625 424 c 128,-1,103
 205.75 417 205.75 417 235.650390625 413 c 128,-1,104
 265.549804688 409 265.549804688 409 299.349609375 409 c 0,105,106
 334.450195312 409 334.450195312 409 363.700195312 413 c 128,-1,107
 392.950195312 417 392.950195312 417 415.049804688 424 c 128,-1,108
 437.150390625 431 437.150390625 431 449.5 440.5 c 128,-1,109
 461.849609375 450 461.849609375 450 461.849609375 461 c 256,110,111
 461.849609375 472 461.849609375 472 449.5 481.5 c 128,-1,112
 437.150390625 491 437.150390625 491 415.049804688 498 c 128,-1,113
 392.950195312 505 392.950195312 505 363.700195312 509 c 128,-1,114
 334.450195312 513 334.450195312 513 299.349609375 513 c 0,115,116
 265.549804688 513 265.549804688 513 235.650390625 509 c 128,-1,117
 205.75 505 205.75 505 183.650390625 498 c 128,-1,118
 161.549804688 491 161.549804688 491 149.200195312 481.5 c 128,-1,119
 136.849609375 472 136.849609375 472 136.849609375 461 c 256,100,101
32.849609375 648 m 256,120,121
 32.849609375 665 32.849609375 665 53 680.5 c 128,-1,122
 73.150390625 696 73.150390625 696 109.549804688 707 c 128,-1,123
 145.950195312 718 145.950195312 718 194.700195312 724.5 c 128,-1,124
 243.450195312 731 243.450195312 731 299.349609375 731 c 0,125,126
 356.549804688 731 356.549804688 731 405.299804688 724.5 c 128,-1,127
 454.049804688 718 454.049804688 718 489.799804688 707 c 128,-1,128
 525.549804688 696 525.549804688 696 546.349609375 680.5 c 128,-1,129
 567.150390625 665 567.150390625 665 567.150390625 648 c 256,130,131
 567.150390625 631 567.150390625 631 546.349609375 616 c 128,-1,132
 525.549804688 601 525.549804688 601 489.799804688 589.5 c 128,-1,133
 454.049804688 578 454.049804688 578 405.299804688 571.5 c 128,-1,134
 356.549804688 565 356.549804688 565 299.349609375 565 c 0,135,136
 243.450195312 565 243.450195312 565 194.700195312 571.5 c 128,-1,137
 145.950195312 578 145.950195312 578 109.549804688 589.5 c 128,-1,138
 73.150390625 601 73.150390625 601 53 616 c 128,-1,139
 32.849609375 631 32.849609375 631 32.849609375 648 c 256,120,121
136.849609375 648 m 0,140,141
 136.849609375 637 136.849609375 637 149.200195312 627.5 c 128,-1,142
 161.549804688 618 161.549804688 618 183.650390625 611 c 128,-1,143
 205.75 604 205.75 604 235.650390625 600 c 128,-1,144
 265.549804688 596 265.549804688 596 299.349609375 596 c 0,145,146
 334.450195312 596 334.450195312 596 363.700195312 600 c 128,-1,147
 392.950195312 604 392.950195312 604 415.049804688 611 c 128,-1,148
 437.150390625 618 437.150390625 618 449.5 627.5 c 128,-1,149
 461.849609375 637 461.849609375 637 461.849609375 648 c 0,150,151
 461.849609375 658 461.849609375 658 449.5 668 c 128,-1,152
 437.150390625 678 437.150390625 678 415.049804688 685 c 128,-1,153
 392.950195312 692 392.950195312 692 363.700195312 696 c 128,-1,154
 334.450195312 700 334.450195312 700 299.349609375 700 c 0,155,156
 265.549804688 700 265.549804688 700 235.650390625 696 c 128,-1,157
 205.75 692 205.75 692 183.650390625 685 c 128,-1,158
 161.549804688 678 161.549804688 678 149.200195312 668 c 128,-1,159
 136.849609375 658 136.849609375 658 136.849609375 648 c 0,140,141
EndSplineSet
EndChar

StartChar: uni0081
Encoding: 129 129 98
Width: 600
Flags: W
LayerCount: 2
Fore
SplineSet
32.849609375 85 m 0,0,1
 32.849609375 103 32.849609375 103 53 118 c 128,-1,2
 73.150390625 133 73.150390625 133 109.549804688 144.5 c 128,-1,3
 145.950195312 156 145.950195312 156 194.700195312 162.5 c 128,-1,4
 243.450195312 169 243.450195312 169 299.349609375 169 c 0,5,6
 356.549804688 169 356.549804688 169 405.299804688 162.5 c 128,-1,7
 454.049804688 156 454.049804688 156 489.799804688 144.5 c 128,-1,8
 525.549804688 133 525.549804688 133 546.349609375 118 c 128,-1,9
 567.150390625 103 567.150390625 103 567.150390625 85 c 0,10,11
 567.150390625 68 567.150390625 68 546.349609375 53 c 128,-1,12
 525.549804688 38 525.549804688 38 489.799804688 27 c 128,-1,13
 454.049804688 16 454.049804688 16 405.299804688 9.5 c 128,-1,14
 356.549804688 3 356.549804688 3 299.349609375 3 c 0,15,16
 243.450195312 3 243.450195312 3 194.700195312 9.5 c 128,-1,17
 145.950195312 16 145.950195312 16 109.549804688 27 c 128,-1,18
 73.150390625 38 73.150390625 38 53 53 c 128,-1,19
 32.849609375 68 32.849609375 68 32.849609375 85 c 0,0,1
32.849609375 272 m 0,20,21
 32.849609375 290 32.849609375 290 53 305 c 128,-1,22
 73.150390625 320 73.150390625 320 109.549804688 331.5 c 128,-1,23
 145.950195312 343 145.950195312 343 194.700195312 349 c 128,-1,24
 243.450195312 355 243.450195312 355 299.349609375 355 c 0,25,26
 356.549804688 355 356.549804688 355 405.299804688 349 c 128,-1,27
 454.049804688 343 454.049804688 343 489.799804688 331.5 c 128,-1,28
 525.549804688 320 525.549804688 320 546.349609375 305 c 128,-1,29
 567.150390625 290 567.150390625 290 567.150390625 272 c 0,30,31
 567.150390625 255 567.150390625 255 546.349609375 240 c 128,-1,32
 525.549804688 225 525.549804688 225 489.799804688 214 c 128,-1,33
 454.049804688 203 454.049804688 203 405.299804688 196 c 128,-1,34
 356.549804688 189 356.549804688 189 299.349609375 189 c 0,35,36
 243.450195312 189 243.450195312 189 194.700195312 196 c 128,-1,37
 145.950195312 203 145.950195312 203 109.549804688 214 c 128,-1,38
 73.150390625 225 73.150390625 225 53 240 c 128,-1,39
 32.849609375 255 32.849609375 255 32.849609375 272 c 0,20,21
136.849609375 272 m 256,40,41
 136.849609375 261 136.849609375 261 149.200195312 251.5 c 128,-1,42
 161.549804688 242 161.549804688 242 183.650390625 235 c 128,-1,43
 205.75 228 205.75 228 235.650390625 224 c 128,-1,44
 265.549804688 220 265.549804688 220 299.349609375 220 c 0,45,46
 334.450195312 220 334.450195312 220 363.700195312 224 c 128,-1,47
 392.950195312 228 392.950195312 228 415.049804688 235 c 128,-1,48
 437.150390625 242 437.150390625 242 449.5 251.5 c 128,-1,49
 461.849609375 261 461.849609375 261 461.849609375 272 c 256,50,51
 461.849609375 283 461.849609375 283 449.5 292.5 c 128,-1,52
 437.150390625 302 437.150390625 302 415.049804688 309 c 128,-1,53
 392.950195312 316 392.950195312 316 363.700195312 320 c 128,-1,54
 334.450195312 324 334.450195312 324 299.349609375 324 c 0,55,56
 265.549804688 324 265.549804688 324 235.650390625 320 c 128,-1,57
 205.75 316 205.75 316 183.650390625 309 c 128,-1,58
 161.549804688 302 161.549804688 302 149.200195312 292.5 c 128,-1,59
 136.849609375 283 136.849609375 283 136.849609375 272 c 256,40,41
32.849609375 461 m 256,60,61
 32.849609375 478 32.849609375 478 53 493.5 c 128,-1,62
 73.150390625 509 73.150390625 509 109.549804688 520 c 128,-1,63
 145.950195312 531 145.950195312 531 194.700195312 537.5 c 128,-1,64
 243.450195312 544 243.450195312 544 299.349609375 544 c 0,65,66
 356.549804688 544 356.549804688 544 405.299804688 537.5 c 128,-1,67
 454.049804688 531 454.049804688 531 489.799804688 520 c 128,-1,68
 525.549804688 509 525.549804688 509 546.349609375 493.5 c 128,-1,69
 567.150390625 478 567.150390625 478 567.150390625 461 c 256,70,71
 567.150390625 444 567.150390625 444 546.349609375 429 c 128,-1,72
 525.549804688 414 525.549804688 414 489.799804688 402.5 c 128,-1,73
 454.049804688 391 454.049804688 391 405.299804688 384.5 c 128,-1,74
 356.549804688 378 356.549804688 378 299.349609375 378 c 0,75,76
 243.450195312 378 243.450195312 378 194.700195312 384.5 c 128,-1,77
 145.950195312 391 145.950195312 391 109.549804688 402.5 c 128,-1,78
 73.150390625 414 73.150390625 414 53 429 c 128,-1,79
 32.849609375 444 32.849609375 444 32.849609375 461 c 256,60,61
136.849609375 461 m 256,80,81
 136.849609375 450 136.849609375 450 149.200195312 440.5 c 128,-1,82
 161.549804688 431 161.549804688 431 183.650390625 424 c 128,-1,83
 205.75 417 205.75 417 235.650390625 413 c 128,-1,84
 265.549804688 409 265.549804688 409 299.349609375 409 c 0,85,86
 334.450195312 409 334.450195312 409 363.700195312 413 c 128,-1,87
 392.950195312 417 392.950195312 417 415.049804688 424 c 128,-1,88
 437.150390625 431 437.150390625 431 449.5 440.5 c 128,-1,89
 461.849609375 450 461.849609375 450 461.849609375 461 c 256,90,91
 461.849609375 472 461.849609375 472 449.5 481.5 c 128,-1,92
 437.150390625 491 437.150390625 491 415.049804688 498 c 128,-1,93
 392.950195312 505 392.950195312 505 363.700195312 509 c 128,-1,94
 334.450195312 513 334.450195312 513 299.349609375 513 c 0,95,96
 265.549804688 513 265.549804688 513 235.650390625 509 c 128,-1,97
 205.75 505 205.75 505 183.650390625 498 c 128,-1,98
 161.549804688 491 161.549804688 491 149.200195312 481.5 c 128,-1,99
 136.849609375 472 136.849609375 472 136.849609375 461 c 256,80,81
32.849609375 648 m 256,100,101
 32.849609375 665 32.849609375 665 53 680.5 c 128,-1,102
 73.150390625 696 73.150390625 696 109.549804688 707 c 128,-1,103
 145.950195312 718 145.950195312 718 194.700195312 724.5 c 128,-1,104
 243.450195312 731 243.450195312 731 299.349609375 731 c 0,105,106
 356.549804688 731 356.549804688 731 405.299804688 724.5 c 128,-1,107
 454.049804688 718 454.049804688 718 489.799804688 707 c 128,-1,108
 525.549804688 696 525.549804688 696 546.349609375 680.5 c 128,-1,109
 567.150390625 665 567.150390625 665 567.150390625 648 c 256,110,111
 567.150390625 631 567.150390625 631 546.349609375 616 c 128,-1,112
 525.549804688 601 525.549804688 601 489.799804688 589.5 c 128,-1,113
 454.049804688 578 454.049804688 578 405.299804688 571.5 c 128,-1,114
 356.549804688 565 356.549804688 565 299.349609375 565 c 0,115,116
 243.450195312 565 243.450195312 565 194.700195312 571.5 c 128,-1,117
 145.950195312 578 145.950195312 578 109.549804688 589.5 c 128,-1,118
 73.150390625 601 73.150390625 601 53 616 c 128,-1,119
 32.849609375 631 32.849609375 631 32.849609375 648 c 256,100,101
136.849609375 648 m 0,120,121
 136.849609375 637 136.849609375 637 149.200195312 627.5 c 128,-1,122
 161.549804688 618 161.549804688 618 183.650390625 611 c 128,-1,123
 205.75 604 205.75 604 235.650390625 600 c 128,-1,124
 265.549804688 596 265.549804688 596 299.349609375 596 c 0,125,126
 334.450195312 596 334.450195312 596 363.700195312 600 c 128,-1,127
 392.950195312 604 392.950195312 604 415.049804688 611 c 128,-1,128
 437.150390625 618 437.150390625 618 449.5 627.5 c 128,-1,129
 461.849609375 637 461.849609375 637 461.849609375 648 c 0,130,131
 461.849609375 658 461.849609375 658 449.5 668 c 128,-1,132
 437.150390625 678 437.150390625 678 415.049804688 685 c 128,-1,133
 392.950195312 692 392.950195312 692 363.700195312 696 c 128,-1,134
 334.450195312 700 334.450195312 700 299.349609375 700 c 0,135,136
 265.549804688 700 265.549804688 700 235.650390625 696 c 128,-1,137
 205.75 692 205.75 692 183.650390625 685 c 128,-1,138
 161.549804688 678 161.549804688 678 149.200195312 668 c 128,-1,139
 136.849609375 658 136.849609375 658 136.849609375 648 c 0,120,121
EndSplineSet
EndChar

StartChar: uni0082
Encoding: 130 130 99
Width: 600
Flags: W
LayerCount: 2
Fore
SplineSet
32.849609375 85 m 0,0,1
 32.849609375 103 32.849609375 103 53 118 c 128,-1,2
 73.150390625 133 73.150390625 133 109.549804688 144.5 c 128,-1,3
 145.950195312 156 145.950195312 156 194.700195312 162.5 c 128,-1,4
 243.450195312 169 243.450195312 169 299.349609375 169 c 0,5,6
 356.549804688 169 356.549804688 169 405.299804688 162.5 c 128,-1,7
 454.049804688 156 454.049804688 156 489.799804688 144.5 c 128,-1,8
 525.549804688 133 525.549804688 133 546.349609375 118 c 128,-1,9
 567.150390625 103 567.150390625 103 567.150390625 85 c 0,10,11
 567.150390625 68 567.150390625 68 546.349609375 53 c 128,-1,12
 525.549804688 38 525.549804688 38 489.799804688 27 c 128,-1,13
 454.049804688 16 454.049804688 16 405.299804688 9.5 c 128,-1,14
 356.549804688 3 356.549804688 3 299.349609375 3 c 0,15,16
 243.450195312 3 243.450195312 3 194.700195312 9.5 c 128,-1,17
 145.950195312 16 145.950195312 16 109.549804688 27 c 128,-1,18
 73.150390625 38 73.150390625 38 53 53 c 128,-1,19
 32.849609375 68 32.849609375 68 32.849609375 85 c 0,0,1
136.849609375 85 m 256,20,21
 136.849609375 74 136.849609375 74 149.200195312 64.5 c 128,-1,22
 161.549804688 55 161.549804688 55 183.650390625 48.5 c 128,-1,23
 205.75 42 205.75 42 235.650390625 38 c 128,-1,24
 265.549804688 34 265.549804688 34 299.349609375 34 c 0,25,26
 334.450195312 34 334.450195312 34 363.700195312 38 c 128,-1,27
 392.950195312 42 392.950195312 42 415.049804688 48.5 c 128,-1,28
 437.150390625 55 437.150390625 55 449.5 64.5 c 128,-1,29
 461.849609375 74 461.849609375 74 461.849609375 85 c 256,30,31
 461.849609375 96 461.849609375 96 449.5 105.5 c 128,-1,32
 437.150390625 115 437.150390625 115 415.049804688 122 c 128,-1,33
 392.950195312 129 392.950195312 129 363.700195312 133 c 128,-1,34
 334.450195312 137 334.450195312 137 299.349609375 137 c 0,35,36
 265.549804688 137 265.549804688 137 235.650390625 133 c 128,-1,37
 205.75 129 205.75 129 183.650390625 122 c 128,-1,38
 161.549804688 115 161.549804688 115 149.200195312 105.5 c 128,-1,39
 136.849609375 96 136.849609375 96 136.849609375 85 c 256,20,21
32.849609375 272 m 0,40,41
 32.849609375 290 32.849609375 290 53 305 c 128,-1,42
 73.150390625 320 73.150390625 320 109.549804688 331.5 c 128,-1,43
 145.950195312 343 145.950195312 343 194.700195312 349 c 128,-1,44
 243.450195312 355 243.450195312 355 299.349609375 355 c 0,45,46
 356.549804688 355 356.549804688 355 405.299804688 349 c 128,-1,47
 454.049804688 343 454.049804688 343 489.799804688 331.5 c 128,-1,48
 525.549804688 320 525.549804688 320 546.349609375 305 c 128,-1,49
 567.150390625 290 567.150390625 290 567.150390625 272 c 0,50,51
 567.150390625 255 567.150390625 255 546.349609375 240 c 128,-1,52
 525.549804688 225 525.549804688 225 489.799804688 214 c 128,-1,53
 454.049804688 203 454.049804688 203 405.299804688 196 c 128,-1,54
 356.549804688 189 356.549804688 189 299.349609375 189 c 0,55,56
 243.450195312 189 243.450195312 189 194.700195312 196 c 128,-1,57
 145.950195312 203 145.950195312 203 109.549804688 214 c 128,-1,58
 73.150390625 225 73.150390625 225 53 240 c 128,-1,59
 32.849609375 255 32.849609375 255 32.849609375 272 c 0,40,41
32.849609375 461 m 256,60,61
 32.849609375 478 32.849609375 478 53 493.5 c 128,-1,62
 73.150390625 509 73.150390625 509 109.549804688 520 c 128,-1,63
 145.950195312 531 145.950195312 531 194.700195312 537.5 c 128,-1,64
 243.450195312 544 243.450195312 544 299.349609375 544 c 0,65,66
 356.549804688 544 356.549804688 544 405.299804688 537.5 c 128,-1,67
 454.049804688 531 454.049804688 531 489.799804688 520 c 128,-1,68
 525.549804688 509 525.549804688 509 546.349609375 493.5 c 128,-1,69
 567.150390625 478 567.150390625 478 567.150390625 461 c 256,70,71
 567.150390625 444 567.150390625 444 546.349609375 429 c 128,-1,72
 525.549804688 414 525.549804688 414 489.799804688 402.5 c 128,-1,73
 454.049804688 391 454.049804688 391 405.299804688 384.5 c 128,-1,74
 356.549804688 378 356.549804688 378 299.349609375 378 c 0,75,76
 243.450195312 378 243.450195312 378 194.700195312 384.5 c 128,-1,77
 145.950195312 391 145.950195312 391 109.549804688 402.5 c 128,-1,78
 73.150390625 414 73.150390625 414 53 429 c 128,-1,79
 32.849609375 444 32.849609375 444 32.849609375 461 c 256,60,61
136.849609375 461 m 256,80,81
 136.849609375 450 136.849609375 450 149.200195312 440.5 c 128,-1,82
 161.549804688 431 161.549804688 431 183.650390625 424 c 128,-1,83
 205.75 417 205.75 417 235.650390625 413 c 128,-1,84
 265.549804688 409 265.549804688 409 299.349609375 409 c 0,85,86
 334.450195312 409 334.450195312 409 363.700195312 413 c 128,-1,87
 392.950195312 417 392.950195312 417 415.049804688 424 c 128,-1,88
 437.150390625 431 437.150390625 431 449.5 440.5 c 128,-1,89
 461.849609375 450 461.849609375 450 461.849609375 461 c 256,90,91
 461.849609375 472 461.849609375 472 449.5 481.5 c 128,-1,92
 437.150390625 491 437.150390625 491 415.049804688 498 c 128,-1,93
 392.950195312 505 392.950195312 505 363.700195312 509 c 128,-1,94
 334.450195312 513 334.450195312 513 299.349609375 513 c 0,95,96
 265.549804688 513 265.549804688 513 235.650390625 509 c 128,-1,97
 205.75 505 205.75 505 183.650390625 498 c 128,-1,98
 161.549804688 491 161.549804688 491 149.200195312 481.5 c 128,-1,99
 136.849609375 472 136.849609375 472 136.849609375 461 c 256,80,81
32.849609375 648 m 256,100,101
 32.849609375 665 32.849609375 665 53 680.5 c 128,-1,102
 73.150390625 696 73.150390625 696 109.549804688 707 c 128,-1,103
 145.950195312 718 145.950195312 718 194.700195312 724.5 c 128,-1,104
 243.450195312 731 243.450195312 731 299.349609375 731 c 0,105,106
 356.549804688 731 356.549804688 731 405.299804688 724.5 c 128,-1,107
 454.049804688 718 454.049804688 718 489.799804688 707 c 128,-1,108
 525.549804688 696 525.549804688 696 546.349609375 680.5 c 128,-1,109
 567.150390625 665 567.150390625 665 567.150390625 648 c 256,110,111
 567.150390625 631 567.150390625 631 546.349609375 616 c 128,-1,112
 525.549804688 601 525.549804688 601 489.799804688 589.5 c 128,-1,113
 454.049804688 578 454.049804688 578 405.299804688 571.5 c 128,-1,114
 356.549804688 565 356.549804688 565 299.349609375 565 c 0,115,116
 243.450195312 565 243.450195312 565 194.700195312 571.5 c 128,-1,117
 145.950195312 578 145.950195312 578 109.549804688 589.5 c 128,-1,118
 73.150390625 601 73.150390625 601 53 616 c 128,-1,119
 32.849609375 631 32.849609375 631 32.849609375 648 c 256,100,101
136.849609375 648 m 0,120,121
 136.849609375 637 136.849609375 637 149.200195312 627.5 c 128,-1,122
 161.549804688 618 161.549804688 618 183.650390625 611 c 128,-1,123
 205.75 604 205.75 604 235.650390625 600 c 128,-1,124
 265.549804688 596 265.549804688 596 299.349609375 596 c 0,125,126
 334.450195312 596 334.450195312 596 363.700195312 600 c 128,-1,127
 392.950195312 604 392.950195312 604 415.049804688 611 c 128,-1,128
 437.150390625 618 437.150390625 618 449.5 627.5 c 128,-1,129
 461.849609375 637 461.849609375 637 461.849609375 648 c 0,130,131
 461.849609375 658 461.849609375 658 449.5 668 c 128,-1,132
 437.150390625 678 437.150390625 678 415.049804688 685 c 128,-1,133
 392.950195312 692 392.950195312 692 363.700195312 696 c 128,-1,134
 334.450195312 700 334.450195312 700 299.349609375 700 c 0,135,136
 265.549804688 700 265.549804688 700 235.650390625 696 c 128,-1,137
 205.75 692 205.75 692 183.650390625 685 c 128,-1,138
 161.549804688 678 161.549804688 678 149.200195312 668 c 128,-1,139
 136.849609375 658 136.849609375 658 136.849609375 648 c 0,120,121
EndSplineSet
EndChar

StartChar: uni0083
Encoding: 131 131 100
Width: 600
Flags: W
LayerCount: 2
Fore
SplineSet
32.849609375 85 m 0,0,1
 32.849609375 103 32.849609375 103 53 118 c 128,-1,2
 73.150390625 133 73.150390625 133 109.549804688 144.5 c 128,-1,3
 145.950195312 156 145.950195312 156 194.700195312 162.5 c 128,-1,4
 243.450195312 169 243.450195312 169 299.349609375 169 c 0,5,6
 356.549804688 169 356.549804688 169 405.299804688 162.5 c 128,-1,7
 454.049804688 156 454.049804688 156 489.799804688 144.5 c 128,-1,8
 525.549804688 133 525.549804688 133 546.349609375 118 c 128,-1,9
 567.150390625 103 567.150390625 103 567.150390625 85 c 0,10,11
 567.150390625 68 567.150390625 68 546.349609375 53 c 128,-1,12
 525.549804688 38 525.549804688 38 489.799804688 27 c 128,-1,13
 454.049804688 16 454.049804688 16 405.299804688 9.5 c 128,-1,14
 356.549804688 3 356.549804688 3 299.349609375 3 c 0,15,16
 243.450195312 3 243.450195312 3 194.700195312 9.5 c 128,-1,17
 145.950195312 16 145.950195312 16 109.549804688 27 c 128,-1,18
 73.150390625 38 73.150390625 38 53 53 c 128,-1,19
 32.849609375 68 32.849609375 68 32.849609375 85 c 0,0,1
32.849609375 272 m 0,20,21
 32.849609375 290 32.849609375 290 53 305 c 128,-1,22
 73.150390625 320 73.150390625 320 109.549804688 331.5 c 128,-1,23
 145.950195312 343 145.950195312 343 194.700195312 349 c 128,-1,24
 243.450195312 355 243.450195312 355 299.349609375 355 c 0,25,26
 356.549804688 355 356.549804688 355 405.299804688 349 c 128,-1,27
 454.049804688 343 454.049804688 343 489.799804688 331.5 c 128,-1,28
 525.549804688 320 525.549804688 320 546.349609375 305 c 128,-1,29
 567.150390625 290 567.150390625 290 567.150390625 272 c 0,30,31
 567.150390625 255 567.150390625 255 546.349609375 240 c 128,-1,32
 525.549804688 225 525.549804688 225 489.799804688 214 c 128,-1,33
 454.049804688 203 454.049804688 203 405.299804688 196 c 128,-1,34
 356.549804688 189 356.549804688 189 299.349609375 189 c 0,35,36
 243.450195312 189 243.450195312 189 194.700195312 196 c 128,-1,37
 145.950195312 203 145.950195312 203 109.549804688 214 c 128,-1,38
 73.150390625 225 73.150390625 225 53 240 c 128,-1,39
 32.849609375 255 32.849609375 255 32.849609375 272 c 0,20,21
32.849609375 461 m 256,40,41
 32.849609375 478 32.849609375 478 53 493.5 c 128,-1,42
 73.150390625 509 73.150390625 509 109.549804688 520 c 128,-1,43
 145.950195312 531 145.950195312 531 194.700195312 537.5 c 128,-1,44
 243.450195312 544 243.450195312 544 299.349609375 544 c 0,45,46
 356.549804688 544 356.549804688 544 405.299804688 537.5 c 128,-1,47
 454.049804688 531 454.049804688 531 489.799804688 520 c 128,-1,48
 525.549804688 509 525.549804688 509 546.349609375 493.5 c 128,-1,49
 567.150390625 478 567.150390625 478 567.150390625 461 c 256,50,51
 567.150390625 444 567.150390625 444 546.349609375 429 c 128,-1,52
 525.549804688 414 525.549804688 414 489.799804688 402.5 c 128,-1,53
 454.049804688 391 454.049804688 391 405.299804688 384.5 c 128,-1,54
 356.549804688 378 356.549804688 378 299.349609375 378 c 0,55,56
 243.450195312 378 243.450195312 378 194.700195312 384.5 c 128,-1,57
 145.950195312 391 145.950195312 391 109.549804688 402.5 c 128,-1,58
 73.150390625 414 73.150390625 414 53 429 c 128,-1,59
 32.849609375 444 32.849609375 444 32.849609375 461 c 256,40,41
136.849609375 461 m 256,60,61
 136.849609375 450 136.849609375 450 149.200195312 440.5 c 128,-1,62
 161.549804688 431 161.549804688 431 183.650390625 424 c 128,-1,63
 205.75 417 205.75 417 235.650390625 413 c 128,-1,64
 265.549804688 409 265.549804688 409 299.349609375 409 c 0,65,66
 334.450195312 409 334.450195312 409 363.700195312 413 c 128,-1,67
 392.950195312 417 392.950195312 417 415.049804688 424 c 128,-1,68
 437.150390625 431 437.150390625 431 449.5 440.5 c 128,-1,69
 461.849609375 450 461.849609375 450 461.849609375 461 c 256,70,71
 461.849609375 472 461.849609375 472 449.5 481.5 c 128,-1,72
 437.150390625 491 437.150390625 491 415.049804688 498 c 128,-1,73
 392.950195312 505 392.950195312 505 363.700195312 509 c 128,-1,74
 334.450195312 513 334.450195312 513 299.349609375 513 c 0,75,76
 265.549804688 513 265.549804688 513 235.650390625 509 c 128,-1,77
 205.75 505 205.75 505 183.650390625 498 c 128,-1,78
 161.549804688 491 161.549804688 491 149.200195312 481.5 c 128,-1,79
 136.849609375 472 136.849609375 472 136.849609375 461 c 256,60,61
32.849609375 648 m 256,80,81
 32.849609375 665 32.849609375 665 53 680.5 c 128,-1,82
 73.150390625 696 73.150390625 696 109.549804688 707 c 128,-1,83
 145.950195312 718 145.950195312 718 194.700195312 724.5 c 128,-1,84
 243.450195312 731 243.450195312 731 299.349609375 731 c 0,85,86
 356.549804688 731 356.549804688 731 405.299804688 724.5 c 128,-1,87
 454.049804688 718 454.049804688 718 489.799804688 707 c 128,-1,88
 525.549804688 696 525.549804688 696 546.349609375 680.5 c 128,-1,89
 567.150390625 665 567.150390625 665 567.150390625 648 c 256,90,91
 567.150390625 631 567.150390625 631 546.349609375 616 c 128,-1,92
 525.549804688 601 525.549804688 601 489.799804688 589.5 c 128,-1,93
 454.049804688 578 454.049804688 578 405.299804688 571.5 c 128,-1,94
 356.549804688 565 356.549804688 565 299.349609375 565 c 0,95,96
 243.450195312 565 243.450195312 565 194.700195312 571.5 c 128,-1,97
 145.950195312 578 145.950195312 578 109.549804688 589.5 c 128,-1,98
 73.150390625 601 73.150390625 601 53 616 c 128,-1,99
 32.849609375 631 32.849609375 631 32.849609375 648 c 256,80,81
136.849609375 648 m 0,100,101
 136.849609375 637 136.849609375 637 149.200195312 627.5 c 128,-1,102
 161.549804688 618 161.549804688 618 183.650390625 611 c 128,-1,103
 205.75 604 205.75 604 235.650390625 600 c 128,-1,104
 265.549804688 596 265.549804688 596 299.349609375 596 c 0,105,106
 334.450195312 596 334.450195312 596 363.700195312 600 c 128,-1,107
 392.950195312 604 392.950195312 604 415.049804688 611 c 128,-1,108
 437.150390625 618 437.150390625 618 449.5 627.5 c 128,-1,109
 461.849609375 637 461.849609375 637 461.849609375 648 c 0,110,111
 461.849609375 658 461.849609375 658 449.5 668 c 128,-1,112
 437.150390625 678 437.150390625 678 415.049804688 685 c 128,-1,113
 392.950195312 692 392.950195312 692 363.700195312 696 c 128,-1,114
 334.450195312 700 334.450195312 700 299.349609375 700 c 0,115,116
 265.549804688 700 265.549804688 700 235.650390625 696 c 128,-1,117
 205.75 692 205.75 692 183.650390625 685 c 128,-1,118
 161.549804688 678 161.549804688 678 149.200195312 668 c 128,-1,119
 136.849609375 658 136.849609375 658 136.849609375 648 c 0,100,101
EndSplineSet
EndChar

